<?xml version="1.0" encoding="utf-8"?>
<!-- Generator: Adobe Illustrator 27.4.0, SVG Export Plug-In . SVG Version: 6.00 Build 0)  -->
<svg version="1.1" id="Layer_1" xmlns="http://www.w3.org/2000/svg" xmlns:xlink="http://www.w3.org/1999/xlink" x="0px" y="0px"
	 viewBox="0 0 475.1 401.3" style="enable-background:new 0 0 475.1 401.3;" xml:space="preserve">
<style type="text/css">
	.st0{fill:#424242;}
	.st1{font-family:'Arial';}
	.st2{font-size:18px;}
	.st3{fill:none;stroke:#939393;stroke-width:2;}
	.st4{fill:#1EC794;}
	.st5{display:none;fill:#FFFFFF;fill-opacity:0.2;stroke:#FFFFFF;stroke-opacity:0.2;}
	.st6{fill:#1CBB8C;}
	.st7{fill:#18A178;}
	.st8{fill:#127A5B;}
	.st9{fill:#093B2C;}
	.st10{fill:none;}
	.st11{font-size:16px;}
</style>
<g>
	<g>
		<g>
			<text transform="matrix(1 0 0 1 56.288 395.5)" class="st0 st1 st2">Share of Internet Population Growth, 2007 - 2012</text>
		</g>
	</g>
	<g>
		<g>
			<path class="st3" d="M256.3,314.8l5.5,13.2h39.7"/>
			<path class="st3" d="M78.9,163.9L61.5,149h-4"/>
			<path class="st3" d="M146.7,78.1L129.9,45H116"/>
			<path class="st3" d="M230.3,66.3l8.9-46.3h11.1"/>
			<path class="st3" d="M285.4,91.1L308.6,61h4.3"/>
			<path class="st3" d="M310.7,116.9l20.1-14.9h9.8"/>
			<g>
				<path class="st4" d="M311.9,133.2c13.9,24,19.2,52.8,14.9,80.2s-18.2,53.2-38.7,71.8c-20.5,18.6-47.5,30-75.2,31.6
					c-27.7,1.6-55.8-6.5-78.4-22.6C112,278,95.2,254,87.8,227.3l118-32.8L311.9,133.2z"/>
				<path class="st5" d="M311.9,133.2c13.9,24,19.2,52.8,14.9,80.2s-18.2,53.2-38.7,71.8c-20.5,18.6-47.5,30-75.2,31.6
					c-27.7,1.6-55.8-6.5-78.4-22.6C112,278,95.2,254,87.8,227.3l118-32.8L311.9,133.2z"/>
			</g>
			<g>
				<path class="st6" d="M87.8,227.3c-5.6-20-5.9-41.4-1.1-61.5c4.9-20.2,14.9-39,29-54.3l90.1,83L87.8,227.3z"/>
				<path class="st5" d="M87.8,227.3c-5.6-20-5.9-41.4-1.1-61.5c4.9-20.2,14.9-39,29-54.3l90.1,83L87.8,227.3z"/>
			</g>
			<g>
				<path class="st7" d="M115.7,111.5c19.7-21.4,47.3-35.4,76.2-38.7l13.9,121.7L115.7,111.5z"/>
				<path class="st5" d="M115.7,111.5c19.7-21.4,47.3-35.4,76.2-38.7l13.9,121.7L115.7,111.5z"/>
			</g>
			<g>
				<path class="st8" d="M191.9,72.8c24.6-2.8,50,2.1,71.8,13.7l-57.9,108L191.9,72.8z"/>
				<path class="st5" d="M191.9,72.8c24.6-2.8,50,2.1,71.8,13.7l-57.9,108L191.9,72.8z"/>
			</g>
			<g>
				<path class="st9" d="M263.7,86.5c11.8,6.3,22.6,14.6,31.7,24.4l-89.6,83.6L263.7,86.5z"/>
				<path class="st5" d="M263.7,86.5c11.8,6.3,22.6,14.6,31.7,24.4l-89.6,83.6L263.7,86.5z"/>
			</g>
			<g>
				<path d="M295.4,110.9c6.3,6.8,11.9,14.3,16.5,22.3l-106.1,61.2L295.4,110.9z"/>
				<path class="st5" d="M295.4,110.9c6.3,6.8,11.9,14.3,16.5,22.3l-106.1,61.2L295.4,110.9z"/>
			</g>
			<g>
				<path class="st10" d="M310,308h40v40h-40V308z"/>
				<text transform="matrix(1 0 0 1 319.0377 325)" class="st0 st1 st2">Asia:</text>
				<text transform="matrix(1 0 0 1 317.0377 340)" class="st0 st1 st11">53.8%</text>
			</g>
			<g>
				<path class="st10" d="M0,129h49v40H0V129z"/>
				<text transform="matrix(1 0 0 1 6.9998 146)" class="st0 st1 st2">Europe:</text>
				<text transform="matrix(1 0 0 1 12.9998 161)" class="st0 st1 st11">16.1%</text>
			</g>
			<g>
				<path class="st10" d="M27.5,25h80v40h-80V25z"/>
				<text transform="matrix(1 0 0 1 34.5434 42)" class="st0 st1 st2">Latin America:</text>
				<text transform="matrix(1 0 0 1 56.0434 57)" class="st0 st1 st11">11.3%</text>
			</g>
			<g>
				<path class="st10" d="M258.8,0h43v40h-43V0z"/>
				<text transform="matrix(1 0 0 1 265.7666 17)" class="st0 st1 st2">Africa:</text>
				<text transform="matrix(1 0 0 1 270.2666 32)" class="st0 st1 st11">9.6%</text>
			</g>
			<g>
				<path class="st10" d="M321.4,41h70v40h-70V41z"/>
				<text transform="matrix(1 0 0 1 328.3966 58)" class="st0 st1 st2">Middle East:</text>
				<text transform="matrix(1 0 0 1 346.3966 73)" class="st0 st1 st11">5.2%</text>
			</g>
			<g>
				<path class="st10" d="M349.1,82h83v40h-83V82z"/>
				<text transform="matrix(1 0 0 1 356.0605 99)" class="st0 st1 st2">North America:</text>
				<text transform="matrix(1 0 0 1 380.5605 114)" class="st0 st1 st11">3.6%</text>
			</g>
		</g>
	</g>
</g>
</svg>
