<?xml version="1.0" encoding="UTF-8"?><svg id="Layer_2" xmlns="http://www.w3.org/2000/svg" xmlns:xlink="http://www.w3.org/1999/xlink" viewBox="0 0 323.24 335.2"><defs><style>.cls-1{clip-path:url(#clippath);}.cls-2{font-family:OpenSans-Bold, 'Open Sans';font-size:18.7px;font-weight:700;}.cls-2,.cls-3{fill:#fff;}.cls-4{fill:#f9c379;}.cls-5{fill:#008340;}.cls-6{fill:#f6b768;}.cls-7{fill:#f6da80;}.cls-8,.cls-9{fill:#ffd291;}.cls-10{fill:#72b285;}.cls-11{fill:#d88888;}.cls-12{fill:#be7175;}.cls-13{fill:#e0eaf0;}.cls-14{fill:#126635;}.cls-15{fill:#133c5a;}.cls-16{fill:#16283d;}.cls-17{fill:#092542;}.cls-18{fill:#103b5b;}.cls-19{fill:#1c527c;}.cls-20{clip-path:url(#clippath-1);}.cls-21{clip-path:url(#clippath-4);}.cls-22{clip-path:url(#clippath-3);}.cls-23{clip-path:url(#clippath-2);}.cls-24{clip-path:url(#clippath-7);}.cls-25{clip-path:url(#clippath-8);}.cls-26{clip-path:url(#clippath-6);}.cls-27{clip-path:url(#clippath-5);}.cls-28{clip-path:url(#clippath-9);}.cls-29{clip-path:url(#clippath-14);}.cls-30{clip-path:url(#clippath-13);}.cls-31{clip-path:url(#clippath-12);}.cls-32{clip-path:url(#clippath-10);}.cls-33{clip-path:url(#clippath-15);}.cls-34{clip-path:url(#clippath-11);}.cls-9{opacity:.5;}</style><clipPath id="clippath"><polygon class="cls-17" points="191.66 272.77 148 272.77 104.34 272.77 60.69 272.77 17.03 272.77 17.03 226.46 17.03 180.15 17.03 133.84 17.03 87.53 60.69 87.53 104.34 87.53 148 87.53 191.66 87.53 191.66 133.84 191.66 180.15 191.66 226.46 191.66 272.77"/></clipPath><clipPath id="clippath-1"><polygon class="cls-18" points="191.66 199.29 148 199.29 104.34 199.29 60.69 199.29 17.03 199.29 17.03 171.35 17.03 143.41 17.03 115.47 17.03 87.53 60.69 87.53 104.34 87.53 148 87.53 191.66 87.53 191.66 115.47 191.66 143.41 191.66 171.35 191.66 199.29"/></clipPath><clipPath id="clippath-2"><polygon class="cls-17" points="191.66 100.51 148 100.51 104.34 100.51 60.69 100.51 17.03 100.51 17.03 99.98 17.03 99.45 17.03 98.92 17.03 98.39 60.69 98.39 104.34 98.39 148 98.39 191.66 98.39 191.66 98.92 191.66 99.45 191.66 99.98 191.66 100.51"/></clipPath><clipPath id="clippath-3"><polygon class="cls-17" points="191.66 115.05 148 115.05 104.34 115.05 60.69 115.05 17.03 115.05 17.03 114.52 17.03 113.99 17.03 113.46 17.03 112.93 60.69 112.93 104.34 112.93 148 112.93 191.66 112.93 191.66 113.46 191.66 113.99 191.66 114.52 191.66 115.05"/></clipPath><clipPath id="clippath-4"><polygon class="cls-17" points="191.66 129.58 148 129.58 104.34 129.58 60.69 129.58 17.03 129.58 17.03 129.05 17.03 128.52 17.03 127.99 17.03 127.46 60.69 127.46 104.34 127.46 148 127.46 191.66 127.46 191.66 127.99 191.66 128.52 191.66 129.05 191.66 129.58"/></clipPath><clipPath id="clippath-5"><polygon class="cls-17" points="191.66 187.73 148 187.73 104.34 187.73 60.69 187.73 17.03 187.73 17.03 187.2 17.03 186.67 17.03 186.14 17.03 185.6 60.69 185.6 104.34 185.6 148 185.6 191.66 185.6 191.66 186.14 191.66 186.67 191.66 187.2 191.66 187.73"/></clipPath><clipPath id="clippath-6"><polygon class="cls-17" points="191.66 173.19 148 173.19 104.34 173.19 60.69 173.19 17.03 173.19 17.03 172.66 17.03 172.13 17.03 171.6 17.03 171.07 60.69 171.07 104.34 171.07 148 171.07 191.66 171.07 191.66 171.6 191.66 172.13 191.66 172.66 191.66 173.19"/></clipPath><clipPath id="clippath-7"><polygon class="cls-17" points="191.66 158.66 148 158.66 104.34 158.66 60.69 158.66 17.03 158.66 17.03 158.13 17.03 157.59 17.03 157.06 17.03 156.53 60.69 156.53 104.34 156.53 148 156.53 191.66 156.53 191.66 157.06 191.66 157.59 191.66 158.13 191.66 158.66"/></clipPath><clipPath id="clippath-8"><polygon class="cls-17" points="191.66 144.12 148 144.12 104.34 144.12 60.69 144.12 17.03 144.12 17.03 143.59 17.03 143.06 17.03 142.53 17.03 142 60.69 142 104.34 142 148 142 191.66 142 191.66 142.53 191.66 143.06 191.66 143.59 191.66 144.12"/></clipPath><clipPath id="clippath-9"><path class="cls-11" d="m261.78,146.11s-.31.5-.72,1.26c-.4.76-.89,1.79-1.23,2.85-.34,1.06-.54,2.16-.37,3.06s.71,1.6,1.86,1.88,2.27.21,3.3-.11c1.03-.31,1.98-.87,2.76-1.58.78-.71,1.41-1.57,1.8-2.49.39-.92.55-1.89.41-2.82-.14-.93-.52-1.86-1.04-2.65-.53-.79-1.21-1.43-1.97-1.79-.76-.36-1.59-.43-2.42-.08-.83.35-1.65,1.13-2.39,2.47Z"/></clipPath><clipPath id="clippath-10"><path class="cls-5" d="m268.51,158.42s-.35-.16-.96-.33c-.61-.18-1.47-.38-2.49-.48s-2.19-.09-3.42.16c-1.23.25-2.52.73-3.76,1.59l-2.03,2.03-2.03,2.03-2.03,2.03-2.03,2.03.93,1.78.93,1.78.93,1.78.93,1.78.47,2.29.47,2.29.47,2.29.47,2.29h17.31l.13-2.37.13-2.37.13-2.37.13-2.37s.38-.68.79-1.77c.41-1.09.84-2.61.93-4.27.09-1.67-.15-3.5-1.1-5.22-.95-1.73-2.59-3.35-5.3-4.61Z"/></clipPath><clipPath id="clippath-11"><path class="cls-11" d="m268.51,177.67l-1.54-1.31-1.54-1.31-1.54-1.31-1.54-1.31-1.25,1.8-1.25,1.8-1.25,1.8-1.25,1.8-4.34-1-4.34-1-4.34-1-4.34-1-.26,1.03-.26,1.03-.26,1.03-.26,1.03,4.23,1.68,4.23,1.68,4.23,1.68,4.23,1.68c.24.1.49.17.74.24.25.06.5.11.76.14s.51.04.77.03c.26,0,.52-.03.77-.07h0c.34-.05.68-.14,1-.25s.64-.25.94-.42c.3-.17.58-.36.85-.58.27-.22.51-.46.74-.72l1.52-1.78,1.52-1.78,1.52-1.78,1.52-1.78Z"/></clipPath><clipPath id="clippath-12"><rect class="cls-8" x="81.07" y="172.09" width="46.42" height="52.07"/></clipPath><clipPath id="clippath-13"><rect class="cls-8" x="113.55" y="194.01" width="51.86" height="30.16"/></clipPath><clipPath id="clippath-14"><rect class="cls-8" x="122.32" y="160.58" width="29.66" height="33.43"/></clipPath><clipPath id="clippath-15"><rect class="cls-8" x="92.25" y="150.58" width="30.07" height="21.55"/></clipPath></defs><g id="Layer_1-2"><path class="cls-13" d="m189.9,28.31C165.79,6.82,135.94-5.48,99.05,2.39,42.76,14.4,17.77,67.48,18.7,121.08c.85,49.43,16.69,104.58,61.99,130.47,28.37,16.22,62.7,20.41,94.95,15.13,38.6-6.32,73.29-28.33,82.34-68.42,13.94-61.8-23.09-129.84-68.08-169.96Z"/><path class="cls-19" d="m107.01,32.12c-1.41-.58-2.99-.58-4.4,0l-24,9.79-26.2,10.69-26.2,10.69-22.58,9.21c-2.19.89-3.62,3.03-3.62,5.39v195.36h209.62V77.88c0-2.37-1.43-4.5-3.62-5.39l-22.58-9.21-26.2-10.69-26.2-10.69-24-9.79Z"/><polygon class="cls-17" points="191.66 272.77 148 272.77 104.34 272.77 60.69 272.77 17.03 272.77 17.03 226.46 17.03 180.15 17.03 133.84 17.03 87.53 60.69 87.53 104.34 87.53 148 87.53 191.66 87.53 191.66 133.84 191.66 180.15 191.66 226.46 191.66 272.77"/><g class="cls-1"><polygon class="cls-17" points="12.77 272.77 12.77 243.62 12.77 214.48 12.77 185.34 12.77 156.19 30.35 156.19 47.93 156.19 65.51 156.19 83.09 156.19 83.09 164.02 83.09 171.85 83.09 179.68 83.09 187.51 94.25 187.51 105.42 187.51 116.58 187.51 127.74 187.51 127.74 198.35 127.74 209.2 127.74 220.05 127.74 230.9 144.16 230.9 160.58 230.9 176.99 230.9 193.41 230.9 193.41 241.37 193.41 251.83 193.41 262.3 193.41 272.77 148.25 272.77 103.09 272.77 57.93 272.77 12.77 272.77"/></g><polygon class="cls-18" points="191.66 199.29 148 199.29 104.34 199.29 60.69 199.29 17.03 199.29 17.03 171.35 17.03 143.41 17.03 115.47 17.03 87.53 60.69 87.53 104.34 87.53 148 87.53 191.66 87.53 191.66 115.47 191.66 143.41 191.66 171.35 191.66 199.29"/><g class="cls-20"><polygon class="cls-18" points="12.77 199.29 12.77 181.71 12.77 164.13 12.77 146.54 12.77 128.96 30.35 128.96 47.93 128.96 65.51 128.96 83.09 128.96 83.09 133.68 83.09 138.4 83.09 143.13 83.09 147.85 94.25 147.85 105.42 147.85 116.58 147.85 127.74 147.85 127.74 154.4 127.74 160.94 127.74 167.49 127.74 174.03 144.16 174.03 160.58 174.03 176.99 174.03 193.41 174.03 193.41 180.35 193.41 186.66 193.41 192.98 193.41 199.29 148.25 199.29 103.09 199.29 57.93 199.29 12.77 199.29"/></g><polygon class="cls-17" points="191.66 100.51 148 100.51 104.34 100.51 60.69 100.51 17.03 100.51 17.03 99.98 17.03 99.45 17.03 98.92 17.03 98.39 60.69 98.39 104.34 98.39 148 98.39 191.66 98.39 191.66 98.92 191.66 99.45 191.66 99.98 191.66 100.51"/><g class="cls-23"><polygon class="cls-17" points="12.77 100.51 12.77 100.18 12.77 99.85 12.77 99.51 12.77 99.18 30.35 99.18 47.93 99.18 65.51 99.18 83.09 99.18 83.09 99.27 83.09 99.36 83.09 99.45 83.09 99.54 94.25 99.54 105.42 99.54 116.58 99.54 127.74 99.54 127.74 99.66 127.74 99.79 127.74 99.91 127.74 100.03 144.16 100.03 160.58 100.03 176.99 100.03 193.41 100.03 193.41 100.15 193.41 100.27 193.41 100.39 193.41 100.51 148.25 100.51 103.09 100.51 57.93 100.51 12.77 100.51"/></g><polygon class="cls-17" points="191.66 115.05 148 115.05 104.34 115.05 60.69 115.05 17.03 115.05 17.03 114.52 17.03 113.99 17.03 113.46 17.03 112.93 60.69 112.93 104.34 112.93 148 112.93 191.66 112.93 191.66 113.46 191.66 113.99 191.66 114.52 191.66 115.05"/><g class="cls-22"><polygon class="cls-17" points="12.77 115.05 12.77 114.72 12.77 114.38 12.77 114.05 12.77 113.71 30.35 113.71 47.93 113.71 65.51 113.71 83.09 113.71 83.09 113.8 83.09 113.89 83.09 113.98 83.09 114.07 94.25 114.07 105.42 114.07 116.58 114.07 127.74 114.07 127.74 114.2 127.74 114.32 127.74 114.45 127.74 114.57 144.16 114.57 160.58 114.57 176.99 114.57 193.41 114.57 193.41 114.69 193.41 114.81 193.41 114.93 193.41 115.05 148.25 115.05 103.09 115.05 57.93 115.05 12.77 115.05"/></g><polygon class="cls-17" points="191.66 129.58 148 129.58 104.34 129.58 60.69 129.58 17.03 129.58 17.03 129.05 17.03 128.52 17.03 127.99 17.03 127.46 60.69 127.46 104.34 127.46 148 127.46 191.66 127.46 191.66 127.99 191.66 128.52 191.66 129.05 191.66 129.58"/><g class="cls-21"><polygon class="cls-17" points="12.77 129.58 12.77 129.25 12.77 128.92 12.77 128.58 12.77 128.25 30.35 128.25 47.93 128.25 65.51 128.25 83.09 128.25 83.09 128.34 83.09 128.43 83.09 128.52 83.09 128.61 94.25 128.61 105.42 128.61 116.58 128.61 127.74 128.61 127.74 128.73 127.74 128.86 127.74 128.98 127.74 129.11 144.16 129.11 160.58 129.11 176.99 129.11 193.41 129.11 193.41 129.23 193.41 129.35 193.41 129.46 193.41 129.58 148.25 129.58 103.09 129.58 57.93 129.58 12.77 129.58"/></g><polygon class="cls-17" points="191.66 187.73 148 187.73 104.34 187.73 60.69 187.73 17.03 187.73 17.03 187.2 17.03 186.67 17.03 186.14 17.03 185.6 60.69 185.6 104.34 185.6 148 185.6 191.66 185.6 191.66 186.14 191.66 186.67 191.66 187.2 191.66 187.73"/><g class="cls-27"><polygon class="cls-17" points="12.77 187.73 12.77 187.39 12.77 187.06 12.77 186.73 12.77 186.39 30.35 186.39 47.93 186.39 65.51 186.39 83.09 186.39 83.09 186.48 83.09 186.57 83.09 186.66 83.09 186.75 94.25 186.75 105.42 186.75 116.58 186.75 127.74 186.75 127.74 186.87 127.74 187 127.74 187.12 127.74 187.25 144.16 187.25 160.58 187.25 176.99 187.25 193.41 187.25 193.41 187.37 193.41 187.49 193.41 187.61 193.41 187.73 148.25 187.73 103.09 187.73 57.93 187.73 12.77 187.73"/></g><polygon class="cls-17" points="191.66 173.19 148 173.19 104.34 173.19 60.69 173.19 17.03 173.19 17.03 172.66 17.03 172.13 17.03 171.6 17.03 171.07 60.69 171.07 104.34 171.07 148 171.07 191.66 171.07 191.66 171.6 191.66 172.13 191.66 172.66 191.66 173.19"/><g class="cls-26"><polygon class="cls-17" points="12.77 173.19 12.77 172.86 12.77 172.52 12.77 172.19 12.77 171.86 30.35 171.86 47.93 171.86 65.51 171.86 83.09 171.86 83.09 171.95 83.09 172.04 83.09 172.12 83.09 172.21 94.25 172.21 105.42 172.21 116.58 172.21 127.74 172.21 127.74 172.34 127.74 172.46 127.74 172.59 127.74 172.71 144.16 172.71 160.58 172.71 176.99 172.71 193.41 172.71 193.41 172.83 193.41 172.95 193.41 173.07 193.41 173.19 148.25 173.19 103.09 173.19 57.93 173.19 12.77 173.19"/></g><polygon class="cls-17" points="191.66 158.66 148 158.66 104.34 158.66 60.69 158.66 17.03 158.66 17.03 158.13 17.03 157.59 17.03 157.06 17.03 156.53 60.69 156.53 104.34 156.53 148 156.53 191.66 156.53 191.66 157.06 191.66 157.59 191.66 158.13 191.66 158.66"/><g class="cls-24"><polygon class="cls-17" points="12.77 158.66 12.77 158.32 12.77 157.99 12.77 157.65 12.77 157.32 30.35 157.32 47.93 157.32 65.51 157.32 83.09 157.32 83.09 157.41 83.09 157.5 83.09 157.59 83.09 157.68 94.25 157.68 105.42 157.68 116.58 157.68 127.74 157.68 127.74 157.8 127.74 157.93 127.74 158.05 127.74 158.18 144.16 158.18 160.58 158.18 176.99 158.18 193.41 158.18 193.41 158.3 193.41 158.42 193.41 158.54 193.41 158.66 148.25 158.66 103.09 158.66 57.93 158.66 12.77 158.66"/></g><polygon class="cls-17" points="191.66 144.12 148 144.12 104.34 144.12 60.69 144.12 17.03 144.12 17.03 143.59 17.03 143.06 17.03 142.53 17.03 142 60.69 142 104.34 142 148 142 191.66 142 191.66 142.53 191.66 143.06 191.66 143.59 191.66 144.12"/><g class="cls-25"><polygon class="cls-17" points="12.77 144.12 12.77 143.79 12.77 143.45 12.77 143.12 12.77 142.78 30.35 142.78 47.93 142.78 65.51 142.78 83.09 142.78 83.09 142.87 83.09 142.96 83.09 143.05 83.09 143.14 94.25 143.14 105.42 143.14 116.58 143.14 127.74 143.14 127.74 143.27 127.74 143.39 127.74 143.52 127.74 143.64 144.16 143.64 160.58 143.64 176.99 143.64 193.41 143.64 193.41 143.76 193.41 143.88 193.41 144 193.41 144.12 148.25 144.12 103.09 144.12 57.93 144.12 12.77 144.12"/></g><rect class="cls-4" x="27.49" y="238.69" width="26.17" height="28.4"/><polygon class="cls-8" points="50.77 238.69 47.95 238.69 39.13 250.93 30.32 238.69 27.49 238.69 37.72 252.89 27.49 267.09 30.32 267.09 39.13 254.85 47.95 267.09 50.77 267.09 40.54 252.89 50.77 238.69"/><rect class="cls-8" x="24.14" y="238.69" width="3.35" height="28.4"/><rect class="cls-8" x="50.84" y="238.69" width="3.35" height="28.4"/><rect class="cls-8" x="22.92" y="234.89" width="32.86" height="3.8"/><rect class="cls-4" x="55.78" y="234.89" width="20.24" height="3.8"/><rect class="cls-4" x="55.78" y="267.09" width="20.18" height="3.8"/><rect class="cls-8" x="22.92" y="267.09" width="32.86" height="3.8"/><rect class="cls-8" x="54.19" y="238.69" width="18.93" height="28.4"/><rect class="cls-9" x="24.14" y="238.69" width="30.05" height="1.59"/><rect class="cls-6" x="40.78" y="252.1" width="28.41" height="1.59" transform="translate(307.88 197.9) rotate(90)"/><rect class="cls-9" x="24.11" y="265.51" width="30.08" height="1.59"/><rect class="cls-4" x="58.67" y="250.99" width="28.41" height="3.8" transform="translate(325.76 180.02) rotate(90)"/><polygon class="cls-4" points="72.19 238.69 70.01 238.69 63.19 250.93 56.37 238.69 54.19 238.69 62.1 252.89 54.19 267.09 56.37 267.09 63.19 254.85 70.01 267.09 72.19 267.09 64.28 252.89 72.19 238.69"/><rect class="cls-6" x="54.19" y="238.69" width="20.58" height="1.59" transform="translate(128.97 478.96) rotate(180)"/><rect class="cls-6" x="54.19" y="265.51" width="20.58" height="1.59" transform="translate(128.97 532.6) rotate(180)"/><rect class="cls-4" x="66.19" y="238.69" width="26.17" height="28.4"/><polygon class="cls-8" points="89.46 238.69 86.64 238.69 77.83 250.93 69.01 238.69 66.19 238.69 76.42 252.89 66.19 267.09 69.01 267.09 77.83 254.85 86.64 267.09 89.46 267.09 79.24 252.89 89.46 238.69"/><rect class="cls-8" x="62.84" y="238.69" width="3.35" height="28.4"/><rect class="cls-8" x="89.54" y="238.69" width="3.35" height="28.4"/><rect class="cls-8" x="61.61" y="234.89" width="32.86" height="3.8"/><rect class="cls-4" x="94.48" y="234.89" width="20.24" height="3.8"/><rect class="cls-4" x="94.48" y="267.09" width="20.18" height="3.8"/><rect class="cls-8" x="61.61" y="267.09" width="32.86" height="3.8"/><rect class="cls-8" x="92.89" y="238.69" width="18.93" height="28.4"/><rect class="cls-9" x="62.84" y="238.69" width="30.05" height="1.59"/><rect class="cls-6" x="79.48" y="252.1" width="28.41" height="1.59" transform="translate(346.57 159.21) rotate(90)"/><rect class="cls-9" x="62.8" y="265.51" width="30.08" height="1.59"/><rect class="cls-4" x="97.36" y="250.99" width="28.41" height="3.8" transform="translate(364.46 141.32) rotate(90)"/><polygon class="cls-4" points="110.89 238.69 108.7 238.69 101.89 250.93 95.07 238.69 92.89 238.69 100.8 252.89 92.89 267.09 95.07 267.09 101.89 254.85 108.7 267.09 110.89 267.09 102.98 252.89 110.89 238.69"/><rect class="cls-6" x="92.89" y="238.69" width="20.58" height="1.59" transform="translate(206.36 478.96) rotate(180)"/><rect class="cls-6" x="92.89" y="265.51" width="20.58" height="1.59" transform="translate(206.36 532.6) rotate(180)"/><rect class="cls-4" x="106.46" y="238.69" width="26.17" height="28.4"/><polygon class="cls-8" points="129.74 238.69 126.92 238.69 118.1 250.93 109.28 238.69 106.46 238.69 116.69 252.89 106.46 267.09 109.28 267.09 118.1 254.85 126.92 267.09 129.74 267.09 119.51 252.89 129.74 238.69"/><rect class="cls-8" x="103.11" y="238.69" width="3.35" height="28.4"/><rect class="cls-8" x="129.81" y="238.69" width="3.35" height="28.4"/><rect class="cls-8" x="101.89" y="234.89" width="32.86" height="3.8"/><rect class="cls-4" x="134.75" y="234.89" width="20.24" height="3.8"/><rect class="cls-4" x="134.75" y="267.09" width="20.18" height="3.8"/><rect class="cls-8" x="101.89" y="267.09" width="32.86" height="3.8"/><rect class="cls-8" x="133.16" y="238.69" width="18.93" height="28.4"/><rect class="cls-9" x="103.11" y="238.69" width="30.05" height="1.59"/><rect class="cls-6" x="119.75" y="252.1" width="28.41" height="1.59" transform="translate(386.85 118.93) rotate(90)"/><rect class="cls-9" x="103.08" y="265.51" width="30.08" height="1.59"/><rect class="cls-4" x="137.64" y="250.99" width="28.41" height="3.8" transform="translate(404.73 101.05) rotate(90)"/><polygon class="cls-4" points="151.16 238.69 148.98 238.69 142.16 250.93 135.34 238.69 133.16 238.69 141.07 252.89 133.16 267.09 135.34 267.09 142.16 254.85 148.98 267.09 151.16 267.09 143.25 252.89 151.16 238.69"/><rect class="cls-6" x="133.16" y="238.69" width="20.58" height="1.59" transform="translate(286.9 478.96) rotate(180)"/><rect class="cls-6" x="133.16" y="265.51" width="20.58" height="1.59" transform="translate(286.9 532.6) rotate(180)"/><rect class="cls-4" x="144.84" y="238.69" width="26.17" height="28.4"/><polygon class="cls-8" points="168.12 238.69 165.3 238.69 156.48 250.93 147.66 238.69 144.84 238.69 155.07 252.89 144.84 267.09 147.66 267.09 156.48 254.85 165.3 267.09 168.12 267.09 157.89 252.89 168.12 238.69"/><rect class="cls-8" x="141.49" y="238.69" width="3.35" height="28.4"/><rect class="cls-8" x="168.19" y="238.69" width="3.35" height="28.4"/><rect class="cls-8" x="140.27" y="234.89" width="32.86" height="3.8"/><rect class="cls-4" x="173.13" y="234.89" width="20.24" height="3.8"/><rect class="cls-4" x="173.13" y="267.09" width="20.18" height="3.8"/><rect class="cls-8" x="140.27" y="267.09" width="32.86" height="3.8"/><rect class="cls-8" x="171.54" y="238.69" width="18.93" height="28.4"/><rect class="cls-9" x="141.49" y="238.69" width="30.05" height="1.59"/><rect class="cls-6" x="158.13" y="252.1" width="28.41" height="1.59" transform="translate(425.23 80.55) rotate(90)"/><rect class="cls-9" x="141.46" y="265.51" width="30.08" height="1.59"/><rect class="cls-4" x="176.02" y="250.99" width="28.41" height="3.8" transform="translate(443.11 62.67) rotate(90)"/><polygon class="cls-4" points="189.54 238.69 187.36 238.69 180.54 250.93 173.72 238.69 171.54 238.69 179.45 252.89 171.54 267.09 173.72 267.09 180.54 254.85 187.36 267.09 189.54 267.09 181.63 252.89 189.54 238.69"/><rect class="cls-6" x="171.54" y="238.69" width="20.58" height="1.59" transform="translate(363.66 478.96) rotate(180)"/><rect class="cls-6" x="171.54" y="265.51" width="20.58" height="1.59" transform="translate(363.66 532.6) rotate(180)"/><rect class="cls-4" x="27.07" y="202.52" width="26.17" height="28.4"/><polygon class="cls-8" points="50.35 202.52 47.53 202.52 38.71 214.77 29.89 202.52 27.07 202.52 37.3 216.73 27.07 230.93 29.89 230.93 38.71 218.69 47.53 230.93 50.35 230.93 40.12 216.73 50.35 202.52"/><rect class="cls-8" x="23.72" y="202.52" width="3.35" height="28.4"/><rect class="cls-8" x="50.42" y="202.52" width="3.35" height="28.4"/><rect class="cls-8" x="22.49" y="198.72" width="32.86" height="3.8"/><rect class="cls-4" x="55.36" y="198.72" width="20.24" height="3.8"/><rect class="cls-4" x="55.36" y="230.93" width="20.18" height="3.8"/><rect class="cls-8" x="22.49" y="230.93" width="32.86" height="3.8"/><rect class="cls-8" x="53.77" y="202.52" width="18.93" height="28.4"/><rect class="cls-9" x="23.72" y="202.52" width="30.05" height="1.59"/><rect class="cls-6" x="40.36" y="215.93" width="28.41" height="1.59" transform="translate(271.29 162.16) rotate(90)"/><rect class="cls-9" x="23.69" y="229.34" width="30.08" height="1.59"/><rect class="cls-4" x="58.25" y="214.83" width="28.41" height="3.8" transform="translate(289.18 144.28) rotate(90)"/><polygon class="cls-4" points="71.77 202.52 69.59 202.52 62.77 214.77 55.95 202.52 53.77 202.52 61.68 216.73 53.77 230.93 55.95 230.93 62.77 218.69 69.59 230.93 71.77 230.93 63.86 216.73 71.77 202.52"/><rect class="cls-6" x="53.77" y="202.52" width="20.58" height="1.59" transform="translate(128.12 406.64) rotate(180)"/><rect class="cls-6" x="53.77" y="229.34" width="20.58" height="1.59" transform="translate(128.12 460.27) rotate(180)"/><path class="cls-17" d="m241.81,182.72c-.06,0-.13,0-.19,0-.06,0-.13,0-.19,0-.07,0-.13,0-.2,0-.07,0-.13,0-.2,0-.56-.03-1.17-.08-1.8-.15-.63-.08-1.3-.17-1.99-.3-.69-.12-1.4-.27-2.12-.43-.72-.17-1.46-.35-2.2-.56-.3-.08-1.18-.34-2.32-.72-1.14-.38-2.54-.89-3.87-1.5s-2.6-1.3-3.48-2.05c-.88-.75-1.36-1.55-1.14-2.36.23-.81,1.06-1.25,2.19-1.43,1.14-.19,2.58-.13,4.03.05,1.45.17,2.91.46,4.09.72,1.17.26,2.06.5,2.36.59.74.21,1.47.43,2.18.66s1.39.47,2.04.73c.65.25,1.27.51,1.85.77.58.26,1.12.53,1.62.8.61.33,1.12.65,1.55.97.43.32.78.62,1.03.93s.43.6.52.9.09.59.01.87h0c-.07.26-.2.48-.4.68-.19.19-.44.35-.76.48-.31.13-.69.22-1.13.29-.44.06-.94.1-1.5.1Zm-17.98-7.6c.11.2.39.48.86.81s1.1.71,1.9,1.12c.8.41,1.78.84,2.91,1.27,1.13.43,2.43.86,3.88,1.27,1.45.4,2.78.71,3.98.92,1.19.22,2.25.35,3.15.42.9.07,1.64.07,2.21.03.57-.04.96-.13,1.15-.25-.11-.2-.39-.48-.86-.81-.46-.33-1.1-.71-1.9-1.12-.8-.41-1.78-.84-2.91-1.27s-2.43-.86-3.88-1.27c-1.45-.4-2.78-.71-3.98-.92s-2.25-.35-3.15-.42c-.9-.07-1.64-.07-2.21-.03-.57.04-.96.13-1.15.25Z"/><path class="cls-12" d="m231.6,175.56l-.98.14-.98.14-.98.14-.98.14-.77-.07-.77-.07-.77-.07-.77-.07s.12.09.36.25c.24.16.59.38,1.06.64.47.26,1.05.56,1.73.87.69.31,1.48.63,2.38.94h.71l.2-.74.2-.74.2-.74.2-.74Z"/><path class="cls-12" d="m222.76,176.53s.15-.01.4-.02.58-.02.96,0c.37.01.78.04,1.17.1.39.06.75.15,1.03.3.28.14.57.33.85.54.28.21.54.43.77.64.23.21.42.4.56.54s.22.22.22.22l-.48.06-.48.06-.48.06-.48.06s-.15,0-.39-.01c-.24-.01-.56-.04-.91-.09-.35-.05-.72-.13-1.05-.25-.33-.12-.63-.27-.83-.48-.2-.21-.35-.42-.47-.62-.12-.2-.2-.39-.26-.55s-.1-.3-.12-.4-.03-.15-.03-.15Z"/><path class="cls-17" d="m287.36,231.61c-.1,0-.19,0-.29,0-.09,0-.19,0-.28,0-.09,0-.19,0-.28.01-.09,0-.19,0-.28.01-.09,0-.19,0-.28-.01s-.19,0-.28-.01c-.09,0-.19,0-.28,0-.09,0-.19,0-.29,0-2.84,0-5.55.58-8.02,1.62-2.46,1.04-4.68,2.55-6.55,4.42-1.86,1.86-3.37,4.08-4.42,6.55s-1.62,5.18-1.62,8.02.58,5.55,1.62,8.02c1.04,2.47,2.55,4.68,4.42,6.55,1.86,1.86,4.08,3.37,6.55,4.42,2.47,1.04,5.18,1.62,8.02,1.62.1,0,.19,0,.29,0,.09,0,.19,0,.28,0,.09,0,.19,0,.28-.01.09,0,.19,0,.28-.01.09,0,.19,0,.28.01.09,0,.19,0,.28.01.09,0,.19,0,.28,0,.09,0,.19,0,.29,0,2.84,0,5.55-.58,8.02-1.62,2.46-1.04,4.68-2.55,6.55-4.42,1.86-1.86,3.37-4.08,4.42-6.55,1.04-2.46,1.62-5.18,1.62-8.02s-.58-5.55-1.62-8.02c-1.04-2.46-2.55-4.68-4.42-6.55-1.86-1.86-4.08-3.37-6.55-4.42-2.47-1.04-5.18-1.62-8.02-1.62Z"/><path class="cls-17" d="m198.98,232.7c-.1,0-.19,0-.29,0-.09,0-.19,0-.28,0-.09,0-.19,0-.28.01-.09,0-.19,0-.28.01-.09,0-.19,0-.28-.01s-.19,0-.28-.01c-.09,0-.19,0-.28,0-.09,0-.19,0-.29,0-2.84,0-5.55.58-8.02,1.62-2.46,1.04-4.68,2.55-6.55,4.42-1.86,1.86-3.37,4.08-4.42,6.55-1.04,2.46-1.62,5.18-1.62,8.02s.58,5.55,1.62,8.02c1.04,2.46,2.55,4.68,4.42,6.55,1.86,1.86,4.08,3.37,6.55,4.42,2.47,1.04,5.18,1.62,8.02,1.62.1,0,.19,0,.29,0,.09,0,.19,0,.28,0,.09,0,.19,0,.28-.01s.19,0,.28-.01c.09,0,.19,0,.28.01.09,0,.19,0,.28.01.09,0,.19,0,.28,0,.09,0,.19,0,.29,0,2.84,0,5.55-.58,8.02-1.62,2.46-1.04,4.68-2.55,6.55-4.42,1.86-1.86,3.37-4.08,4.42-6.55,1.04-2.46,1.62-5.18,1.62-8.02s-.58-5.55-1.62-8.02c-1.04-2.46-2.55-4.68-4.42-6.55-1.86-1.86-4.08-3.37-6.55-4.42-2.47-1.04-5.18-1.62-8.02-1.62Z"/><polygon class="cls-19" points="207.97 144.02 196.48 144.02 184.98 144.02 173.48 144.02 161.99 144.02 161.99 142.73 161.99 141.45 161.99 140.16 161.99 138.87 173.48 138.87 184.98 138.87 196.48 138.87 207.97 138.87 207.97 140.16 207.97 141.45 207.97 142.73 207.97 144.02"/><polygon class="cls-19" points="200.84 262.33 197.44 262.33 194.04 262.33 190.64 262.33 187.23 262.33 187.23 232.75 187.23 203.17 187.23 173.6 187.23 144.02 190.64 144.02 194.04 144.02 197.44 144.02 200.84 144.02 200.84 173.6 200.84 203.17 200.84 232.75 200.84 262.33"/><polygon class="cls-19" points="176.64 262.33 175.37 262.33 174.1 262.33 172.82 262.33 171.55 262.33 171.55 232.75 171.55 203.17 171.55 173.6 171.55 144.02 172.82 144.02 174.1 144.02 175.37 144.02 176.64 144.02 176.64 173.6 176.64 203.17 176.64 232.75 176.64 262.33"/><path class="cls-19" d="m303.97,204.37v25.89h-65.89v31.91h76.15c1.24,0,2.43-.25,3.51-.71,1.08-.46,2.05-1.12,2.86-1.93s1.48-1.79,1.93-2.86c.46-1.08.71-2.26.71-3.51v-40.5c0-1.14-.23-2.24-.65-3.23-.42-.99-1.03-1.88-1.78-2.64s-1.64-1.36-2.64-1.78c-.99-.42-2.08-.65-3.23-.65h-10.98Z"/><path class="cls-17" d="m320.96,253.52c0,2.84-.58,5.55-1.62,8.02-1.04,2.46-2.55,4.68-4.42,6.55-1.86,1.86-4.08,3.37-6.55,4.42-2.46,1.04-5.18,1.62-8.02,1.62s-5.55-.58-8.02-1.62c-2.46-1.04-4.68-2.55-6.55-4.42-1.86-1.86-3.37-4.08-4.42-6.55-1.04-2.47-1.62-5.18-1.62-8.02s.58-5.55,1.62-8.02c1.04-2.46,2.55-4.68,4.42-6.55s4.08-3.37,6.55-4.42c2.46-1.04,5.18-1.62,8.02-1.62s5.55.58,8.02,1.62c2.47,1.04,4.68,2.55,6.55,4.42,1.86,1.86,3.37,4.08,4.42,6.55,1.04,2.47,1.62,5.18,1.62,8.02Z"/><path class="cls-18" d="m323.24,253.52c0,2.84-.58,5.55-1.62,8.02-1.04,2.46-2.55,4.68-4.42,6.55-1.86,1.86-4.08,3.37-6.55,4.42-2.46,1.04-5.18,1.62-8.02,1.62s-5.55-.58-8.02-1.62c-2.46-1.04-4.68-2.55-6.55-4.42-1.86-1.86-3.37-4.08-4.42-6.55-1.04-2.47-1.62-5.18-1.62-8.02s.58-5.55,1.62-8.02c1.04-2.46,2.55-4.68,4.42-6.55,1.86-1.86,4.08-3.37,6.55-4.42,2.46-1.04,5.18-1.62,8.02-1.62s5.55.58,8.02,1.62c2.47,1.04,4.68,2.55,6.55,4.42,1.86,1.86,3.37,4.08,4.42,6.55,1.04,2.47,1.62,5.18,1.62,8.02Z"/><path class="cls-17" d="m302.63,241.9c-.07,0-.14,0-.21,0-.07,0-.14,0-.21,0-.07,0-.14,0-.21.01-.07,0-.14,0-.21.01,1.51.11,2.93.5,4.23,1.13,1.29.63,2.45,1.49,3.43,2.52.97,1.04,1.75,2.25,2.3,3.6s.84,2.81.84,4.34-.3,3-.84,4.34-1.32,2.56-2.3,3.6c-.97,1.04-2.13,1.9-3.43,2.52-1.29.63-2.72,1.02-4.23,1.13.07,0,.14,0,.21.01.07,0,.14,0,.21.01.07,0,.14,0,.21,0s.14,0,.21,0c1.6,0,3.13-.33,4.52-.91,1.39-.59,2.64-1.44,3.69-2.49,1.05-1.05,1.9-2.3,2.49-3.69.59-1.39.91-2.92.91-4.52s-.33-3.13-.91-4.52-1.44-2.64-2.49-3.69c-1.05-1.05-2.3-1.9-3.69-2.49-1.39-.59-2.92-.91-4.52-.91Z"/><path class="cls-13" d="m312.59,253.52c0-1.53-.3-3-.84-4.34s-1.32-2.56-2.3-3.6c-.97-1.04-2.13-1.9-3.43-2.52-1.29-.63-2.72-1.02-4.23-1.13-1.51.11-2.93.5-4.23,1.13-1.29.63-2.45,1.49-3.43,2.52-.97,1.04-1.75,2.25-2.3,3.6-.54,1.34-.84,2.81-.84,4.34s.3,3,.84,4.34c.54,1.34,1.32,2.56,2.3,3.6.97,1.04,2.13,1.9,3.43,2.52,1.29.63,2.72,1.02,4.23,1.13,1.51-.11,2.93-.5,4.23-1.13,1.29-.63,2.45-1.49,3.43-2.52.97-1.04,1.75-2.25,2.3-3.6s.84-2.81.84-4.34Z"/><path class="cls-17" d="m293.49,131.56h-73.04c-.5,0-.98.08-1.44.23s-.88.37-1.27.65c-.38.28-.72.62-1.01,1.01-.28.39-.51.82-.66,1.3l-3.84,11.91-3.84,11.91-3.84,11.91-3.84,11.91v38.4h18.69l4.67,2.37,4.67,2.37,4.67,2.37,4.67,2.37h65.89v-82.89c0-.6-.04-1.2-.12-1.79-.08-.59-.19-1.18-.35-1.75s-.35-1.14-.57-1.69c-.23-.55-.49-1.09-.79-1.61l-.87-1.5-.87-1.5-.87-1.5-.87-1.5c-.27-.46-.59-.88-.96-1.25-.37-.37-.78-.68-1.23-.94-.45-.26-.93-.46-1.43-.59-.5-.14-1.03-.21-1.56-.21Zm-85.52,54.76l3.8-12.3,3.8-12.3,3.8-12.3,3.8-12.3c.06-.2.15-.38.27-.54.12-.16.26-.3.42-.42.16-.12.34-.21.53-.27s.39-.1.6-.1h16.26c.13,0,.25.03.35.08.11.05.2.13.27.22.07.09.12.2.15.32.02.12.02.24-.01.36l-3.32,12.39-3.32,12.39-3.32,12.39-3.32,12.39h-20.74Zm59.69,20.58h-35.48l4.29-17.19,4.29-17.19,4.29-17.19,4.29-17.19c.09-.34.23-.66.41-.95.19-.28.42-.53.68-.74.27-.21.56-.37.89-.48.32-.11.67-.17,1.02-.17h5.86c.23,0,.47.03.69.08.22.05.44.13.65.23.21.1.4.23.58.37.18.15.34.31.48.5l1.36,1.76,1.36,1.76,1.36,1.76,1.36,1.76c.26.34.5.7.7,1.08.2.38.37.77.51,1.17s.24.82.31,1.24c.07.42.11.85.11,1.28v58.11Zm27.12,0h-20.5v-58.99c0-.39-.03-.78-.09-1.17-.06-.39-.14-.77-.26-1.14s-.26-.73-.43-1.09c-.17-.35-.36-.69-.59-1.02l-1.32-1.93-1.32-1.93-1.32-1.93-1.32-1.93h19.76c.25,0,.5.03.73.09.24.06.47.15.68.26.21.11.42.25.6.41.18.16.35.35.49.55l.69,1,.69,1,.69,1,.69,1c.34.49.64,1,.9,1.53s.48,1.08.65,1.64c.18.56.31,1.14.4,1.72.09.58.13,1.18.13,1.77v59.14Z"/><polygon class="cls-19" points="188.17 223.82 187.29 223.82 186.4 223.82 185.51 223.82 184.62 223.82 184.62 210.74 184.62 197.67 184.62 184.59 184.62 171.52 185.51 171.52 186.4 171.52 187.29 171.52 188.17 171.52 188.17 184.59 188.17 197.67 188.17 210.74 188.17 223.82"/><polygon class="cls-19" points="184.62 223.82 183.5 223.82 182.37 223.82 181.25 223.82 180.13 223.82 180.13 210.74 180.13 197.67 180.13 184.59 180.13 171.52 181.25 171.52 182.37 171.52 183.5 171.52 184.62 171.52 184.62 184.59 184.62 197.67 184.62 210.74 184.62 223.82"/><polygon class="cls-18" points="228.72 186.32 226.38 194.94 224.05 203.56 221.72 212.17 219.39 220.79 214.72 220.79 210.05 220.79 205.37 220.79 200.7 220.79 200.7 212.17 200.7 203.56 200.7 194.94 200.7 186.32 207.71 186.32 214.71 186.32 221.71 186.32 228.72 186.32"/><polygon class="cls-4" points="284.06 180.48 280.8 180.59 277.55 180.69 274.3 180.8 271.04 180.91 269.71 185.6 268.39 190.28 267.06 194.97 265.74 199.66 259.52 200.17 253.31 200.68 247.09 201.19 240.88 201.69 240.88 203 240.88 204.3 240.88 205.6 240.88 206.9 251.67 206.9 262.47 206.9 273.26 206.9 284.06 206.9 284.97 200.43 285.88 193.96 286.79 187.49 287.7 181.01 286.79 180.88 285.88 180.75 284.97 180.61 284.06 180.48"/><polygon class="cls-7" points="284.06 180.48 282.69 185.51 281.33 190.55 279.96 195.59 278.59 200.62 272.54 200.97 266.49 201.32 260.43 201.67 254.38 202.02 254.38 203.24 254.38 204.46 254.38 205.68 254.38 206.9 261.8 206.9 269.22 206.9 276.64 206.9 284.06 206.9 284.97 200.43 285.88 193.96 286.79 187.49 287.7 181.01 286.79 180.88 285.88 180.75 284.97 180.61 284.06 180.48"/><polygon class="cls-17" points="323.24 230.26 319.7 230.26 316.17 230.26 312.64 230.26 309.1 230.26 309.1 226.84 309.1 223.42 309.1 219.99 309.1 216.57 312.64 216.57 316.17 216.57 319.7 216.57 323.24 216.57 323.24 219.99 323.24 223.42 323.24 226.84 323.24 230.26"/><polygon class="cls-19" points="232.18 206.9 230.92 211.35 229.66 215.81 228.4 220.26 227.14 224.72 229.87 226.1 232.61 227.49 235.34 228.88 238.07 230.26 242.15 230.26 246.23 230.26 250.3 230.26 254.38 230.26 254.38 224.42 254.38 218.58 254.38 212.74 254.38 206.9 248.83 206.9 243.28 206.9 237.73 206.9 232.18 206.9"/><polygon class="cls-16" points="252.2 190.73 247.85 192.13 243.51 193.53 239.16 194.93 234.82 196.34 232.9 203.43 230.98 210.53 229.06 217.62 227.14 224.72 229.87 218.65 232.61 212.58 235.34 206.51 238.07 200.44 241.56 198.38 245.05 196.31 248.54 194.25 252.03 192.19 252.07 191.82 252.12 191.46 252.16 191.09 252.2 190.73"/><path class="cls-8" d="m268.51,177.67l.61.5.61.5.61.5.61.5s.12-.21.32-.57.45-.84.71-1.39c.27-.55.54-1.16.76-1.76.22-.6.4-1.18.46-1.66,0,0-.04.36-.1.94s-.16,1.37-.26,2.25c-.1.88-.22,1.83-.33,2.72s-.22,1.73-.32,2.36c-.1.68-.85,1.19-1.91,1.56s-2.44.61-3.81.76c-1.37.15-2.72.22-3.73.25-1.01.03-1.68.02-1.68.02,0,0,.2-.1.58-.34.37-.24.91-.62,1.58-1.19.67-.57,1.47-1.32,2.37-2.29.9-.98,1.89-2.18,2.94-3.65Z"/><path class="cls-8" d="m261.88,173.42h0s0,0,0,0h0c-.31.53-.75,1.18-1.24,1.86-.48.68-1.01,1.39-1.5,2.03-.49.64-.94,1.22-1.26,1.63-.33.42-.53.67-.53.67l.76-1.43.76-1.43.76-1.43.76-1.43c.13-.24.26-.48.4-.71s.28-.46.42-.69c.15-.23.3-.45.45-.67.16-.22.32-.44.48-.65l1.03-1.34,1.03-1.34,1.03-1.34,1.03-1.34-1.05,1.84-1.05,1.84-1.05,1.84-1.05,1.84s-.02.04-.03.06c-.01.02-.02.04-.03.06-.01.02-.02.04-.03.06s-.02.04-.04.06h0s0,0,0,0h0s0,0,0,0Z"/><path class="cls-11" d="m261.78,146.11s-.31.5-.72,1.26c-.4.76-.89,1.79-1.23,2.85-.34,1.06-.54,2.16-.37,3.06s.71,1.6,1.86,1.88,2.27.21,3.3-.11c1.03-.31,1.98-.87,2.76-1.58.78-.71,1.41-1.57,1.8-2.49.39-.92.55-1.89.41-2.82-.14-.93-.52-1.86-1.04-2.65-.53-.79-1.21-1.43-1.97-1.79-.76-.36-1.59-.43-2.42-.08-.83.35-1.65,1.13-2.39,2.47Z"/><g class="cls-28"><path class="cls-12" d="m260.49,148.56s.42.05,1.07.09c.65.04,1.53.07,2.45.01.92-.05,1.88-.19,2.7-.47s1.48-.71,1.81-1.36c0,0-.28-.19-.72-.46-.45-.28-1.06-.64-1.73-1s-1.41-.7-2.1-.94c-.69-.24-1.33-.37-1.81-.29s-.83.39-1.08.82-.39.97-.48,1.5c-.09.53-.11,1.06-.11,1.45,0,.39.01.65.01.65"/></g><path class="cls-11" d="m269.5,150.09s-.12.34-.3.93c-.18.59-.42,1.42-.66,2.4-.24.98-.48,2.11-.65,3.29-.17,1.18-.28,2.42-.26,3.61,0,0-.24.09-.62.21-.39.12-.93.28-1.54.42-.61.14-1.29.25-1.95.28-.66.04-1.31,0-1.85-.18-.55-.18-.62-.85-.43-1.77.19-.92.65-2.08,1.17-3.21s1.12-2.25,1.58-3.08.79-1.38.79-1.38l1.18-.38,1.18-.38,1.18-.38,1.18-.38Z"/><path class="cls-17" d="m261,150.47s.11.02.29.05.41.1.65.18c.25.08.5.19.72.32s.39.3.48.49c.09.19.15.4.2.61.05.2.09.4.11.58.02.18.04.33.05.43,0,.11,0,.17,0,.17l-.63-.53-.63-.53-.63-.53-.63-.53v-.72Z"/><path class="cls-17" d="m261,150.47l-.1-.08-.1-.08-.1-.08-.1-.08c-.08-.06-.17-.11-.27-.13-.09-.02-.19-.03-.29-.02-.1.01-.19.04-.27.09-.08.05-.16.11-.23.19l-.07.09-.07.09-.07.09-.07.09.43.14.43.14.43.14.43.14v-.72Z"/><path class="cls-12" d="m262.76,155.33s.05,0,.15-.01c.1-.01.26-.04.48-.09.22-.05.51-.13.87-.25.36-.12.8-.28,1.32-.5,0,0-.05.12-.16.3s-.29.43-.55.69c-.26.26-.61.52-1.05.74-.45.22-1,.39-1.67.46,0,0,.02-.05.06-.14.04-.09.09-.21.15-.35.06-.14.13-.29.2-.44.07-.15.14-.29.2-.41Z"/><path class="cls-17" d="m266.95,146.33l.05.78.05.78.05.78.05.78c0,.1.02.2.05.29.02.09.06.19.1.28.04.09.09.17.15.25.06.08.12.15.2.22h0s.01-.06.03-.14c.02-.09.06-.2.11-.32.05-.11.11-.23.19-.31.08-.08.17-.14.27-.13.11,0,.24.12.34.29.11.17.19.41.2.67s-.05.53-.23.79c-.18.25-.49.48-.96.65l.02.4.02.4.02.4.02.4c0,.1.02.2.05.3.03.1.07.19.12.28.05.09.11.17.18.24.07.07.15.14.23.19h0s.14-.18.34-.46c.21-.29.49-.68.78-1.13.29-.44.59-.94.84-1.41.25-.47.45-.93.54-1.3,0,0-.1-.16-.29-.42-.19-.26-.46-.63-.8-1.04-.34-.41-.75-.86-1.21-1.3-.46-.44-.98-.86-1.53-1.21Z"/><path class="cls-17" d="m260.76,145.23s-.03.15-.07.37c-.04.22-.08.52-.11.83-.03.31-.04.63,0,.88.03.26.11.46.25.53,0,0,.07-.14.19-.36s.28-.52.47-.85c.18-.32.38-.67.57-.97s.37-.57.52-.74c0,0-.07,0-.18-.01-.11,0-.27,0-.45,0s-.38.04-.59.09-.41.13-.6.24Z"/><path class="cls-10" d="m270.77,150.31s-.24-.39-.69-.96-1.11-1.34-1.95-2.09c-.84-.75-1.86-1.48-3.03-2s-2.49-.82-3.92-.71c0,0,.05-.27.2-.64.16-.37.42-.85.87-1.28.44-.42,1.06-.79,1.91-.95.85-.16,1.94-.1,3.33.34,1.39.44,2.29,1.17,2.86,2.03.57.86.81,1.84.87,2.77.06.93-.04,1.8-.17,2.44-.12.64-.27,1.05-.27,1.05Z"/><path class="cls-14" d="m267.65,146.83s-.16-.19-.48-.48c-.32-.28-.8-.66-1.44-1.01s-1.43-.7-2.38-.93-2.05-.33-3.3-.21c-.63.06-.89.15-.94.26-.05.11.12.23.36.34.25.11.57.22.83.3.26.08.46.13.46.13,0,0,.17-.05.49-.08.32-.03.79-.05,1.39,0s1.33.18,2.17.44c.84.26,1.8.65,2.84,1.23Z"/><path class="cls-5" d="m268.51,158.42s-.35-.16-.96-.33c-.61-.18-1.47-.38-2.49-.48s-2.19-.09-3.42.16c-1.23.25-2.52.73-3.76,1.59l-2.03,2.03-2.03,2.03-2.03,2.03-2.03,2.03.93,1.78.93,1.78.93,1.78.93,1.78.47,2.29.47,2.29.47,2.29.47,2.29h17.31l.13-2.37.13-2.37.13-2.37.13-2.37s.38-.68.79-1.77c.41-1.09.84-2.61.93-4.27.09-1.67-.15-3.5-1.1-5.22-.95-1.73-2.59-3.35-5.3-4.61Z"/><g class="cls-32"><polyline class="cls-14" points="273.19 174.3 272.2 175.29 271.21 176.28 270.22 177.28 269.23 178.27 269.05 178.12 268.87 177.97 268.69 177.82 268.51 177.67 267.55 178.83 266.6 179.98 265.64 181.13 264.68 182.29 265.16 182.29 265.65 182.28 266.13 182.28 266.61 182.28 268.34 181.64 270.07 181 271.81 180.36 273.54 179.72 273.45 178.36 273.36 177.01 273.28 175.65 273.19 174.3"/><path class="cls-14" d="m257.59,159.74s-.28.38-.71,1.05c-.43.67-1.02,1.63-1.63,2.79-.61,1.16-1.25,2.53-1.78,4.01-.54,1.48-.97,3.08-1.18,4.71-.21,1.63-.31,2.44-.35,2.75s-.01.1.04-.31c.05-.41.13-1.02.2-1.53.07-.51.12-.92.12-.92l.37.95.37.95.37.95.37.95.47-2.5.47-2.5.47-2.5.47-2.5.48-1.59.48-1.59.48-1.59.48-1.59"/></g><path class="cls-18" d="m252.2,190.73c.06-3.43.17-6.66.36-9.68.19-3.02.47-5.84.87-8.44.4-2.6.92-4.98,1.6-7.12.68-2.15,1.52-4.06,2.56-5.74.09-.14.19-.28.3-.41s.23-.24.37-.35c.13-.11.27-.2.42-.28.15-.08.3-.16.46-.22l.1-.04.1-.04.1-.04.1-.04s-.18.49-.45,1.29c-.27.8-.64,1.91-1.03,3.17-.39,1.26-.79,2.65-1.13,4.02s-.62,2.71-.75,3.85l.86.15.86.15.86.15.86.15s.4-.65,1.06-1.65c.66-1,1.57-2.36,2.59-3.79,1.02-1.42,2.15-2.91,3.25-4.18s2.16-2.3,3.04-2.81l.39.24.39.24.39.24.39.24s-.62.58-1.54,1.59c-.93,1.01-2.16,2.44-3.38,4.15-1.22,1.71-2.44,3.68-3.34,5.78-.9,2.09-1.47,4.31-1.41,6.48.06,2.17.81,3.27,1.91,3.68,1.1.42,2.54.15,3.98-.38s2.87-1.34,3.94-2.01c1.07-.67,1.78-1.21,1.78-1.21l.23,3.18.23,3.18.23,3.18.23,3.18c.02.26.03.52.03.78s0,.52-.02.78-.04.52-.07.77c-.03.26-.08.51-.13.77h0c-.22,1.11-.6,2.17-1.11,3.14-.51.97-1.16,1.86-1.91,2.65s-1.62,1.46-2.57,2.01c-.95.55-1.99.96-3.09,1.22l-4.72.9-4.72.9-4.72.9-4.72.9-4.1,4.94-4.1,4.94-4.1,4.94-4.1,4.94-.65-.33-.65-.33-.65-.33-.65-.33,1.91-5.52,1.91-5.52,1.91-5.52,1.91-5.52c.38-1.11.89-2.16,1.51-3.14.62-.97,1.35-1.87,2.16-2.67.82-.8,1.73-1.51,2.72-2.11.99-.6,2.05-1.09,3.17-1.45l1.97-.63,1.97-.63,1.97-.63,1.97-.63Z"/><polygon class="cls-17" points="252.2 190.73 253.71 190.83 255.22 190.93 256.73 191.03 258.24 191.13 255.1 191.56 251.96 191.98 248.82 192.41 245.67 192.83 247.3 192.31 248.93 191.78 250.57 191.25 252.2 190.73"/><path class="cls-11" d="m268.51,177.67l-1.54-1.31-1.54-1.31-1.54-1.31-1.54-1.31-1.25,1.8-1.25,1.8-1.25,1.8-1.25,1.8-4.34-1-4.34-1-4.34-1-4.34-1-.26,1.03-.26,1.03-.26,1.03-.26,1.03,4.23,1.68,4.23,1.68,4.23,1.68,4.23,1.68c.24.1.49.17.74.24.25.06.5.11.76.14s.51.04.77.03c.26,0,.52-.03.77-.07h0c.34-.05.68-.14,1-.25s.64-.25.94-.42c.3-.17.58-.36.85-.58.27-.22.51-.46.74-.72l1.52-1.78,1.52-1.78,1.52-1.78,1.52-1.78Z"/><g class="cls-34"><path class="cls-12" d="m260.4,173.88s.2.29.58.73c.38.44.92,1.01,1.6,1.59s1.5,1.15,2.43,1.56c.92.42,1.95.68,3.05.65s1.65-.05,1.85-.06c.21,0,.07,0-.21,0-.27,0-.69.02-1.03.03s-.62.02-.62.02l.33-.45.33-.45.33-.45.33-.45-1.8-1.36-1.8-1.36-1.8-1.36-1.8-1.36-.44.68-.44.68-.44.68-.44.68Z"/></g><polygon class="cls-12" points="250.25 168.4 248.53 169.83 246.81 171.27 245.09 172.71 243.36 174.14 242.57 174.31 241.77 174.49 240.97 174.66 240.18 174.83 240.13 175.03 240.08 175.22 240.04 175.41 239.99 175.6 242.43 176.18 244.88 176.75 247.33 177.33 249.78 177.9 250.6 177.27 251.42 176.64 252.24 176.01 253.06 175.38 253.1 175.05 253.14 174.72 253.18 174.39 253.22 174.05 252.48 172.64 251.74 171.23 251 169.81 250.25 168.4"/><path class="cls-19" d="m238.44,235.24l-.09-.06-.09-.06-.09-.06-.09-.06v-4.72l-4.67-2.37-4.67-2.37-4.67-2.37-4.67-2.37h-18.69v41.38h51.63c0-2.67-.32-5.31-.95-7.85-.62-2.54-1.54-4.99-2.73-7.3-1.19-2.31-2.66-4.48-4.37-6.46-1.71-1.98-3.67-3.77-5.85-5.32Z"/><path class="cls-17" d="m233.85,253.52c0,2.84-.58,5.55-1.62,8.02-1.04,2.46-2.55,4.68-4.42,6.55-1.86,1.86-4.08,3.37-6.55,4.42-2.46,1.04-5.18,1.62-8.02,1.62s-5.55-.58-8.02-1.62-4.68-2.55-6.55-4.42c-1.86-1.86-3.37-4.08-4.42-6.55-1.04-2.47-1.62-5.18-1.62-8.02s.58-5.55,1.62-8.02c1.04-2.46,2.55-4.68,4.42-6.55,1.86-1.86,4.08-3.37,6.55-4.42s5.18-1.62,8.02-1.62,5.55.58,8.02,1.62c2.47,1.04,4.68,2.55,6.55,4.42,1.86,1.86,3.37,4.08,4.42,6.55,1.04,2.47,1.62,5.18,1.62,8.02Z"/><path class="cls-18" d="m236.12,253.52c0,2.84-.58,5.55-1.62,8.02-1.04,2.46-2.55,4.68-4.42,6.55-1.86,1.86-4.08,3.37-6.55,4.42-2.46,1.04-5.18,1.62-8.02,1.62s-5.55-.58-8.02-1.62c-2.46-1.04-4.68-2.55-6.55-4.42-1.86-1.86-3.37-4.08-4.42-6.55-1.04-2.47-1.62-5.18-1.62-8.02s.58-5.55,1.62-8.02c1.04-2.46,2.55-4.68,4.42-6.55s4.08-3.37,6.55-4.42c2.46-1.04,5.18-1.62,8.02-1.62s5.55.58,8.02,1.62c2.47,1.04,4.68,2.55,6.55,4.42,1.86,1.86,3.37,4.08,4.42,6.55,1.04,2.47,1.62,5.18,1.62,8.02Z"/><path class="cls-17" d="m215.52,241.9c-.07,0-.14,0-.21,0-.07,0-.14,0-.21,0-.07,0-.14,0-.21.01-.07,0-.14,0-.21.01,1.51.11,2.93.5,4.23,1.13,1.29.63,2.45,1.49,3.43,2.52s1.75,2.25,2.3,3.6c.54,1.34.84,2.81.84,4.34s-.3,3-.84,4.34c-.54,1.34-1.32,2.56-2.3,3.6-.97,1.04-2.13,1.9-3.43,2.52-1.29.63-2.72,1.02-4.23,1.13.07,0,.14,0,.21.01.07,0,.14,0,.21.01.07,0,.14,0,.21,0s.14,0,.21,0c1.6,0,3.13-.33,4.52-.91,1.39-.59,2.64-1.44,3.69-2.49,1.05-1.05,1.9-2.3,2.49-3.69.59-1.39.91-2.92.91-4.52s-.33-3.13-.91-4.52c-.59-1.39-1.44-2.64-2.49-3.69-1.05-1.05-2.3-1.9-3.69-2.49-1.39-.59-2.92-.91-4.52-.91Z"/><path class="cls-13" d="m225.47,253.52c0-1.53-.3-3-.84-4.34-.54-1.34-1.32-2.56-2.3-3.6s-2.13-1.9-3.43-2.52c-1.29-.63-2.72-1.02-4.23-1.13-1.51.11-2.93.5-4.23,1.13-1.29.63-2.45,1.49-3.43,2.52-.97,1.04-1.75,2.25-2.3,3.6-.54,1.34-.84,2.81-.84,4.34s.3,3,.84,4.34c.54,1.34,1.32,2.56,2.3,3.6.97,1.04,2.13,1.9,3.43,2.52,1.29.63,2.72,1.02,4.23,1.13,1.51-.11,2.93-.5,4.23-1.13,1.29-.63,2.45-1.49,3.43-2.52.97-1.04,1.75-2.25,2.3-3.6.54-1.34.84-2.81.84-4.34Z"/><polygon class="cls-17" points="219.39 227.27 214.74 227.27 210.09 227.27 205.45 227.27 200.8 227.27 200.8 225.68 200.8 224.1 200.8 222.52 200.8 220.94 205.45 220.94 210.09 220.94 214.74 220.94 219.39 220.94 219.39 222.52 219.39 224.1 219.39 225.68 219.39 227.27"/><polygon class="cls-18" points="295.65 230.26 295.21 230.26 294.78 230.26 294.34 230.26 293.91 230.26 293.91 224.42 293.91 218.58 293.91 212.74 293.91 206.9 294.34 206.9 294.78 206.9 295.21 206.9 295.65 206.9 295.65 212.74 295.65 218.58 295.65 224.42 295.65 230.26"/><rect class="cls-8" x="81.07" y="172.09" width="46.42" height="52.07"/><g class="cls-31"><rect class="cls-3" x="101.95" y="172.13" width="6.02" height="3.46"/><polygon class="cls-4" points="114.82 196.87 108.38 196.87 108.38 225.07 115.02 225.07 114.82 196.87"/><rect class="cls-4" x="118.68" y="172.08" width="3.64" height="21.93"/></g><rect class="cls-8" x="113.55" y="194.01" width="51.86" height="30.16"/><g class="cls-30"><rect class="cls-3" x="136.5" y="194.01" width="5.03" height="14.48"/><rect class="cls-8" x="154.26" y="192.65" width="10.98" height="33.88"/></g><rect class="cls-8" x="122.32" y="160.58" width="29.66" height="33.43"/><g class="cls-29"><rect class="cls-3" x="135.61" y="160.58" width="4.2" height="4.2"/></g><rect class="cls-8" x="92.25" y="150.58" width="30.07" height="21.55"/><g class="cls-33"><rect class="cls-3" x="103.04" y="150.58" width="3.75" height="2.66"/></g><path class="cls-6" d="m151.98,194.22h-38.43c-.12,0-.21-.09-.21-.21s.09-.21.21-.21h38.43c.12,0,.21.09.21.21s-.09.21-.21.21Z"/><path class="cls-6" d="m122.32,187.46c-.12,0-.21-.09-.21-.21v-26.67c0-.12.09-.21.21-.21s.21.09.21.21v26.67c0,.12-.09.21-.21.21Z"/><path class="cls-6" d="m122.32,194.22c-.12,0-.21-.09-.21-.21v-4.86c0-.12.09-.21.21-.21s.21.09.21.21v4.86c0,.12-.09.21-.21.21Z"/><path class="cls-6" d="m121.08,172.34h-27.24c-.12,0-.21-.09-.21-.21s.09-.21.21-.21h27.24c.12,0,.21.09.21.21s-.09.21-.21.21Z"/><path class="cls-6" d="m113.55,224.37c-.12,0-.21-.09-.21-.21v-28.23c0-.12.09-.21.21-.21s.21.09.21.21v28.23c0,.12-.09.21-.21.21Z"/><polygon class="cls-19" points="79.05 227.62 107.49 227.62 135.92 227.62 164.35 227.62 192.79 227.62 192.79 226.67 192.79 225.72 192.79 224.77 192.79 223.82 164.35 223.82 135.92 223.82 107.49 223.82 79.05 223.82 79.05 224.77 79.05 225.72 79.05 226.67 79.05 227.62"/><polygon class="cls-17" points="194.36 117.56 149.36 117.56 104.36 117.56 59.36 117.56 14.37 117.56 14.37 109.78 14.37 101.99 14.37 94.21 14.37 86.43 59.36 86.43 104.36 86.43 149.36 86.43 194.36 86.43 194.36 94.21 194.36 101.99 194.36 109.78 194.36 117.56"/><text class="cls-2" transform="translate(45.42 108.71)"><tspan x="0" y="0">WAREHOUSE</tspan></text><path class="cls-15" d="m89.25,334.9h-6.84l-2.05-9.33c-.1-.39-.25-1.17-.46-2.33s-.36-2.13-.46-2.92c-.08.63-.21,1.42-.38,2.37s-.35,1.81-.52,2.6-.88,3.99-2.13,9.61h-6.84l-5.3-21.42h5.58l2.33,10.74c.53,2.37.89,4.26,1.08,5.67.13-1,.35-2.35.68-4.06s.63-3.12.92-4.25l1.89-8.1h5.36l1.83,8.1c.31,1.3.63,2.8.95,4.5s.54,2.97.64,3.81c.13-1.08.47-2.96,1.04-5.64l2.37-10.77h5.58l-5.27,21.42Z"/><path class="cls-15" d="m107.69,334.9l-1.1-2.2h-.12c-.77.96-1.56,1.61-2.36,1.96s-1.84.53-3.11.53c-1.56,0-2.79-.47-3.69-1.41s-1.35-2.26-1.35-3.96.62-3.08,1.85-3.95c1.23-.87,3.01-1.35,5.35-1.46l2.77-.09v-.23c0-1.37-.67-2.05-2.02-2.05-1.21,0-2.75.41-4.61,1.23l-1.66-3.78c1.93-1,4.38-1.49,7.32-1.49,2.13,0,3.78.53,4.94,1.58s1.75,2.53,1.75,4.42v10.88h-3.97Zm-4.25-3.75c.69,0,1.29-.22,1.78-.66s.74-1.01.74-1.71v-1.29l-1.32.06c-1.88.07-2.83.76-2.83,2.08,0,1.02.54,1.52,1.63,1.52Z"/><path class="cls-15" d="m125.49,318.01c.5,0,.97.04,1.42.12l.32.06-.51,5.41c-.47-.12-1.12-.18-1.95-.18-1.25,0-2.16.29-2.72.86-.57.57-.85,1.39-.85,2.47v8.16h-5.73v-16.6h4.26l.89,2.65h.28c.48-.88,1.15-1.59,2-2.13.85-.54,1.72-.81,2.58-.81Z"/><path class="cls-15" d="m137.47,335.2c-2.76,0-4.91-.73-6.44-2.21-1.53-1.47-2.29-3.56-2.29-6.28s.71-4.95,2.12-6.45,3.44-2.25,6.06-2.25,4.43.65,5.79,1.96c1.36,1.3,2.04,3.18,2.04,5.63v2.55h-10.24c.04.93.38,1.66,1.02,2.18s1.51.79,2.61.79c1.01,0,1.93-.1,2.78-.29.84-.19,1.76-.52,2.75-.97v4.12c-.9.46-1.83.78-2.78.95s-2.1.26-3.43.26Zm-.34-13.29c-.67,0-1.24.21-1.69.64-.45.42-.72,1.09-.8,2h4.92c-.02-.8-.25-1.44-.68-1.92s-1.02-.72-1.75-.72Z"/><path class="cls-15" d="m158.36,334.9v-9.05c0-2.23-.66-3.34-1.98-3.34-.94,0-1.63.39-2.07,1.18s-.67,2.09-.67,3.92v7.29h-5.73v-22.79h5.73v3.24c0,1.46-.08,3.13-.23,5.01h.26c.55-.86,1.2-1.46,1.95-1.82s1.63-.53,2.62-.53c1.86,0,3.3.53,4.33,1.6,1.03,1.07,1.54,2.57,1.54,4.49v10.8h-5.76Z"/><path class="cls-15" d="m183.77,326.57c0,2.71-.73,4.83-2.19,6.35s-3.5,2.28-6.13,2.28-4.52-.78-6.01-2.33-2.23-3.65-2.23-6.3.73-4.81,2.19-6.31,3.51-2.25,6.15-2.25c1.63,0,3.07.35,4.32,1.04s2.21,1.69,2.89,2.98c.68,1.29,1.02,2.81,1.02,4.53Zm-10.75,0c0,1.43.19,2.51.57,3.26.38.75,1.02,1.12,1.92,1.12s1.52-.37,1.88-1.12c.37-.75.55-1.83.55-3.26s-.19-2.49-.56-3.21-1.01-1.08-1.9-1.08-1.51.36-1.89,1.08c-.38.72-.57,1.79-.57,3.22Z"/><path class="cls-15" d="m198.77,334.9l-.72-2.07h-.34c-.48.76-1.15,1.35-2,1.75-.85.4-1.86.61-3.01.61-1.83,0-3.25-.53-4.26-1.59-1.02-1.06-1.52-2.56-1.52-4.49v-10.81h5.73v9.07c0,1.08.15,1.9.46,2.46s.81.83,1.52.83c.99,0,1.69-.39,2.11-1.17.42-.78.63-2.09.63-3.93v-7.27h5.73v16.6h-4.32Z"/><path class="cls-15" d="m219.77,329.8c0,1.78-.61,3.12-1.82,4.03s-2.95,1.36-5.21,1.36c-1.23,0-2.3-.07-3.21-.2-.91-.13-1.84-.37-2.78-.73v-4.58c.89.39,1.86.71,2.92.97s2,.38,2.83.38c1.24,0,1.86-.28,1.86-.85,0-.29-.17-.55-.52-.78s-1.35-.68-3.02-1.34c-1.52-.62-2.59-1.33-3.19-2.13-.61-.79-.91-1.8-.91-3.02,0-1.54.6-2.74,1.79-3.6s2.88-1.29,5.05-1.29c1.09,0,2.12.12,3.08.36.96.24,1.96.59,3,1.05l-1.55,3.69c-.76-.34-1.57-.63-2.42-.87-.85-.24-1.54-.36-2.08-.36-.94,0-1.41.23-1.41.69,0,.28.16.53.49.72.33.2,1.27.61,2.83,1.22,1.16.48,2.03.95,2.6,1.41s.99,1,1.26,1.62c.27.62.4,1.38.4,2.26Z"/><path class="cls-15" d="m230.87,335.2c-2.76,0-4.91-.73-6.44-2.21-1.53-1.47-2.29-3.56-2.29-6.28s.71-4.95,2.12-6.45,3.44-2.25,6.06-2.25,4.43.65,5.79,1.96c1.36,1.3,2.04,3.18,2.04,5.63v2.55h-10.24c.04.93.38,1.66,1.02,2.18s1.51.79,2.61.79c1.01,0,1.93-.1,2.78-.29.84-.19,1.76-.52,2.75-.97v4.12c-.9.46-1.83.78-2.78.95s-2.1.26-3.43.26Zm-.34-13.29c-.67,0-1.24.21-1.69.64-.45.42-.72,1.09-.8,2h4.92c-.02-.8-.25-1.44-.68-1.92s-1.02-.72-1.75-.72Z"/></g></svg>