<?xml version="1.0" encoding="UTF-8"?><svg id="Layer_2" xmlns="http://www.w3.org/2000/svg" xmlns:xlink="http://www.w3.org/1999/xlink" viewBox="0 0 335.97 342.11"><defs><style>.cls-1{fill:#f3f3f7;}.cls-2{fill:#f7db87;}.cls-3{fill:#efb673;}.cls-4{fill:#fff;}.cls-5{fill:#f2c34f;}.cls-6{fill:#f0f1f5;}.cls-7{fill:#efc887;}.cls-8{fill:#eda656;}.cls-9{fill:#ffd599;}.cls-10{fill:#ffd291;}.cls-11{fill:#fcc67e;}.cls-12{fill:#e3a051;}.cls-13{fill:#cde1f0;}.cls-14{fill:#d88a8b;}.cls-15{fill:#be7276;}.cls-16{fill:#cfe3f2;}.cls-17{fill:#e0eaf0;}.cls-18{fill:#133c5a;}.cls-19,.cls-20{fill:#1f537a;}.cls-21{fill:#0b2641;}.cls-22{fill:#74b388;}.cls-23{fill:#74b58a;}.cls-24{clip-path:url(#clippath-4);}.cls-25{clip-path:url(#clippath-3);}.cls-26{clip-path:url(#clippath-2);}.cls-27{clip-path:url(#clippath-7);}.cls-28{clip-path:url(#clippath-8);}.cls-29{clip-path:url(#clippath-6);}.cls-30{clip-path:url(#clippath-5);}.cls-20{font-family:OpenSans-Bold, 'Open Sans';font-size:19px;font-weight:700;letter-spacing:0em;}</style><clipPath id="clippath-2"><path class="cls-14" d="m308.32,87.02c4.01-9.03,13.05-3.17,14.37,2.76.58,2.61-.65,5.45-2.84,7.7-.55,3.27-1.03,7.63-.67,11.61,0,0-5.77,2.8-9.27,1.95-1.94-.47-.58-5.19,1.03-9.31-.76.04-1.52.01-2.27-.11-7.31-1.16-.34-14.61-.34-14.61Z"/></clipPath><clipPath id="clippath-3"><path class="cls-14" d="m275.17,97.46s2.93.15,3.29.25c.36.11,2.94,3.12,2.94,3.12l13.47,16.96-8.91,4.57-8.57-19.3-1.77-.97-.45-4.63Z"/></clipPath><clipPath id="clippath-4"><path class="cls-2" d="m297.56,159.02l-1.53-26.75s6.7-25.25,15.14-26.59,12.57,5.64,13.39,11.11c.82,5.48,2.77,42.23,2.77,42.23h-31.8"/></clipPath><clipPath id="clippath-5"><polygon class="cls-14" points="278.52 127.31 259.7 121.23 259.7 126.6 277.36 138.37 278.52 127.31"/></clipPath><clipPath id="clippath-6"><path class="cls-2" d="m313.52,105.61c-3.46-.25-6.79,1.37-8.82,4.19-4.3,5.97-15.29,19.41-16.72,19.41-1.83,0-9.72-2.95-9.72-2.95l-1.33,12.72s13.23,5.14,15.8,4.59c2.57-.55,22.17-13.18,25.36-17.83,5.07-7.38,5.25-19.42-4.57-20.13Z"/></clipPath><clipPath id="clippath-7"><path class="cls-14" d="m261.44,122.04l-1.09-1.23c-.57-.64-.99-1.4-1.24-2.22l-.52-1.71c-.02-.07-.11-.11-.18-.07-.28.16-.91.57-.93.96-.03.5-.18,3.16-.18,3.16l-5.65.74s2.71,3.18,3.41,3.69c.7.5,5.89,1.51,5.89,1.51l.48-4.82Z"/></clipPath><clipPath id="clippath-8"><path class="cls-21" d="m325.03,117.13c-.18-3.3-1.47-6.45-3.73-8.86-3-3.2-9.04-5.54-15.25,0,0,0,13.14.82,12.35,14.09-.5,8.27-3.08,18.32-22.4,21.84l1.57,23.94,33.42-4.49-5.95-46.53Z"/></clipPath></defs><g id="Layer_1-2"><path class="cls-17" d="m236.48,28.31C212.37,6.82,182.52-5.48,145.63,2.39c-56.29,12-81.28,65.08-80.35,118.69.85,49.43,16.69,104.58,61.99,130.47,28.37,16.22,62.7,20.41,94.95,15.13,38.6-6.32,73.29-28.33,82.34-68.42,13.94-61.8-23.09-129.84-68.08-169.96Z"/><rect class="cls-10" y="188.2" width="68.98" height="85.45"/><rect class="cls-8" x="68.98" y="188.2" width="53" height="85.45"/><rect class="cls-10" y="102.75" width="68.98" height="85.45"/><rect class="cls-11" x="68.98" y="102.75" width="53" height="85.45"/><path class="cls-12" d="m68.98,188.67H5.14c-.26,0-.47-.21-.47-.47s.21-.47.47-.47h63.84c.26,0,.47.21.47.47s-.21.47-.47.47Z"/><path class="cls-12" d="m121.98,188.67h-47.78c-.26,0-.47-.21-.47-.47s.21-.47.47-.47h47.78c.26,0,.47.21.47.47s-.21.47-.47.47Z"/><rect class="cls-10" x="121.9" y="188.2" width="68.98" height="85.45"/><rect class="cls-3" x="190.88" y="188.2" width="53" height="85.45"/><rect class="cls-10" x="140.96" y="126.14" width="50.1" height="62.06"/><rect class="cls-3" x="191.06" y="126.14" width="38.49" height="62.06"/><path class="cls-12" d="m190.88,188.67h-63.84c-.26,0-.47-.21-.47-.47s.21-.47.47-.47h63.84c.26,0,.47.21.47.47s-.21.47-.47.47Z"/><path class="cls-12" d="m243.88,188.67h-47.78c-.26,0-.47-.21-.47-.47s.21-.47.47-.47h47.78c.26,0,.47.21.47.47s-.21.47-.47.47Z"/><rect class="cls-10" x="97.77" y="142.08" width="35.83" height="71.51"/><rect class="cls-11" x="126.46" y="142.08" width="19.72" height="71.51"/><rect class="cls-8" x="94.09" y="145.48" width="3.68" height="68.11"/><rect class="cls-7" x="84.47" y="213.74" width="50.06" height="59.91"/><rect class="cls-11" x="134.53" y="213.59" width="25.13" height="60.06"/><path class="cls-12" d="m128.87,214.13h-44.4c-.22,0-.39-.18-.39-.39s.18-.39.39-.39h44.4c.22,0,.39.18.39.39s-.18.39-.39.39Z"/><rect class="cls-12" x="79.7" y="218.67" width="4.77" height="54.98"/><rect class="cls-6" x="7.81" y="109.65" width="29.26" height="20.48"/><rect class="cls-16" x="10.17" y="111.85" width="10.54" height="8.95"/><rect class="cls-16" x="10.17" y="122.97" width="24.32" height="1.1"/><rect class="cls-16" x="10.17" y="124.8" width="24.32" height="1.1"/><rect class="cls-16" x="10.17" y="126.64" width="12.27" height="1.1"/><rect class="cls-16" x="23.19" y="111.85" width=".7" height="3.22"/><rect class="cls-16" x="24.66" y="111.85" width="2.33" height="3.22"/><rect class="cls-16" x="27.6" y="111.85" width=".7" height="3.22"/><rect class="cls-16" x="29.07" y="111.85" width=".7" height="3.22"/><rect class="cls-16" x="30.53" y="111.85" width=".7" height="3.22"/><rect class="cls-16" x="32" y="111.85" width=".7" height="3.22"/><rect class="cls-16" x="33.47" y="111.85" width=".7" height="3.22"/><rect class="cls-16" x="23.19" y="116.32" width="5.87" height=".68"/><rect class="cls-16" x="23.19" y="117.62" width="9.16" height=".68"/><rect class="cls-16" x="23.19" y="118.92" width="3.56" height=".68"/><rect class="cls-16" x="23.19" y="120.22" width="7.93" height=".68"/><rect class="cls-6" x="157.89" y="130.13" width="29.26" height="20.48"/><rect class="cls-16" x="160.26" y="132.33" width="10.54" height="8.95"/><rect class="cls-16" x="160.26" y="143.45" width="24.32" height="1.1"/><rect class="cls-16" x="160.26" y="145.29" width="24.32" height="1.1"/><rect class="cls-16" x="160.26" y="147.12" width="12.27" height="1.1"/><rect class="cls-16" x="173.28" y="132.33" width=".7" height="3.22"/><rect class="cls-16" x="174.75" y="132.33" width="2.33" height="3.22"/><rect class="cls-16" x="177.68" y="132.33" width=".7" height="3.22"/><rect class="cls-16" x="179.15" y="132.33" width=".7" height="3.22"/><rect class="cls-16" x="180.62" y="132.33" width=".7" height="3.22"/><rect class="cls-16" x="182.09" y="132.33" width=".7" height="3.22"/><rect class="cls-16" x="183.56" y="132.33" width=".7" height="3.22"/><rect class="cls-16" x="173.28" y="136.8" width="5.87" height=".68"/><rect class="cls-16" x="173.28" y="138.1" width="9.16" height=".68"/><rect class="cls-16" x="173.28" y="139.4" width="3.56" height=".68"/><rect class="cls-16" x="173.28" y="140.7" width="7.93" height=".68"/><rect class="cls-6" x="149.88" y="192.3" width="18.17" height="12.72"/><rect class="cls-16" x="151.35" y="193.67" width="6.55" height="5.56"/><rect class="cls-16" x="151.35" y="200.58" width="15.1" height=".68"/><rect class="cls-16" x="151.35" y="201.72" width="15.1" height=".68"/><rect class="cls-16" x="151.35" y="202.85" width="7.62" height=".68"/><rect class="cls-16" x="159.44" y="193.67" width=".43" height="2"/><rect class="cls-16" x="160.35" y="193.67" width="1.45" height="2"/><rect class="cls-16" x="162.17" y="193.67" width=".43" height="2"/><rect class="cls-16" x="163.08" y="193.67" width=".43" height="2"/><rect class="cls-16" x="163.99" y="193.67" width=".43" height="2"/><rect class="cls-16" x="164.91" y="193.67" width=".43" height="2"/><rect class="cls-16" x="165.82" y="193.67" width=".43" height="2"/><rect class="cls-16" x="159.44" y="196.45" width="3.65" height=".42"/><rect class="cls-16" x="159.44" y="197.25" width="5.69" height=".42"/><rect class="cls-16" x="159.44" y="198.06" width="2.21" height=".42"/><rect class="cls-16" x="159.44" y="198.87" width="4.92" height=".42"/><rect class="cls-6" x="7.81" y="194.96" width="29.26" height="20.48"/><rect class="cls-16" x="10.17" y="197.16" width="10.54" height="8.95"/><rect class="cls-16" x="10.17" y="208.29" width="24.32" height="1.1"/><rect class="cls-16" x="10.17" y="210.12" width="24.32" height="1.1"/><rect class="cls-16" x="10.17" y="211.95" width="12.27" height="1.1"/><rect class="cls-16" x="23.19" y="197.16" width=".7" height="3.22"/><rect class="cls-16" x="24.66" y="197.16" width="2.33" height="3.22"/><rect class="cls-16" x="27.6" y="197.16" width=".7" height="3.22"/><rect class="cls-16" x="29.07" y="197.16" width=".7" height="3.22"/><rect class="cls-16" x="30.53" y="197.16" width=".7" height="3.22"/><rect class="cls-16" x="32" y="197.16" width=".7" height="3.22"/><rect class="cls-16" x="33.47" y="197.16" width=".7" height="3.22"/><rect class="cls-16" x="23.19" y="201.64" width="5.87" height=".68"/><rect class="cls-16" x="23.19" y="202.94" width="9.16" height=".68"/><rect class="cls-16" x="23.19" y="204.24" width="3.56" height=".68"/><rect class="cls-16" x="23.19" y="205.54" width="7.93" height=".68"/><rect class="cls-6" x="90.37" y="220.68" width="20.49" height="14.34"/><rect class="cls-16" x="92.02" y="222.22" width="7.38" height="6.27"/><rect class="cls-16" x="92.02" y="230.01" width="17.03" height=".77"/><rect class="cls-16" x="92.02" y="231.3" width="17.03" height=".77"/><rect class="cls-16" x="92.02" y="232.58" width="8.59" height=".77"/><rect class="cls-16" x="101.14" y="222.22" width=".49" height="2.26"/><rect class="cls-16" x="102.17" y="222.22" width="1.63" height="2.26"/><rect class="cls-16" x="104.22" y="222.22" width=".49" height="2.26"/><rect class="cls-16" x="105.25" y="222.22" width=".49" height="2.26"/><rect class="cls-16" x="106.28" y="222.22" width=".49" height="2.26"/><rect class="cls-16" x="107.31" y="222.22" width=".49" height="2.26"/><rect class="cls-16" x="108.34" y="222.22" width=".49" height="2.26"/><rect class="cls-16" x="101.14" y="225.35" width="4.11" height=".48"/><rect class="cls-16" x="101.14" y="226.26" width="6.41" height=".48"/><rect class="cls-16" x="101.14" y="227.18" width="2.49" height=".48"/><rect class="cls-16" x="101.14" y="228.09" width="5.55" height=".48"/><rect class="cls-6" x="100.61" y="145.48" width="12.02" height="8.42"/><rect class="cls-16" x="101.58" y="146.38" width="4.33" height="3.68"/><rect class="cls-16" x="101.58" y="150.95" width="9.99" height=".45"/><rect class="cls-16" x="101.58" y="151.7" width="9.99" height=".45"/><rect class="cls-16" x="101.58" y="152.46" width="5.04" height=".45"/><rect class="cls-16" x="106.93" y="146.38" width=".29" height="1.32"/><rect class="cls-16" x="107.54" y="146.38" width=".96" height="1.32"/><rect class="cls-16" x="108.74" y="146.38" width=".29" height="1.32"/><rect class="cls-16" x="109.35" y="146.38" width=".29" height="1.32"/><rect class="cls-16" x="109.95" y="146.38" width=".29" height="1.32"/><rect class="cls-16" x="110.55" y="146.38" width=".29" height="1.32"/><rect class="cls-16" x="111.15" y="146.38" width=".29" height="1.32"/><rect class="cls-16" x="106.93" y="148.22" width="2.41" height=".28"/><rect class="cls-16" x="106.93" y="148.75" width="3.76" height=".28"/><rect class="cls-16" x="106.93" y="149.29" width="1.46" height=".28"/><rect class="cls-16" x="106.93" y="149.82" width="3.26" height=".28"/><path class="cls-12" d="m126.46,164.16c-.27,0-.48-.22-.48-.48v-21.6c0-.27.22-.48.48-.48s.48.22.48.48v21.6c0,.27-.22.48-.48.48Z"/><path class="cls-12" d="m190.88,274.13c-.27,0-.48-.22-.48-.48v-42.72c0-.27.22-.48.48-.48s.48.22.48.48v42.72c0,.27-.22.48-.48.48Z"/><path class="cls-12" d="m68.98,146.31c-.27,0-.48-.22-.48-.48v-15.7c0-.27.22-.48.48-.48s.48.22.48.48v15.7c0,.27-.22.48-.48.48Z"/><path class="cls-12" d="m68.98,126.38c-.27,0-.48-.22-.48-.48v-23.15c0-.27.22-.48.48-.48s.48.22.48.48v23.15c0,.27-.22.48-.48.48Z"/><path class="cls-12" d="m191.06,137.28c-.27,0-.48-.22-.48-.48v-10.66c0-.27.22-.48.48-.48s.48.22.48.48v10.66c0,.27-.22.48-.48.48Z"/><rect class="cls-19" x="134.44" y="31.68" width="128.39" height="241.96" rx="10.09" ry="10.09"/><rect class="cls-4" x="144.66" y="59.92" width="107.94" height="202.81"/><path class="cls-4" d="m210.03,41.21h-22.8c-1.07,0-1.94-.87-1.94-1.94h0c0-1.07.87-1.94,1.94-1.94h22.8c1.07,0,1.94.87,1.94,1.94h0c0,1.07-.87,1.94-1.94,1.94Z"/><rect class="cls-1" x="144.89" y="173.48" width="107.94" height="89.71"/><rect class="cls-1" x="144.66" y="45.89" width="107.94" height="14.03"/><rect class="cls-13" x="147.97" y="48.74" width="15.71" height="2.14"/><rect class="cls-13" x="147.97" y="51.83" width="15.71" height="2.14"/><rect class="cls-13" x="147.97" y="54.93" width="15.71" height="2.14"/><rect class="cls-23" x="162.24" y="195.63" width="6.26" height="36.65"/><rect class="cls-23" x="171.59" y="195.63" width=".98" height="36.65"/><rect class="cls-23" x="177.49" y="195.63" width="4.07" height="36.65"/><rect class="cls-23" x="185.11" y="195.63" width="6.26" height="36.65"/><rect class="cls-23" x="192.73" y="195.63" width="6.26" height="36.65"/><rect class="cls-23" x="200.35" y="195.63" width="3.13" height="36.65"/><rect class="cls-23" x="206.85" y="195.63" width="6.26" height="36.65"/><rect class="cls-23" x="216.04" y="195.63" width="3.13" height="36.65"/><rect class="cls-23" x="223.22" y="195.63" width="6.26" height="36.65"/><rect class="cls-23" x="232.41" y="195.63" width="3.13" height="36.65"/><path class="cls-23" d="m163.06,236.26l.6,1.03c.16.27.29.51.43.78h.03c.14-.29.28-.53.42-.79l.59-1.02h.83l-1.44,2.31,1.48,2.47h-.87l-.62-1.07c-.17-.28-.3-.54-.45-.83h-.02c-.14.29-.29.54-.44.83l-.61,1.07h-.85l1.5-2.44-1.43-2.34h.85Z"/><path class="cls-23" d="m167.09,236.26l.6,1.03c.16.27.29.51.43.78h.03c.14-.29.28-.53.42-.79l.59-1.02h.83l-1.44,2.31,1.48,2.47h-.87l-.62-1.07c-.17-.28-.3-.54-.45-.83h-.02c-.14.29-.29.54-.44.83l-.61,1.07h-.85l1.5-2.44-1.43-2.34h.85Z"/><path class="cls-23" d="m172.49,238.04v.64h-2.15v-.64h2.15Z"/><path class="cls-23" d="m173.74,236.26l.6,1.03c.16.27.29.51.43.78h.03c.14-.29.28-.53.42-.79l.59-1.02h.83l-1.44,2.31,1.48,2.47h-.87l-.62-1.07c-.17-.28-.3-.54-.45-.83h-.02c-.14.29-.29.54-.44.83l-.61,1.07h-.85l1.5-2.44-1.43-2.34h.85Z"/><path class="cls-23" d="m177.77,236.26l.6,1.03c.16.27.29.51.43.78h.03c.14-.29.28-.53.42-.79l.59-1.02h.83l-1.44,2.31,1.48,2.47h-.87l-.62-1.07c-.17-.28-.3-.54-.45-.83h-.02c-.14.29-.29.54-.44.83l-.61,1.07h-.85l1.5-2.44-1.43-2.34h.85Z"/><path class="cls-23" d="m181.81,236.26l.6,1.03c.16.27.29.51.43.78h.03c.14-.29.28-.53.42-.79l.59-1.02h.83l-1.44,2.31,1.48,2.47h-.87l-.62-1.07c-.17-.28-.3-.54-.45-.83h-.02c-.14.29-.29.54-.44.83l-.61,1.07h-.84l1.5-2.44-1.43-2.34h.85Z"/><path class="cls-23" d="m187.21,238.04v.64h-2.15v-.64h2.15Z"/><path class="cls-23" d="m188.46,236.26l.6,1.03c.16.27.29.51.43.78h.03c.14-.29.28-.53.42-.79l.59-1.02h.83l-1.44,2.31,1.48,2.47h-.87l-.62-1.07c-.17-.28-.3-.54-.45-.83h-.02c-.14.29-.29.54-.44.83l-.61,1.07h-.85l1.5-2.44-1.43-2.34h.85Z"/><path class="cls-23" d="m192.49,236.26l.6,1.03c.16.27.29.51.43.78h.03c.14-.29.28-.53.42-.79l.59-1.02h.83l-1.44,2.31,1.48,2.47h-.87l-.62-1.07c-.17-.28-.3-.54-.45-.83h-.02c-.14.29-.29.54-.44.83l-.61,1.07h-.84l1.5-2.44-1.43-2.34h.85Z"/><path class="cls-23" d="m196.52,236.26l.6,1.03c.16.27.29.51.43.78h.03c.14-.29.28-.53.42-.79l.59-1.02h.83l-1.44,2.31,1.48,2.47h-.87l-.62-1.07c-.17-.28-.3-.54-.45-.83h-.02c-.14.29-.29.54-.44.83l-.61,1.07h-.84l1.5-2.44-1.43-2.34h.85Z"/><path class="cls-23" d="m201.92,238.04v.64h-2.15v-.64h2.15Z"/><path class="cls-23" d="m203.17,236.26l.6,1.03c.16.27.29.51.43.78h.03c.14-.29.28-.53.42-.79l.59-1.02h.83l-1.44,2.31,1.48,2.47h-.87l-.62-1.07c-.17-.28-.3-.54-.45-.83h-.02c-.14.29-.29.54-.44.83l-.61,1.07h-.84l1.5-2.44-1.43-2.34h.85Z"/><path class="cls-23" d="m207.21,236.26l.6,1.03c.16.27.29.51.43.78h.03c.14-.29.28-.53.42-.79l.59-1.02h.83l-1.44,2.31,1.48,2.47h-.87l-.62-1.07c-.17-.28-.3-.54-.45-.83h-.02c-.14.29-.29.54-.44.83l-.61,1.07h-.84l1.5-2.44-1.43-2.34h.85Z"/><path class="cls-23" d="m211.24,236.26l.6,1.03c.16.27.29.51.43.78h.03c.14-.29.28-.53.42-.79l.59-1.02h.83l-1.44,2.31,1.48,2.47h-.87l-.62-1.07c-.17-.28-.3-.54-.45-.83h-.02c-.14.29-.29.54-.44.83l-.61,1.07h-.85l1.5-2.44-1.43-2.34h.85Z"/><path class="cls-23" d="m216.64,238.04v.64h-2.15v-.64h2.15Z"/><path class="cls-23" d="m217.89,236.26l.6,1.03c.16.27.29.51.43.78h.03c.14-.29.28-.53.42-.79l.59-1.02h.83l-1.44,2.31,1.48,2.47h-.87l-.62-1.07c-.17-.28-.3-.54-.45-.83h-.02c-.14.29-.29.54-.44.83l-.61,1.07h-.84l1.5-2.44-1.43-2.34h.85Z"/><path class="cls-23" d="m221.92,236.26l.6,1.03c.16.27.29.51.43.78h.03c.14-.29.28-.53.42-.79l.59-1.02h.83l-1.44,2.31,1.48,2.47h-.87l-.62-1.07c-.17-.28-.3-.54-.45-.83h-.02c-.14.29-.29.54-.44.83l-.61,1.07h-.85l1.5-2.44-1.43-2.34h.85Z"/><path class="cls-23" d="m225.95,236.26l.6,1.03c.16.27.29.51.43.78h.03c.14-.29.28-.53.42-.79l.59-1.02h.83l-1.44,2.31,1.48,2.47h-.87l-.62-1.07c-.17-.28-.3-.54-.45-.83h-.02c-.14.29-.29.54-.44.83l-.61,1.07h-.85l1.5-2.44-1.43-2.34h.85Z"/><path class="cls-23" d="m231.35,238.04v.64h-2.15v-.64h2.15Z"/><path class="cls-23" d="m232.61,236.26l.6,1.03c.16.27.29.51.43.78h.03c.14-.29.28-.53.42-.79l.59-1.02h.83l-1.44,2.31,1.48,2.47h-.87l-.62-1.07c-.17-.28-.3-.54-.45-.83h-.02c-.14.29-.29.54-.44.83l-.61,1.07h-.85l1.5-2.44-1.43-2.34h.85Z"/><circle class="cls-1" cx="197" cy="129.6" r="21.14"/><polygon class="cls-22" points="190.12 122.32 196.24 129.23 214.88 111.22 220.08 116.35 196.31 139.47 184.8 126.82 190.12 122.32"/><path class="cls-19" d="m328.46,157.34l1.58,6.2c.23.89.41,1.8.52,2.71.55,4.45.31,9.02.09,13.49-.76,15.55-5.17,32.38-5.17,32.38l8.87,51.87-4.64,1.28s-18.94-39.77-22.09-53.89c-.14-.65-.3-1.36-.48-2.11l-6.02-48.15,27.33-3.8Z"/><path class="cls-18" d="m334.66,263.51l-5.83,1.29.93,2.72s-6.27,2.03-8.66,6.12l14.87-2.93-1.31-7.2Z"/><path class="cls-19" d="m325.79,160.55l-.11,7.61c-.07,4.99-.63,9.97-1.77,14.83-3.54,15.16-10.9,30.93-10.9,30.93l-.59,52.62-4.8.43s-11.49-42.53-12.04-56.98c-.03-.67-.06-1.39-.09-2.16l2.73-48.45,27.57,1.17Z"/><path class="cls-18" d="m312.8,266.12l-5.96.22.42,2.85s-6.53.87-9.62,4.46h15.16v-7.53Z"/><path class="cls-18" d="m312.86,226.95l.15-13.03s11.15-23.08,11.94-36.41c0,0-1.9,20.98-6.04,33.8l-1.81,25.96-4.23-10.31Z"/><path class="cls-21" d="m316.88,81.07s-5.06-2.36-9.51,3c-2.72,3.28-3.85,10.65-4.32,15.87-.27,3.06,2.19,5.68,5.27,5.6l5.07-.13,3.5-24.34Z"/><path class="cls-14" d="m308.32,87.02c4.01-9.03,13.05-3.17,14.37,2.76.58,2.61-.65,5.45-2.84,7.7-.55,3.27-1.03,7.63-.67,11.61,0,0-5.77,2.8-9.27,1.95-1.94-.47-.58-5.19,1.03-9.31-.76.04-1.52.01-2.27-.11-7.31-1.16-.34-14.61-.34-14.61Z"/><g class="cls-26"><path class="cls-15" d="m310.94,101.73s1.36-.07,3.46-1.13c0,0-1.27,4.25-5.11,3.91l1.65-2.79"/><path class="cls-15" d="m308.94,84.36s-1.59,7.37,5.38,10.99l1.04-13.5s-3.6-.96-6.42,2.5Z"/><path class="cls-6" d="m306.27,96.49s1.66.66,3.63.42c0,0-.7,1.98-2.19,1.62s-1.44-2.05-1.44-2.05Z"/></g><path class="cls-14" d="m275.17,97.46s2.93.15,3.29.25c.36.11,2.94,3.12,2.94,3.12l13.47,16.96-8.91,4.57-8.57-19.3-1.77-.97-.45-4.63Z"/><g class="cls-25"><polygon class="cls-15" points="294.27 116.25 283.28 118 287.1 124.15 296.06 120.42 294.27 116.25"/><path class="cls-15" d="m277.54,100.86s.46,1.93,1.89,2.54l-1.93,2.04.04-4.58"/></g><polygon class="cls-5" points="295.1 117.21 284.56 121.2 290.17 131.88 299.21 122.36 295.1 117.21"/><path class="cls-2" d="m297.56,159.02l-1.53-26.75s6.7-25.25,15.14-26.59,12.57,5.64,13.39,11.11c.82,5.48,2.77,42.23,2.77,42.23h-31.8"/><g class="cls-24"><path class="cls-5" d="m308.68,137.95c1.47-2.96,1.99-5.39,1.99-5.39l-14.09,8.41.36,7.17c6.84-1.2,9.71-6.11,11.74-10.19Z"/></g><polygon class="cls-9" points="247.89 108.39 269.53 105.48 257.71 96 236.63 98.05 247.89 108.39"/><polygon class="cls-11" points="247.89 108.39 243.56 122.73 263.39 120.14 269.53 105.48 247.89 108.39"/><polygon class="cls-3" points="236.63 98.05 232.93 111.58 243.56 122.73 247.89 108.39 236.63 98.05"/><polygon class="cls-14" points="278.52 127.31 259.7 121.23 259.7 126.6 277.36 138.37 278.52 127.31"/><g class="cls-30"><path class="cls-15" d="m276.79,126.75s-3.04,8.28-2.55,10.21c.49,1.93,4.79,1.41,4.79,1.41l1.23-11.04-3.47-.58"/></g><path class="cls-2" d="m313.52,105.61c-3.46-.25-6.79,1.37-8.82,4.19-4.3,5.97-15.29,19.41-16.72,19.41-1.83,0-9.72-2.95-9.72-2.95l-1.33,12.72s13.23,5.14,15.8,4.59c2.57-.55,22.17-13.18,25.36-17.83,5.07-7.38,5.25-19.42-4.57-20.13Z"/><g class="cls-29"><path class="cls-5" d="m287.98,129.21s3.08,1.94,2.91,6.21c0,0,2.49-4.98-1.79-6.95-4.28-1.97,0,0,0,0l-1.12.74"/><path class="cls-5" d="m304.7,109.8s9.15-.28,13.19,7.41c4.04,7.69,0,0,0,0,0,0-1.27-9.4-12.56-9.4l-.62,1.99"/></g><polygon class="cls-6" points="261.46 100.17 257.64 96.9 252.29 97.52 255.98 100.9 261.46 100.17"/><path class="cls-14" d="m261.44,122.04l-1.09-1.23c-.57-.64-.99-1.4-1.24-2.22l-.52-1.71c-.02-.07-.11-.11-.18-.07-.28.16-.91.57-.93.96-.03.5-.18,3.16-.18,3.16l-5.65.74s2.71,3.18,3.41,3.69c.7.5,5.89,1.51,5.89,1.51l.48-4.82Z"/><g class="cls-27"><path class="cls-15" d="m257.31,120.93h0c.01.48-.38.86-.86.85l-4.4-.16,5.26-.69"/></g><path class="cls-21" d="m325.03,117.13c-.18-3.3-1.47-6.45-3.73-8.86-3-3.2-9.04-5.54-15.25,0,0,0,13.14.82,12.35,14.09-.5,8.27-3.08,18.32-22.4,21.84l1.57,23.94,33.42-4.49-5.95-46.53Z"/><g class="cls-28"><polygon class="cls-4" points="328.92 136.48 314.01 142.2 314.79 148.21 330.52 142.44 328.92 136.48"/><polygon class="cls-4" points="329.99 145.05 315.04 150.47 315.86 156.78 331.59 151.01 329.99 145.05"/></g><path class="cls-18" d="m312.22,81.46s-.47,7.39.4,13.36c.32,2.18.76,5.09,1.19,7.91.98,6.4,8.02,9.88,13.71,6.78.08-.04.15-.08.23-.12l1.04-1.04c1.7-1.74,2.2-4.33,1.27-6.57l-3.22-7.78s-3.91-18.34-14.62-12.52Z"/><rect class="cls-18" x="268.94" y="90.21" width="7.97" height="16.84" rx=".8" ry=".8" transform="translate(-15.66 68.09) rotate(-13.83)"/><path class="cls-14" d="m276.93,97.56s-3.97,4.13-3.82,4.24c.14.12,1.46.65,2.52.28.26-.09,2.66-1.52,2.66-1.52,0,0,.4-2.91-1.36-3.01Z"/><path class="cls-18" d="m297.74,167.93l31.79-4.27s-1.31,10.7-32.33,13.84l.54-9.57Z"/><text class="cls-20" transform="translate(154.49 87.58)"><tspan x="0" y="0">SUPPLIER</tspan></text><path class="cls-18" d="m119.58,328.4c0,1.33-.34,2.51-1.01,3.54-.67,1.03-1.65,1.83-2.92,2.4-1.27.57-2.76.86-4.47.86-1.43,0-2.62-.1-3.59-.3-.97-.2-1.97-.55-3.02-1.05v-5.16c1.1.57,2.25,1.01,3.44,1.33s2.29.48,3.28.48c.86,0,1.49-.15,1.89-.45s.6-.68.6-1.15c0-.29-.08-.55-.24-.77-.16-.22-.42-.44-.78-.67s-1.31-.68-2.85-1.38c-1.4-.63-2.44-1.25-3.14-1.85s-1.22-1.28-1.55-2.05-.51-1.68-.51-2.74c0-1.97.72-3.51,2.15-4.61s3.41-1.66,5.92-1.66c2.22,0,4.48.51,6.78,1.54l-1.77,4.47c-2-.92-3.73-1.38-5.19-1.38-.75,0-1.3.13-1.64.4s-.51.59-.51.98c0,.42.22.8.65,1.13s1.61.94,3.54,1.82c1.85.83,3.13,1.72,3.85,2.67.72.95,1.08,2.15,1.08,3.6Z"/><path class="cls-18" d="m134.29,334.9l-.72-2.07h-.34c-.48.76-1.15,1.35-2,1.75-.85.4-1.86.61-3.01.61-1.83,0-3.25-.53-4.26-1.59-1.02-1.06-1.52-2.56-1.52-4.49v-10.81h5.73v9.07c0,1.08.15,1.9.46,2.46s.81.83,1.52.83c.99,0,1.69-.39,2.11-1.17.42-.78.63-2.09.63-3.93v-7.27h5.73v16.6h-4.32Z"/><path class="cls-18" d="m152.43,335.2c-.84,0-1.59-.14-2.26-.42-.66-.28-1.32-.78-1.98-1.5h-.26c.18,1.16.26,1.88.26,2.17v6.67h-5.73v-23.8h4.66l.81,2.11h.26c1.06-1.6,2.53-2.4,4.41-2.4s3.28.76,4.32,2.29,1.57,3.61,1.57,6.27-.54,4.78-1.63,6.32c-1.09,1.54-2.57,2.31-4.43,2.31Zm-1.92-12.69c-.84,0-1.43.3-1.77.9-.34.6-.52,1.49-.55,2.67v.45c0,1.43.19,2.46.57,3.09s.98.95,1.8.95c.73,0,1.26-.32,1.6-.94.33-.63.5-1.67.5-3.13s-.17-2.45-.5-3.07c-.33-.62-.88-.93-1.66-.93Z"/><path class="cls-18" d="m171.64,335.2c-.84,0-1.59-.14-2.26-.42-.66-.28-1.32-.78-1.98-1.5h-.26c.18,1.16.26,1.88.26,2.17v6.67h-5.73v-23.8h4.66l.81,2.11h.26c1.06-1.6,2.53-2.4,4.41-2.4s3.28.76,4.32,2.29,1.57,3.61,1.57,6.27-.54,4.78-1.63,6.32c-1.09,1.54-2.57,2.31-4.43,2.31Zm-1.92-12.69c-.84,0-1.43.3-1.77.9-.34.6-.52,1.49-.55,2.67v.45c0,1.43.19,2.46.57,3.09s.98.95,1.8.95c.73,0,1.26-.32,1.6-.94.33-.63.5-1.67.5-3.13s-.17-2.45-.5-3.07c-.33-.62-.88-.93-1.66-.93Z"/><path class="cls-18" d="m186.6,334.9h-5.73v-22.79h5.73v22.79Z"/><path class="cls-18" d="m190.37,314.17c0-.86.24-1.5.72-1.92s1.25-.63,2.31-.63,1.84.21,2.33.64.73,1.06.73,1.9c0,1.68-1.02,2.52-3.06,2.52s-3.03-.84-3.03-2.52Zm5.87,20.73h-5.73v-16.6h5.73v16.6Z"/><path class="cls-18" d="m208.16,335.2c-2.76,0-4.91-.73-6.44-2.21-1.53-1.47-2.29-3.56-2.29-6.28s.71-4.95,2.12-6.45,3.44-2.25,6.06-2.25,4.43.65,5.79,1.96c1.36,1.3,2.04,3.18,2.04,5.63v2.55h-10.24c.04.93.38,1.66,1.02,2.18s1.51.79,2.61.79c1.01,0,1.93-.1,2.78-.29.84-.19,1.76-.52,2.75-.97v4.12c-.9.46-1.83.78-2.78.95s-2.1.26-3.43.26Zm-.34-13.29c-.67,0-1.24.21-1.69.64-.45.42-.72,1.09-.8,2h4.92c-.02-.8-.25-1.44-.68-1.92s-1.02-.72-1.75-.72Z"/><path class="cls-18" d="m228.62,318.01c.5,0,.97.04,1.42.12l.32.06-.51,5.41c-.47-.12-1.12-.18-1.95-.18-1.25,0-2.16.29-2.72.86-.57.57-.85,1.39-.85,2.47v8.16h-5.73v-16.6h4.26l.89,2.65h.28c.48-.88,1.15-1.59,2-2.13.85-.54,1.72-.81,2.59-.81Z"/></g></svg>