<?xml version="1.0" encoding="utf-8"?>
<!-- Generator: Adobe Illustrator 27.4.0, SVG Export Plug-In . SVG Version: 6.00 Build 0)  -->
<svg version="1.1" id="Layer_2_00000148652388743040130670000017075981234687987375_"
	 xmlns="http://www.w3.org/2000/svg" xmlns:xlink="http://www.w3.org/1999/xlink" x="0px" y="0px" viewBox="0 0 338.7 334.9"
	 style="enable-background:new 0 0 338.7 334.9;" xml:space="preserve">
<style type="text/css">
	.st0{fill:#E0EAF0;}
	.st1{clip-path:url(#SVGID_00000108303035341549225760000004762576392415027883_);}
	.st2{fill:#092542;}
	.st3{fill:#0B2641;}
	.st4{fill:#1F537A;}
	.st5{fill:#7F91C7;}
	.st6{fill:#103B5B;}
	.st7{fill:#1C527C;}
	.st8{fill:#DDE1EB;}
	.st9{fill:#EEEFF3;}
	.st10{fill:#133C5A;}
	.st11{fill-rule:evenodd;clip-rule:evenodd;fill:#FFFFFF;}
</style>
<g id="Layer_1-2">
	<path class="st0" d="M171.2,28.3c-24.1-21.5-54-33.8-90.9-25.9C24.1,14.4-0.9,67.5,0,121.1c0.8,49.4,16.7,104.6,62,130.5
		c28.4,16.2,62.7,20.4,95,15.1c38.6-6.3,73.3-28.3,82.3-68.4C253.2,136.5,216.2,68.4,171.2,28.3L171.2,28.3z"/>
	<g>
		<defs>
			<path id="SVGID_1_" d="M272.2,40C248.1,18.5,117.3-5.5,80.4,2.4C24.1,14.4-0.9,67.5,0,121.1c0.8,49.4,16.7,104.6,62,130.5
				c28.4,16.2,73.7,36.8,105.9,31.5c38.6-6.3,178.6,2.3,187.7-37.8C369.6,183.5,317.2,80.1,272.2,40L272.2,40z"/>
		</defs>
		<clipPath id="SVGID_00000113330863303060861930000000088518721751163819_">
			<use xlink:href="#SVGID_1_"  style="overflow:visible;"/>
		</clipPath>
		<g style="clip-path:url(#SVGID_00000113330863303060861930000000088518721751163819_);">
			<path class="st0" d="M171.2,28.3c-24.1-21.5-54-33.8-90.9-25.9C24.1,14.4-0.9,67.5,0,121.1c0.8,49.4,16.7,104.6,62,130.5
				c28.4,16.2,62.7,20.4,95,15.1c38.6-6.3,73.3-28.3,82.3-68.4C253.2,136.5,216.2,68.4,171.2,28.3L171.2,28.3z"/>
			<path class="st2" d="M246.4,240.2c0,4.7,0.9,9.1,2.6,13.1s4.2,7.7,7.2,10.7c3,3,6.7,5.5,10.7,7.2c4,1.7,8.5,2.6,13.1,2.6
				s9.1-0.9,13.1-2.6s7.7-4.2,10.7-7.2c3-3,5.5-6.7,7.2-10.7c1.7-4,2.6-8.5,2.6-13.1s-0.9-9.1-2.6-13.1s-4.2-7.7-7.2-10.7
				c-3-3.1-6.7-5.5-10.7-7.2s-8.5-2.6-13.1-2.6s-9.1,0.9-13.1,2.6c-4,1.7-7.7,4.2-10.7,7.2c-3,3.1-5.5,6.7-7.2,10.7
				C247.3,231.1,246.4,235.5,246.4,240.2L246.4,240.2z"/>
			<path class="st2" d="M-37,240.2c0,4.7,0.9,9.1,2.7,13.1s4.2,7.7,7.2,10.7c3.1,3,6.7,5.5,10.7,7.2s8.5,2.6,13.1,2.6
				s9.1-0.9,13.1-2.6s7.7-4.2,10.7-7.2c3.1-3,5.5-6.7,7.2-10.7c1.7-4,2.6-8.5,2.6-13.1s-0.9-9.1-2.6-13.1c-1.7-4-4.2-7.7-7.2-10.7
				c-3.1-3.1-6.7-5.5-10.7-7.2s-8.5-2.6-13.1-2.6s-9.1,0.9-13.1,2.6s2.3,4.2-0.7,7.2c-3.1,3.1-5.5,6.7-7.2,10.7
				C-26.1,231.1-37,235.5-37,240.2L-37,240.2z"/>
			<polygon class="st3" points="140.9,114 171.3,114 201.8,114 232.3,114 262.7,114 262.7,108.3 262.7,102.7 262.7,97 262.7,91.3 
				232.3,91.3 201.8,91.3 171.3,91.3 140.9,91.3 140.9,97 140.9,102.7 140.9,108.3 			"/>
			<polygon class="st4" points="-106.6,234 -41.2,234 24.2,234 89.5,234 154.9,234 154.9,198.3 154.9,162.7 154.9,127 154.9,91.3 
				89.5,91.3 24.2,91.3 -41.2,91.3 -106.6,91.3 -106.6,98.2 -106.6,105.1 -106.6,111.9 -106.6,118.8 -106.6,147.6 -106.6,176.4 
				-106.6,205.2 			"/>
			<path class="st5" d="M228.5,110.9v124.4h107.8v-33.3c0-1.6-0.2-3.2-0.6-4.8c-0.4-1.5-1.1-3-1.9-4.4s-1.8-2.6-3-3.7
				s-2.5-2.1-3.9-2.8l-3.1-1.6l-3.1-1.6l-3.1-1.6l-3.1-1.6c-1-0.6-2-1.2-2.9-1.9s-1.8-1.5-2.5-2.4c-0.8-0.9-1.5-1.8-2.1-2.8
				c-0.6-1-1.1-2-1.6-3.1l-4.6-11.8l-4.6-11.8l-4.6-11.8l-4.6-11.8c-0.7-1.7-1.6-3.3-2.8-4.8s-2.5-2.6-4-3.7s-3.1-1.8-4.8-2.3
				c-1.7-0.5-3.6-0.8-5.4-0.8L228.5,110.9L228.5,110.9z"/>
			<path class="st6" d="M154.9,110.9v124.4h107.8v-33.3c0-1.6-0.2-3.2-0.6-4.8s-1.1-3-1.9-4.4s-1.8-2.6-3-3.7s-2.5-2.1-3.9-2.8
				l-3.1-1.6l-3.1-1.6l-3.1-1.6l-3.1-1.6c-1-0.6-2-1.2-2.9-1.9s-1.8-1.5-2.5-2.4c-0.8-0.9-1.5-1.8-2.1-2.8c-0.6-1-1.1-2-1.6-3.1
				l-4.6-11.8l-4.6-11.8l-4.6-11.8l-4.6-11.8c-0.7-1.7-1.6-3.3-2.8-4.8s-2.5-2.6-4-3.7s-3.1-1.8-4.8-2.3c-1.7-0.5-3.6-0.8-5.4-0.8
				L154.9,110.9L154.9,110.9z"/>
			<path class="st7" d="M269.9,110.9c1.9,0,3.7,0.3,5.4,0.8s3.4,1.3,4.8,2.3c1.5,1,2.8,2.2,4,3.7c1.1,1.4,2.1,3,2.8,4.8l3.4,8.5
				l3.4,8.5l3.4,8.5l3.4,8.5c1.3,3.2,2.8,6.2,4.6,9.1c1.8,2.9,3.8,5.6,6,8.1s4.7,4.9,7.4,6.9c2.7,2.1,5.5,4,8.5,5.6l0,0
				c1.5,0.8,2.8,1.7,3.9,2.8s2.1,2.4,3,3.7c0.8,1.4,1.4,2.8,1.9,4.4s0.6,3.1,0.6,4.8v33.3h-73.5V202c0-1.6-0.2-3.2-0.6-4.8
				c-0.4-1.5-1.1-3-1.9-4.4s-1.8-2.6-3-3.7s-2.5-2.1-3.9-2.8l-3.1-1.6l-3.1-1.6l-3.1-1.6l-3.1-1.6c-1-0.6-2-1.2-2.9-1.9
				s-1.8-1.5-2.5-2.4c-0.8-0.9-1.5-1.8-2.1-2.8c-0.6-1-1.1-2-1.6-3.1l-0.9-2.2l-0.9-2.2l-0.9-2.2l-0.9-2.2l-3.8-9.6l-3.8-9.6
				l-3.8-9.6l-3.8-9.6c-0.7-1.7-1.6-3.3-2.8-4.8s-2.5-2.6-4-3.7s-3.1-1.8-4.8-2.3c-1.7-0.5-3.6-0.8-5.4-0.8L269.9,110.9L269.9,110.9
				z"/>
			<path class="st2" d="M250.3,222.8h86.2c0.3,0,0.6-0.1,0.8-0.2s0.5-0.3,0.7-0.5s0.4-0.4,0.5-0.7s0.2-0.5,0.2-0.8v-14.3
				c0-0.3-0.1-0.6-0.2-0.8c-0.1-0.3-0.3-0.5-0.5-0.7c-0.2-0.2-0.4-0.4-0.7-0.5s-0.5-0.2-0.8-0.2h-89.1c-0.3,0-0.6,0.1-0.9,0.2
				c-0.3,0.1-0.5,0.3-0.7,0.5s-0.3,0.5-0.4,0.8c-0.1,0.3-0.1,0.6-0.1,0.9l0.5,3.4l0.5,3.4l0.5,3.4l0.5,3.4c0,0.4,0.2,0.7,0.3,1
				c0.2,0.3,0.4,0.6,0.6,0.8c0.2,0.2,0.5,0.4,0.9,0.5C249.7,222.7,250,222.7,250.3,222.8L250.3,222.8z"/>
			<path class="st2" d="M282.7,227.3h35c0.4,0,0.7-0.1,1-0.2s0.6-0.3,0.8-0.6s0.4-0.5,0.5-0.8c0.1-0.3,0.2-0.6,0.2-1v-18.8h-40.1
				v18.8c0,0.4,0.1,0.7,0.2,1s0.3,0.6,0.5,0.8s0.5,0.4,0.8,0.6C282,227.3,282.3,227.3,282.7,227.3L282.7,227.3z"/>
			<path class="st7" d="M284.1,211.1h32.2c0.1,0,0.2,0,0.3-0.1c0.1,0,0.2-0.1,0.2-0.2s0.1-0.1,0.2-0.2s0.1-0.2,0.1-0.3l0,0
				c0-0.1,0-0.2-0.1-0.3c0-0.1-0.1-0.2-0.2-0.2s-0.1-0.1-0.2-0.2c-0.1,0-0.2-0.1-0.3-0.1h-32.2c-0.1,0-0.2,0-0.3,0.1
				c-0.1,0-0.2,0.1-0.2,0.2s-0.1,0.1-0.2,0.2s-0.1,0.2-0.1,0.3l0,0c0,0.1,0,0.2,0.1,0.3s0.1,0.2,0.2,0.2s0.1,0.1,0.2,0.2
				C283.9,211.1,284,211.1,284.1,211.1z"/>
			<path class="st7" d="M284.1,213.4h32.2c0.1,0,0.2,0,0.3-0.1c0.1,0,0.2-0.1,0.2-0.2s0.1-0.1,0.2-0.2s0.1-0.2,0.1-0.3l0,0
				c0-0.1,0-0.2-0.1-0.3c0-0.1-0.1-0.2-0.2-0.2s-0.1-0.1-0.2-0.2c-0.1,0-0.2-0.1-0.3-0.1h-32.2c-0.1,0-0.2,0-0.3,0.1
				c-0.1,0-0.2,0.1-0.2,0.2s-0.1,0.1-0.2,0.2s-0.1,0.2-0.1,0.3l0,0c0,0.1,0,0.2,0.1,0.3s0.1,0.2,0.2,0.2c0.1,0.1,0.1,0.1,0.2,0.2
				C283.9,213.4,284,213.4,284.1,213.4z"/>
			<path class="st7" d="M284.1,215.8h32.2c0.1,0,0.2,0,0.3-0.1c0.1,0,0.2-0.1,0.2-0.2s0.1-0.1,0.2-0.2s0.1-0.2,0.1-0.3l0,0
				c0-0.1,0-0.2-0.1-0.3c0-0.1-0.1-0.2-0.2-0.2s-0.1-0.1-0.2-0.2c-0.1,0-0.2-0.1-0.3-0.1h-32.2c-0.1,0-0.2,0-0.3,0.1
				c-0.1,0-0.2,0.1-0.2,0.2s-0.1,0.1-0.2,0.2s-0.1,0.2-0.1,0.3l0,0c0,0.1,0,0.2,0.1,0.3c0,0.1,0.1,0.2,0.2,0.2s0.1,0.1,0.2,0.2
				C283.9,215.8,284,215.8,284.1,215.8z"/>
			<path class="st7" d="M284.1,218.1h32.2c0.1,0,0.2,0,0.3-0.1s0.2-0.1,0.2-0.2s0.1-0.1,0.2-0.2s0.1-0.2,0.1-0.3l0,0
				c0-0.1,0-0.2-0.1-0.3c0-0.1-0.1-0.2-0.2-0.2s-0.1-0.1-0.2-0.2c-0.1,0-0.2-0.1-0.3-0.1h-32.2c-0.1,0-0.2,0-0.3,0.1
				c-0.1,0-0.2,0.1-0.2,0.2s-0.1,0.1-0.2,0.2s-0.1,0.2-0.1,0.3l0,0c0,0.1,0,0.2,0.1,0.3s0.1,0.2,0.2,0.2s0.1,0.1,0.2,0.2
				S284,218.1,284.1,218.1z"/>
			<path class="st6" d="M249.6,249.6h87.6c0.2,0,0.4,0,0.6-0.1s0.4-0.2,0.5-0.3c0.1-0.1,0.2-0.3,0.3-0.5s0.1-0.4,0.1-0.6v-11.1
				c0-0.2,0-0.4-0.1-0.6s-0.2-0.4-0.3-0.5s-0.3-0.2-0.5-0.3c-0.2-0.1-0.4-0.1-0.6-0.1h-95.9v5.9c0,1.1,0.2,2.2,0.6,3.2
				s1,1.9,1.8,2.6c0.8,0.8,1.6,1.4,2.6,1.8C247.3,249.3,248.4,249.6,249.6,249.6L249.6,249.6z"/>
			<path class="st8" d="M237.2,168.2l15.5-0.1l15.5-0.1l15.5-0.1l15.5-0.1c0.4,0,0.7-0.1,1-0.3c0.3-0.2,0.5-0.4,0.7-0.7
				c0.2-0.3,0.3-0.6,0.4-0.9s0-0.7-0.1-1l-3.9-9.5l-3.9-9.5l-3.9-9.5l-3.9-9.5c-0.1-0.4-0.4-0.7-0.6-1s-0.5-0.6-0.9-0.8
				s-0.7-0.4-1-0.5s-0.8-0.2-1.2-0.2h-59.3c-0.7,0-1.3,0.2-1.9,0.5c-0.5,0.3-1,0.7-1.4,1.2s-0.6,1.1-0.6,1.7c-0.1,0.6,0,1.3,0.3,1.9
				l3.6,8.9l3.6,8.9l3.6,8.9l3.6,8.9c0.1,0.4,0.4,0.7,0.6,1s0.5,0.6,0.9,0.8s0.7,0.4,1,0.5S236.8,168.3,237.2,168.2L237.2,168.2z"/>
			<path class="st2" d="M174.8,224.7h-10.9c-0.4,0-0.8-0.1-1.2-0.2c-0.4-0.1-0.7-0.4-1-0.6s-0.5-0.6-0.6-0.9
				c-0.1-0.4-0.2-0.8-0.2-1.2V121.4c0-0.4,0.1-0.8,0.2-1.1s0.3-0.6,0.6-0.9c0.2-0.2,0.5-0.5,0.9-0.6s0.7-0.2,1.1-0.2h25.6
				c1.6,0,3.3,0.3,4.8,0.8c1.5,0.5,2.9,1.2,4.2,2.1c1.3,0.9,2.4,2,3.4,3.3c1,1.3,1.8,2.7,2.3,4.2l3.4,9.4l3.4,9.4l3.4,9.4l3.4,9.4
				c0.5,1.4,0.8,2.8,1,4.2c0.2,1.4,0.3,2.9,0.2,4.3s-0.3,2.8-0.6,4.2c-0.4,1.4-0.9,2.8-1.5,4.1c-0.6,1.3-1.4,2.5-2.2,3.7
				s-1.8,2.2-2.9,3.1c-1,0.9-2.2,1.8-3.4,2.5s-2.5,1.3-3.9,1.8l0-0.1l0-0.1l0-0.1l0-0.1l0,0.1l0,0.1l0,0.1l0,0.1
				c-3.2,1.1-6.1,2.5-8.8,4.2s-5.2,3.8-7.4,6.1s-4.2,5-5.9,8s-3.2,6.3-4.4,9.9c-0.1,0.3-0.2,0.6-0.4,0.8s-0.4,0.5-0.7,0.6
				s-0.5,0.3-0.8,0.4S175.1,224.7,174.8,224.7L174.8,224.7z M163.7,119c-0.3,0-0.6,0.1-0.9,0.2c-0.3,0.1-0.5,0.3-0.8,0.5
				c-0.2,0.2-0.4,0.5-0.5,0.8s-0.2,0.6-0.2,0.9v100.3c0,0.4,0.1,0.7,0.2,1s0.3,0.6,0.6,0.8s0.5,0.4,0.8,0.6c0.3,0.1,0.6,0.2,1,0.2
				h10.9c0.3,0,0.5,0,0.8-0.1c0.2-0.1,0.5-0.2,0.7-0.4c0.2-0.2,0.4-0.3,0.6-0.6s0.3-0.5,0.4-0.7c1.2-3.6,2.7-6.9,4.5-9.9
				s3.7-5.7,6-8.1c2.2-2.4,4.7-4.4,7.5-6.2s5.7-3.1,8.9-4.2l0,0c1.3-0.5,2.6-1,3.8-1.7c1.2-0.7,2.3-1.5,3.4-2.4c1-0.9,2-1.9,2.8-3
				c0.8-1.1,1.6-2.3,2.2-3.6c0.6-1.3,1.1-2.6,1.5-4s0.6-2.8,0.6-4.1c0.1-1.4,0-2.8-0.2-4.2s-0.5-2.8-1-4.1l-3.4-9.4l-3.4-9.4
				l-3.4-9.4l-3.4-9.4c-0.5-1.5-1.3-2.9-2.2-4.1c-0.9-1.2-2.1-2.3-3.3-3.2c-1.3-0.9-2.6-1.6-4.1-2.1s-3-0.7-4.6-0.7L163.7,119
				L163.7,119z"/>
			<path class="st2" d="M169.1,187.4L169.1,187.4c0.2,0,0.5-0.1,0.7-0.1s0.4-0.2,0.5-0.4s0.3-0.3,0.4-0.5s0.1-0.4,0.1-0.7v-9.2
				c0-0.2,0-0.5-0.1-0.7s-0.2-0.4-0.4-0.5s-0.3-0.3-0.5-0.4s-0.4-0.1-0.7-0.1l0,0c-0.2,0-0.5,0.1-0.7,0.1c-0.2,0.1-0.4,0.2-0.5,0.4
				s-0.3,0.3-0.4,0.5s-0.1,0.4-0.1,0.7v9.2c0,0.2,0,0.5,0.1,0.7s0.2,0.4,0.4,0.5s0.3,0.3,0.5,0.4
				C168.7,187.4,168.9,187.4,169.1,187.4z"/>
			<path class="st8" d="M168.3,168.2h39.3c0.5,0,0.9-0.1,1.2-0.3c0.4-0.2,0.7-0.5,0.9-0.8c0.2-0.3,0.4-0.7,0.5-1.1
				c0.1-0.4,0-0.8-0.1-1.3l-2.8-8.4l-2.8-8.4l-2.8-8.4l-2.8-8.4c-0.3-1-0.8-1.9-1.4-2.7c-0.6-0.8-1.3-1.5-2.2-2.1
				c-0.8-0.6-1.7-1.1-2.7-1.4s-2-0.5-3-0.5h-21.8c-0.3,0-0.5,0.1-0.7,0.2c-0.2,0.1-0.4,0.2-0.6,0.4c-0.2,0.2-0.3,0.4-0.4,0.6
				c-0.1,0.2-0.1,0.5-0.1,0.7v39.1c0,0.4,0.1,0.7,0.2,1c0.1,0.3,0.3,0.6,0.6,0.8s0.5,0.4,0.8,0.6
				C167.6,168.2,167.9,168.3,168.3,168.2L168.3,168.2z"/>
			<path class="st2" d="M206.6,163.4h16.7c0.4,0,0.8,0.1,1.2,0.2c0.4,0.2,0.7,0.4,1,0.7s0.5,0.6,0.7,1s0.2,0.8,0.2,1.2v4.2h2.9
				c0.1,0,0.2,0,0.3,0.1s0.2,0.1,0.3,0.2c0.1,0.1,0.1,0.2,0.2,0.3c0,0.1,0.1,0.2,0.1,0.3v2c0,0.1,0,0.2-0.1,0.3s-0.1,0.2-0.2,0.3
				s-0.2,0.1-0.3,0.2s-0.2,0.1-0.3,0.1h-3c-0.1,0.3-0.2,0.6-0.4,0.9c-0.2,0.3-0.4,0.5-0.7,0.7s-0.5,0.4-0.9,0.5s-0.6,0.2-1,0.2
				h-16.7c-0.4,0-0.8-0.1-1.2-0.2c-0.4-0.2-0.7-0.4-1-0.7s-0.5-0.6-0.7-1s-0.2-0.8-0.2-1.2v-7.1c0-0.4,0.1-0.8,0.2-1.2
				s0.4-0.7,0.7-1s0.6-0.5,1-0.7C205.8,163.5,206.2,163.4,206.6,163.4L206.6,163.4z"/>
			<path class="st7" d="M207.3,175.7c-0.1,0-0.2-0.1-0.4-0.2s-0.2-0.1-0.4-0.2c-0.1-0.1-0.2-0.2-0.3-0.3s-0.2-0.2-0.3-0.3
				c0-0.1-0.1-0.1-0.1-0.2c0-0.1,0-0.1-0.1-0.2c0-0.1,0-0.1,0-0.2c0-0.1,0-0.1,0-0.2s0-0.1,0-0.2c0-0.1,0-0.1,0-0.2s0-0.1,0-0.2
				c0-0.1,0-0.1,0-0.2v-6.5c0,0,0-0.1,0-0.1c0,0,0-0.1,0-0.1s0-0.1,0-0.1s0-0.1,0-0.1c0-0.1,0-0.1,0-0.2s0-0.1,0-0.2s0-0.1,0.1-0.2
				s0-0.1,0.1-0.2c0.1-0.1,0.2-0.2,0.3-0.3c0.1-0.1,0.2-0.2,0.3-0.3s0.2-0.2,0.3-0.2s0.2-0.1,0.4-0.2c-0.1,0.1-0.1,0.2-0.2,0.3
				s-0.1,0.2-0.2,0.3c0,0.1-0.1,0.2-0.1,0.3s0,0.2-0.1,0.3c0,0.1,0,0.1-0.1,0.1c0,0.1,0,0.1,0,0.2c0,0.1,0,0.1,0,0.2s0,0.1,0,0.2
				c0,0,0,0.1,0,0.1s0,0.1,0,0.1s0,0.1,0,0.1s0,0.1,0,0.1v6.5c0,0.1,0,0.1,0,0.2s0,0.1,0,0.2s0,0.1,0,0.2c0,0.1,0,0.1,0,0.2
				c0,0.1,0,0.1,0,0.2s0,0.1,0,0.2c0,0.1,0,0.1,0,0.1c0,0.1,0,0.1,0.1,0.1c0,0.1,0,0.2,0.1,0.3c0,0.1,0.1,0.2,0.1,0.3
				s0.1,0.2,0.2,0.3C207.1,175.5,207.2,175.6,207.3,175.7L207.3,175.7z"/>
			<path class="st6" d="M281.3,195.1h-16.5c-0.1,0-0.2,0-0.2-0.1s-0.1-0.1-0.2-0.1s-0.1-0.1-0.1-0.2s0-0.1,0-0.2s0-0.2,0-0.2
				c0-0.1,0.1-0.1,0.1-0.2s0.1-0.1,0.2-0.1s0.1-0.1,0.2-0.1h65.9c0.1,0,0.2,0,0.2,0.1s0.1,0.1,0.2,0.1s0.1,0.1,0.1,0.2s0,0.1,0,0.2
				s0,0.2,0,0.2s-0.1,0.1-0.1,0.2s-0.1,0.1-0.2,0.1s-0.1,0.1-0.2,0.1h-32.9"/>
			<path class="st6" d="M158.9,243.4H173c0.5,0,1.1-0.1,1.5-0.3s0.9-0.5,1.3-0.9c0.4-0.4,0.6-0.8,0.9-1.3s0.3-1,0.3-1.5v-4.2h-22
				v4.2c0,0.6,0.1,1.1,0.3,1.5c0.2,0.5,0.5,0.9,0.9,1.3c0.4,0.4,0.8,0.6,1.3,0.9C157.8,243.3,158.4,243.4,158.9,243.4L158.9,243.4z"
				/>
			<path class="st2" d="M211.9,179.7c0,0.2,0,0.4,0.1,0.5s0.2,0.3,0.3,0.4s0.3,0.2,0.4,0.3c0.2,0.1,0.3,0.1,0.5,0.1s0.4,0,0.5-0.1
				c0.2-0.1,0.3-0.2,0.4-0.3s0.2-0.3,0.3-0.4c0.1-0.2,0.1-0.3,0.1-0.5s0-0.4-0.1-0.5c-0.1-0.2-0.2-0.3-0.3-0.4s-0.3-0.2-0.4-0.3
				s-0.3-0.1-0.5-0.1s-0.4,0-0.5,0.1c-0.2,0.1-0.3,0.2-0.4,0.3c-0.1,0.1-0.2,0.3-0.3,0.4S211.9,179.5,211.9,179.7z"/>
			<path class="st2" d="M210.5,184.2c0,0.2,0,0.4,0.1,0.5s0.2,0.3,0.3,0.4s0.3,0.2,0.4,0.3c0.2,0.1,0.3,0.1,0.5,0.1s0.4,0,0.5-0.1
				c0.2-0.1,0.3-0.2,0.4-0.3s0.2-0.3,0.3-0.4c0.1-0.2,0.1-0.3,0.1-0.5s0-0.4-0.1-0.5c-0.1-0.2-0.2-0.3-0.3-0.4s-0.3-0.2-0.4-0.3
				s-0.3-0.1-0.5-0.1s-0.4,0-0.5,0.1s-0.3,0.2-0.4,0.3c-0.1,0.1-0.2,0.3-0.3,0.4S210.5,184,210.5,184.2z"/>
			<path class="st7" d="M321.5,219.6h13.2c0.2,0,0.4,0,0.6-0.1s0.4-0.2,0.5-0.3s0.3-0.3,0.3-0.5s0.1-0.4,0.1-0.6v-9.2
				c0-0.2,0-0.4-0.1-0.6s-0.2-0.4-0.3-0.5c-0.1-0.1-0.3-0.3-0.5-0.3s-0.4-0.1-0.6-0.1h-13.2c-0.2,0-0.4,0-0.6,0.1s-0.4,0.2-0.5,0.3
				s-0.3,0.3-0.3,0.5s-0.1,0.4-0.1,0.6v9.2c0,0.2,0,0.4,0.1,0.6s0.2,0.4,0.3,0.5s0.3,0.3,0.5,0.3S321.2,219.6,321.5,219.6
				L321.5,219.6z"/>
			<path class="st9" d="M323,217.9h10.5c0.1,0,0.2,0,0.3-0.1c0.1,0,0.2-0.1,0.3-0.2s0.1-0.2,0.2-0.3c0-0.1,0.1-0.2,0.1-0.3v-7.3
				c0-0.1,0-0.2-0.1-0.3c0-0.1-0.1-0.2-0.2-0.3s-0.2-0.1-0.3-0.2c-0.1,0-0.2-0.1-0.3-0.1H323c-0.1,0-0.2,0-0.3,0.1
				c-0.1,0-0.2,0.1-0.3,0.2s-0.1,0.2-0.2,0.3c0,0.1-0.1,0.2-0.1,0.3v7.3c0,0.1,0,0.2,0.1,0.3c0,0.1,0.1,0.2,0.2,0.3s0.2,0.1,0.3,0.2
				C322.8,217.9,322.9,217.9,323,217.9z"/>
			<path class="st7" d="M265.9,219.6h13.2c0.2,0,0.4,0,0.6-0.1s0.4-0.2,0.5-0.3s0.3-0.3,0.3-0.5s0.1-0.4,0.1-0.6v-9.2
				c0-0.2,0-0.4-0.1-0.6s-0.2-0.4-0.3-0.5c-0.1-0.1-0.3-0.3-0.5-0.3s-0.4-0.1-0.6-0.1h-13.2c-0.2,0-0.4,0-0.6,0.1s-0.4,0.2-0.5,0.3
				s-0.3,0.3-0.3,0.5s-0.1,0.4-0.1,0.6v9.2c0,0.2,0,0.4,0.1,0.6s0.2,0.4,0.3,0.5s0.3,0.3,0.5,0.3S265.7,219.6,265.9,219.6
				L265.9,219.6z"/>
			<path class="st9" d="M267.3,217.9h10.5c0.1,0,0.2,0,0.3-0.1c0.1,0,0.2-0.1,0.3-0.2s0.1-0.2,0.2-0.3c0-0.1,0.1-0.2,0.1-0.3v-7.3
				c0-0.1,0-0.2-0.1-0.3c0-0.1-0.1-0.2-0.2-0.3s-0.2-0.1-0.3-0.2c-0.1,0-0.2-0.1-0.3-0.1h-10.5c-0.1,0-0.2,0-0.3,0.1
				c-0.1,0-0.2,0.1-0.3,0.2s-0.1,0.2-0.2,0.3c0,0.1-0.1,0.2-0.1,0.3v7.3c0,0.1,0,0.2,0.1,0.3c0,0.1,0.1,0.2,0.2,0.3s0.2,0.1,0.3,0.2
				C267,217.9,267.2,217.9,267.3,217.9z"/>
			<path class="st7" d="M251.1,219.6h4.9c0.2,0,0.4,0,0.5-0.1c0.2-0.1,0.3-0.2,0.4-0.3c0.1-0.1,0.2-0.3,0.3-0.4s0.1-0.3,0.1-0.5
				v-9.7c0-0.2,0-0.4-0.1-0.5c-0.1-0.2-0.2-0.3-0.3-0.4s-0.3-0.2-0.4-0.3c-0.2-0.1-0.3-0.1-0.5-0.1h-4.9c-0.2,0-0.4,0-0.5,0.1
				c-0.2,0.1-0.3,0.2-0.4,0.3c-0.1,0.1-0.2,0.3-0.3,0.4s-0.1,0.3-0.1,0.5v9.7c0,0.2,0,0.4,0.1,0.5c0.1,0.2,0.2,0.3,0.3,0.4
				s0.3,0.2,0.4,0.3C250.8,219.6,251,219.6,251.1,219.6z"/>
			<path class="st9" d="M251.8,217.9h3.6c0,0,0.1,0,0.1,0s0.1-0.1,0.1-0.1s0.1-0.1,0.1-0.1c0-0.1,0-0.1,0-0.1v-8.2
				c0-0.1,0-0.1,0-0.1c0-0.1,0-0.1-0.1-0.1s-0.1-0.1-0.1-0.1c0,0-0.1,0-0.1,0h-3.6c0,0-0.1,0-0.1,0s-0.1,0.1-0.1,0.1
				s-0.1,0.1-0.1,0.1c0,0.1,0,0.1,0,0.1v8.2c0,0.1,0,0.1,0,0.1c0,0.1,0,0.1,0.1,0.1s0.1,0.1,0.1,0.1
				C251.7,217.9,251.7,217.9,251.8,217.9z"/>
			<path class="st2" d="M215.1,213.2c4.2,0,8.2,0.9,11.8,2.4c3.6,1.5,6.9,3.8,9.6,6.5s5,6,6.5,9.6s2.4,7.6,2.4,11.8
				s-0.9,8.2-2.4,11.8c-1.5,3.6-3.8,6.9-6.5,9.6s-6,5-9.6,6.5c-3.6,1.5-7.6,2.4-11.8,2.4l0,0l-1.7,0h-5.2v-60.6L215.1,213.2
				L215.1,213.2z"/>
			<path class="st6" d="M178.7,243.5c0,4.2,0.9,8.2,2.4,11.8c1.5,3.6,3.8,6.9,6.5,9.6s6,5,9.6,6.5c3.6,1.5,7.6,2.4,11.8,2.4
				s8.2-0.9,11.8-2.4c3.6-1.5,6.9-3.8,9.6-6.5s5-6,6.5-9.6c1.5-3.6,2.4-7.6,2.4-11.8s-0.9-8.2-2.4-11.8s-3.8-6.9-6.5-9.6
				s-6-5-9.6-6.5c-3.6-1.5-7.6-2.4-11.8-2.4s-8.2,0.9-11.8,2.4c-3.6,1.5-6.9,3.8-9.6,6.5s-5,6-6.5,9.6
				C179.5,235.4,178.7,239.4,178.7,243.5z"/>
			<path class="st9" d="M196,243.5c0,1.8,0.4,3.5,1,5c0.6,1.6,1.6,2.9,2.8,4.1c1.2,1.2,2.6,2.1,4.1,2.8c1.5,0.6,3.2,1,5,1
				s3.5-0.4,5-1c1.5-0.6,2.9-1.6,4.1-2.8s2.1-2.6,2.8-4.1s1-3.2,1-5s-0.4-3.5-1-5c-0.6-1.6-1.6-2.9-2.8-4.1s-2.6-2.1-4.1-2.8
				c-1.5-0.6-3.2-1-5-1s-3.5,0.4-5,1c-1.5,0.6-2.9,1.6-4.1,2.8s-2.1,2.6-2.8,4.1S196,241.8,196,243.5z"/>
			<path class="st2" d="M206.9,234c0,0.3,0.1,0.6,0.2,0.8s0.2,0.5,0.4,0.6c0.2,0.2,0.4,0.3,0.6,0.4s0.5,0.2,0.8,0.2s0.5-0.1,0.8-0.2
				c0.2-0.1,0.5-0.2,0.6-0.4s0.3-0.4,0.4-0.6s0.2-0.5,0.2-0.8s-0.1-0.6-0.2-0.8s-0.2-0.5-0.4-0.6c-0.2-0.2-0.4-0.3-0.6-0.4
				c-0.2-0.1-0.5-0.2-0.8-0.2s-0.5,0.1-0.8,0.2s-0.5,0.2-0.6,0.4c-0.2,0.2-0.3,0.4-0.4,0.6S206.9,233.8,206.9,234z"/>
			<path class="st2" d="M206.9,253c0,0.3,0.1,0.6,0.2,0.8s0.2,0.5,0.4,0.6c0.2,0.2,0.4,0.3,0.6,0.4s0.5,0.2,0.8,0.2s0.5-0.1,0.8-0.2
				c0.2-0.1,0.5-0.2,0.6-0.4s0.3-0.4,0.4-0.6s0.2-0.5,0.2-0.8s-0.1-0.6-0.2-0.8s-0.2-0.5-0.4-0.6s-0.4-0.3-0.6-0.4
				c-0.2-0.1-0.5-0.2-0.8-0.2s-0.5,0.1-0.8,0.2s-0.5,0.2-0.6,0.4c-0.2,0.2-0.3,0.4-0.4,0.6S206.9,252.8,206.9,253z"/>
			<path class="st2" d="M200.8,238.3c0.2,0.2,0.4,0.4,0.7,0.4c0.2,0.1,0.5,0.1,0.8,0.1s0.5-0.1,0.8-0.1s0.5-0.2,0.7-0.4
				s0.4-0.4,0.5-0.7s0.1-0.5,0.1-0.8s0-0.5-0.1-0.8c-0.1-0.2-0.2-0.5-0.5-0.7s-0.4-0.4-0.7-0.4c-0.2-0.1-0.5-0.1-0.8-0.1
				s-0.5,0.1-0.8,0.1c-0.2,0.1-0.5,0.2-0.7,0.4s-0.4,0.4-0.5,0.7s-0.1,0.5-0.1,0.8s0,0.5,0.1,0.8
				C200.5,237.8,200.6,238.1,200.8,238.3z"/>
			<path class="st2" d="M214.2,251.7c0.2,0.2,0.4,0.4,0.7,0.4c0.2,0.1,0.5,0.1,0.8,0.1s0.5-0.1,0.8-0.1c0.2-0.1,0.5-0.2,0.7-0.4
				s0.4-0.4,0.5-0.7s0.1-0.5,0.1-0.8s0-0.5-0.1-0.8c-0.1-0.2-0.2-0.5-0.5-0.7s-0.4-0.4-0.7-0.4c-0.2-0.1-0.5-0.1-0.8-0.1
				s-0.5,0.1-0.8,0.1c-0.2,0.1-0.5,0.2-0.7,0.4s-0.4,0.4-0.5,0.7s-0.1,0.5-0.1,0.8s0,0.5,0.1,0.8S214,251.5,214.2,251.7z"/>
			<path class="st2" d="M199.5,245.6c0.3,0,0.5-0.1,0.8-0.2s0.5-0.2,0.6-0.4s0.3-0.4,0.4-0.6s0.2-0.5,0.2-0.8s-0.1-0.6-0.2-0.8
				s-0.2-0.5-0.4-0.6c-0.2-0.2-0.4-0.3-0.6-0.4s-0.5-0.2-0.8-0.2s-0.5,0.1-0.8,0.2s-0.5,0.2-0.6,0.4s-0.3,0.4-0.4,0.6
				s-0.2,0.5-0.2,0.8s0.1,0.6,0.2,0.8s0.2,0.5,0.4,0.6c0.2,0.2,0.4,0.3,0.6,0.4S199.2,245.6,199.5,245.6z"/>
			<path class="st2" d="M218.5,245.6c0.3,0,0.5-0.1,0.8-0.2c0.2-0.1,0.5-0.2,0.6-0.4c0.2-0.2,0.3-0.4,0.4-0.6s0.2-0.5,0.2-0.8
				s-0.1-0.6-0.2-0.8s-0.2-0.5-0.4-0.6c-0.2-0.2-0.4-0.3-0.6-0.4c-0.2-0.1-0.5-0.2-0.8-0.2s-0.5,0.1-0.8,0.2s-0.5,0.2-0.6,0.4
				c-0.2,0.2-0.3,0.4-0.4,0.6s-0.2,0.5-0.2,0.8s0.1,0.6,0.2,0.8s0.2,0.5,0.4,0.6c0.2,0.2,0.4,0.3,0.6,0.4S218.2,245.6,218.5,245.6z"
				/>
			<path class="st2" d="M203.7,251.7c0.2-0.2,0.4-0.4,0.5-0.7s0.1-0.5,0.1-0.8s0-0.5-0.1-0.8c-0.1-0.2-0.2-0.5-0.5-0.7
				s-0.4-0.4-0.7-0.4s-0.5-0.1-0.8-0.1s-0.5,0.1-0.8,0.1c-0.2,0.1-0.5,0.2-0.7,0.4s-0.4,0.4-0.5,0.7s-0.1,0.5-0.1,0.8s0,0.5,0.1,0.8
				s0.2,0.5,0.5,0.7s0.4,0.4,0.7,0.4c0.2,0.1,0.5,0.1,0.8,0.1s0.5-0.1,0.8-0.1S203.5,251.9,203.7,251.7z"/>
			<path class="st2" d="M217.1,238.3c0.2-0.2,0.4-0.4,0.5-0.7s0.1-0.5,0.1-0.8s0-0.5-0.1-0.8c-0.1-0.2-0.2-0.5-0.5-0.7
				s-0.4-0.4-0.7-0.4c-0.2-0.1-0.5-0.1-0.8-0.1s-0.5,0.1-0.8,0.1c-0.2,0.1-0.5,0.2-0.7,0.4s-0.4,0.4-0.5,0.7s-0.1,0.5-0.1,0.8
				s0,0.5,0.1,0.8c0.1,0.2,0.2,0.5,0.5,0.7s0.4,0.4,0.7,0.4c0.2,0.1,0.5,0.1,0.8,0.1s0.5-0.1,0.8-0.1
				C216.7,238.6,216.9,238.5,217.1,238.3z"/>
			<path class="st2" d="M154.9,235.1c-0.1,0-0.3,0-0.4-0.1c-0.1-0.1-0.2-0.1-0.3-0.3s-0.2-0.2-0.2-0.4s-0.1-0.3-0.1-0.5V92.7
				c0-0.2,0-0.3,0.1-0.5s0.1-0.3,0.2-0.4s0.2-0.2,0.3-0.3c0.1-0.1,0.3-0.1,0.4-0.1s0.3,0,0.4,0.1c0.1,0.1,0.2,0.2,0.3,0.3
				s0.2,0.2,0.2,0.4c0,0.2,0.1,0.3,0.1,0.5v141.1c0,0.2,0,0.3-0.1,0.5s-0.1,0.3-0.2,0.4s-0.2,0.2-0.3,0.3S155.1,235.1,154.9,235.1
				L154.9,235.1z"/>
			<path class="st9" d="M178.1,245.6c0.4,0,0.8-0.1,1.1-0.2c0.3-0.1,0.6-0.4,0.9-0.6s0.5-0.6,0.6-0.9s0.2-0.7,0.2-1.1
				c0-4,0.8-7.9,2.3-11.4c1.5-3.5,3.6-6.7,6.3-9.3s5.8-4.8,9.3-6.3s7.4-2.3,11.4-2.3s7.9,0.8,11.4,2.3s6.7,3.6,9.3,6.3
				s4.8,5.8,6.3,9.3s2.3,7.4,2.3,11.4c0,0.4,0.1,0.8,0.2,1.1s0.4,0.6,0.6,0.9s0.6,0.5,0.9,0.6c0.3,0.1,0.7,0.2,1.1,0.2
				s0.8-0.1,1.1-0.2c0.3-0.1,0.6-0.4,0.9-0.6s0.5-0.6,0.6-0.9c0.1-0.3,0.2-0.7,0.2-1.1c0-4.8-1-9.4-2.7-13.6
				c-1.8-4.2-4.3-7.9-7.5-11.1s-6.9-5.7-11.1-7.5c-4.2-1.8-8.8-2.8-13.6-2.8s-9.4,1-13.6,2.8c-4.2,1.8-7.9,4.3-11.1,7.5
				c-3.2,3.2-5.7,6.9-7.5,11.1c-1.8,4.2-2.7,8.8-2.7,13.6c0,0.4,0.1,0.8,0.2,1.1c0.1,0.3,0.4,0.6,0.6,0.9s0.6,0.5,0.9,0.6
				C177.4,245.5,177.7,245.6,178.1,245.6L178.1,245.6z"/>
		</g>
	</g>
	<path class="st10" d="M148,334.9h-5.7v-21.4h12.7v4.6h-7v4.1h6.4v4.6H148L148,334.9L148,334.9z"/>
	<path class="st10" d="M158.4,313.5h7.5c2.9,0,5.1,0.4,6.5,1.3c1.4,0.9,2.1,2.2,2.1,4c0,1.2-0.3,2.2-0.9,3.1s-1.4,1.4-2.4,1.6v0.1
		c1.3,0.4,2.3,0.9,2.9,1.8s0.9,1.9,0.9,3.2c0,1.9-0.7,3.5-2.2,4.6s-3.5,1.7-6,1.7h-8.3L158.4,313.5L158.4,313.5z M164.1,321.7h1.7
		c0.8,0,1.5-0.2,1.9-0.5s0.7-0.9,0.7-1.5c0-1.2-0.9-1.8-2.7-1.8h-1.6L164.1,321.7L164.1,321.7z M164.1,325.9v4.5h2
		c1.8,0,2.7-0.8,2.7-2.3c0-0.7-0.2-1.3-0.7-1.6s-1.2-0.6-2.1-0.6L164.1,325.9L164.1,325.9z"/>
	<path class="st10" d="M191.6,334.9l-1-4h-7l-1.1,4h-6.4l7-21.5h7.7l7.1,21.5H191.6L191.6,334.9z M189.4,326.1l-0.9-3.5
		c-0.2-0.8-0.5-1.8-0.8-3s-0.5-2.1-0.6-2.7c-0.1,0.5-0.3,1.3-0.5,2.5s-0.8,3.4-1.7,6.8L189.4,326.1L189.4,326.1z"/>
</g>
<g>
	<path class="st11" d="M94.9,174.8c-4.9,3.6-12,5.5-18.2,5.5c-8.6,0-16.3-3.2-22.2-8.5c-0.5-0.4,0-1,0.5-0.7
		c6.3,3.7,14.1,5.9,22.2,5.9c5.4,0,11.4-1.1,16.9-3.5C95,173.3,95.7,174.2,94.9,174.8L94.9,174.8z"/>
	<path class="st11" d="M97,172.5c-0.6-0.8-4.2-0.4-5.7-0.2c-0.5,0.1-0.6-0.4-0.1-0.7c2.8-2,7.4-1.4,7.9-0.7c0.5,0.7-0.1,5.3-2.8,7.5
		c-0.4,0.3-0.8,0.2-0.6-0.3C96.3,176.6,97.6,173.3,97,172.5L97,172.5z"/>
	<path class="st11" d="M91.3,157.7v-1.9c0-0.3,0.2-0.5,0.5-0.5l8.6,0c0.3,0,0.5,0.2,0.5,0.5v1.6c0,0.3-0.2,0.6-0.6,1.2l-4.5,6.4
		c1.7,0,3.4,0.2,4.9,1.1c0.3,0.2,0.4,0.5,0.5,0.7v2c0,0.3-0.3,0.6-0.6,0.4c-2.6-1.4-6.2-1.5-9.1,0c-0.3,0.2-0.6-0.2-0.6-0.4v-1.9
		c0-0.3,0-0.8,0.3-1.3l5.2-7.4l-4.5,0C91.6,158.2,91.3,158,91.3,157.7L91.3,157.7z"/>
	<path class="st11" d="M60,169.7h-2.6c-0.2,0-0.4-0.2-0.5-0.4l0-13.4c0-0.3,0.2-0.5,0.5-0.5l2.4,0c0.3,0,0.5,0.2,0.5,0.5v1.8h0
		c0.6-1.7,1.8-2.5,3.4-2.5c1.6,0,2.7,0.8,3.4,2.5c0.6-1.7,2.1-2.5,3.6-2.5c1.1,0,2.3,0.5,3,1.5c0.8,1.1,0.7,2.8,0.7,4.2l0,8.5
		c0,0.3-0.2,0.5-0.5,0.5h-2.6c-0.3,0-0.5-0.2-0.5-0.5l0-7.1c0-0.6,0-2-0.1-2.5c-0.2-0.9-0.8-1.2-1.5-1.2c-0.6,0-1.3,0.4-1.6,1.1
		c-0.3,0.7-0.2,1.8-0.2,2.6v7.1c0,0.3-0.2,0.5-0.5,0.5h-2.6c-0.3,0-0.5-0.2-0.5-0.5l0-7.1c0-1.5,0.2-3.7-1.6-3.7
		c-1.9,0-1.8,2.1-1.8,3.7l0,7.1C60.5,169.4,60.3,169.7,60,169.7L60,169.7z"/>
	<path class="st11" d="M108.3,157.8c-1.9,0-2.1,2.6-2.1,4.3c0,1.6,0,5.1,2,5.1c2,0,2.1-2.8,2.1-4.5c0-1.1,0-2.5-0.4-3.6
		C109.8,158.1,109.2,157.8,108.3,157.8L108.3,157.8z M108.3,155c3.9,0,6,3.3,6,7.6c0,4.1-2.3,7.3-6,7.3c-3.8,0-5.9-3.3-5.9-7.5
		C102.4,158.3,104.5,155,108.3,155L108.3,155z"/>
	<path class="st11" d="M119.3,169.7h-2.6c-0.3,0-0.5-0.2-0.5-0.5l0-13.4c0-0.2,0.2-0.4,0.5-0.4l2.4,0c0.2,0,0.4,0.2,0.5,0.4v2.1h0
		c0.7-1.8,1.8-2.7,3.6-2.7c1.2,0,2.3,0.4,3.1,1.6c0.7,1.1,0.7,2.9,0.7,4.2v8.4c0,0.2-0.2,0.4-0.5,0.4h-2.6c-0.2,0-0.4-0.2-0.5-0.4
		v-7.3c0-1.5,0.2-3.6-1.6-3.6c-0.6,0-1.2,0.4-1.5,1.1c-0.4,0.8-0.4,1.6-0.4,2.5v7.2C119.8,169.4,119.6,169.7,119.3,169.7
		L119.3,169.7z"/>
	<path class="st11" d="M87.1,169.6c-0.2,0.2-0.4,0.2-0.6,0.1c-0.9-0.7-1-1.1-1.5-1.7c-1.4,1.5-2.5,1.9-4.3,1.9
		c-2.2,0-3.9-1.4-3.9-4.1c0-2.1,1.1-3.6,2.8-4.3c1.4-0.6,3.4-0.7,4.9-0.9v-0.3c0-0.6,0-1.4-0.3-1.9c-0.3-0.5-0.9-0.7-1.5-0.7
		c-1,0-1.9,0.5-2.1,1.6c0,0.2-0.2,0.5-0.5,0.5l-2.5-0.3c-0.2,0-0.5-0.2-0.4-0.5c0.6-3,3.3-4,5.7-4h0.2c1.3,0,2.9,0.4,3.8,1.3
		c1.3,1.2,1.1,2.8,1.1,4.5v4.1c0,1.2,0.5,1.8,1,2.4c0.2,0.2,0.2,0.5,0,0.7C88.6,168.3,87.7,169.2,87.1,169.6L87.1,169.6L87.1,169.6z
		 M84.5,163.2c0,1,0,1.9-0.5,2.8c-0.4,0.7-1.1,1.2-1.8,1.2c-1,0-1.6-0.8-1.6-1.9c0-2.2,2-2.6,3.9-2.6V163.2L84.5,163.2z"/>
	<path class="st11" d="M52.8,169.6c-0.2,0.2-0.4,0.2-0.6,0.1c-0.9-0.7-1-1.1-1.5-1.7c-1.4,1.5-2.5,1.9-4.3,1.9
		c-2.2,0-3.9-1.4-3.9-4.1c0-2.1,1.1-3.6,2.8-4.3c1.4-0.6,3.4-0.7,4.9-0.9v-0.3c0-0.6,0-1.4-0.3-1.9c-0.3-0.5-0.9-0.7-1.5-0.7
		c-1,0-1.9,0.5-2.1,1.6c0,0.2-0.2,0.5-0.5,0.5l-2.5-0.3c-0.2,0-0.5-0.2-0.4-0.5c0.6-3,3.3-4,5.7-4h0.2c1.3,0,2.9,0.4,3.8,1.3
		c1.3,1.2,1.1,2.8,1.1,4.5v4.1c0,1.2,0.5,1.8,1,2.4c0.2,0.2,0.2,0.5,0,0.7C54.3,168.3,53.4,169.2,52.8,169.6L52.8,169.6L52.8,169.6z
		 M50.2,163.2c0,1,0,1.9-0.5,2.8c-0.4,0.7-1.1,1.2-1.8,1.2c-1,0-1.6-0.8-1.6-1.9c0-2.2,2-2.6,3.9-2.6V163.2L50.2,163.2z"/>
	<path class="st11" d="M54.3,148.6c0,0.1-0.1,0.2-0.2,0.2h-1.1c-0.1,0-0.2-0.1-0.2-0.2c0-2.9,0-5.9,0-8.8c0-0.1,0.1-0.2,0.2-0.2h1.1
		c0.1,0,0.2,0.1,0.2,0.2C54.3,142.7,54.3,145.6,54.3,148.6L54.3,148.6z M53.6,135.8c0.5,0,0.9,0.4,0.9,1c0,0.6-0.4,1-0.9,1
		c-0.5,0-0.9-0.4-0.9-1C52.6,136.3,53.1,135.8,53.6,135.8L53.6,135.8z"/>
	<path class="st11" d="M29.9,151.3c0-0.1,0.1-0.2,0.2-0.2h0.7c0.1,0,0.2,0.1,0.2,0.2v2.7c0.4-0.1,0.7-0.2,1.1-0.2
		c1.7,0,2.8,1.1,2.8,3.2c0,2-1.5,3.3-3.2,3.3c-0.9,0-1.5-0.2-1.9-0.4C29.9,157.1,29.9,154.2,29.9,151.3L29.9,151.3z M33.8,157.1
		c0,1.9-1.6,2.6-2.7,2.1v-4C32,154.6,33.8,154.8,33.8,157.1L33.8,157.1z"/>
	<path class="st11" d="M36.2,163.1c-0.4,0.1-1,0.1-1.5-0.2c-0.1,0-0.1-0.1-0.1-0.2l0.2-0.6c0-0.1,0.1-0.1,0.2-0.1
		c1.2,0.4,1.7-0.3,2.1-1c0.1-0.3,0.2-0.6,0.3-0.8c-1.1-2.5-1.3-2.9-2.5-5.7c0-0.1-0.1-0.4,0.2-0.4l0.7,0c0.1,0,0.2,0.1,0.3,0.2
		c1.1,2.5,1.1,2.5,1.8,4.2c0.4-1.3,0.8-2.3,1.4-4.2c0-0.1,0.2-0.2,0.3-0.2h0.7c0.3,0,0.2,0.2,0.2,0.3c-0.9,2.8-1.3,3.7-2.1,6.2
		C38.1,161.7,37.5,162.9,36.2,163.1L36.2,163.1z"/>
	<path class="st11" d="M46.1,147.5l0.3,0.8c0,0.1,0,0.1,0,0.2c-0.3,0.3-0.8,0.4-1.3,0.4c-1,0-1.6-0.7-1.6-1.9c0-3.9,0-7.7,0-11.6
		c0-0.1,0.1-0.2,0.2-0.2h1.1c0.1,0,0.2,0.1,0.2,0.2c0,3.8,0,7.5,0,11.3c0,0.6,0.1,1,1,0.7C46,147.4,46.1,147.4,46.1,147.5
		L46.1,147.5z"/>
	<path class="st11" d="M59.1,147.5l0.3,0.8c0,0.1,0,0.1,0,0.2c-0.3,0.3-0.8,0.4-1.3,0.4c-1,0-1.6-0.7-1.6-1.9c0-3.9,0-7.7,0-11.6
		c0-0.1,0.1-0.2,0.2-0.2h1.1c0.1,0,0.2,0.1,0.2,0.2c0,3.8,0,7.5,0,11.3c0,0.6,0.1,1,1,0.7C59,147.4,59,147.4,59.1,147.5L59.1,147.5z
		"/>
	<path class="st11" d="M63.1,147.5l0.3,0.8c0,0.1,0,0.1,0,0.2c-0.3,0.3-0.8,0.4-1.3,0.4c-1,0-1.6-0.7-1.6-1.9c0-3.9,0-7.7,0-11.6
		c0-0.1,0.1-0.2,0.2-0.2h1.1c0.1,0,0.2,0.1,0.2,0.2c0,3.8,0,7.5,0,11.3c0,0.6,0.1,1,1,0.7C63,147.4,63.1,147.4,63.1,147.5
		L63.1,147.5z"/>
	<path class="st11" d="M100.7,147.1l0.4,0.8c0,0.1,0,0.1,0,0.2c-0.7,0.6-1.4,1-2.3,1c-1,0-1.9-0.7-1.9-2v-6.1h-1.3
		c-0.1,0-0.2-0.1-0.2-0.2v-0.9c0-0.1,0.1-0.2,0.2-0.2h1.3v-1.7c0-0.1,0.1-0.2,0.2-0.3l0.8-0.3c0.2-0.1,0.4,0,0.4,0.2v2h2.3
		c0.3,0,0.3,0.2,0.2,0.4l-0.3,0.7c0,0.1-0.2,0.2-0.3,0.2h-1.9v5.9c0,0.6,0.3,1.1,1.7,0.4l0.4-0.2C100.6,147,100.7,147,100.7,147.1
		L100.7,147.1z"/>
	<path class="st11" d="M85,147.1l0.4,0.7c0.1,0.2-0.1,0.4-0.2,0.4c-0.8,0.6-2,0.8-2.9,0.8c-2.3-0.1-4-2-4-4.7c0-2.8,1.3-4.9,3.7-4.9
		c3.5,0,3.6,3.9,3.6,4.4c0,0.1,0.2,0.7-0.4,0.7c-0.2,0-3.9,0-5.2,0c0.1,2.2,1.5,3.1,2.7,3.1c0.9,0,1.3-0.2,2.1-0.6
		C84.9,147,85,147,85,147.1L85,147.1z M80,143.2h4c0-1.5-1-2.5-2-2.5C81,140.7,80,141.8,80,143.2L80,143.2z"/>
	<path class="st11" d="M49.3,148.6c0,0.1-0.1,0.2-0.2,0.2H48c-0.1,0-0.2-0.1-0.2-0.2c0-2.6,0-5.1,0-7.7H47c-0.1,0-0.2-0.1-0.2-0.2
		v-0.9c0-0.1,0.1-0.2,0.2-0.2h0.9v-1.3c0-2,1-2.9,2.5-3.1c0.6,0,1,0.1,1.3,0.3c0.1,0,0.2,0.1,0.1,0.3l-0.2,0.8
		c0,0.1-0.1,0.2-0.3,0.1c-0.7-0.3-1.3-0.2-1.6,0.2c-0.2,0.2-0.3,0.6-0.3,1.1v1.6h1.9c0.3,0,0.3,0.2,0.2,0.4l-0.3,0.7
		c0,0.1-0.2,0.2-0.3,0.2h-1.6C49.3,143.4,49.3,146,49.3,148.6L49.3,148.6z"/>
	<path class="st11" d="M31.5,148.6c0,0.1-0.1,0.2-0.2,0.2h-1.1c-0.1,0-0.2-0.1-0.2-0.2c0-2.6,0-5.1,0-7.7h-0.9
		c-0.1,0-0.2-0.1-0.2-0.2v-0.9c0-0.1,0.1-0.2,0.2-0.2h0.9v-1.3c0-2,1-2.9,2.5-3.1c0.6,0,1,0.1,1.3,0.3c0.1,0,0.2,0.1,0.1,0.3
		l-0.2,0.8c0,0.1-0.1,0.2-0.3,0.1c-0.7-0.3-1.3-0.2-1.6,0.2c-0.2,0.2-0.3,0.6-0.3,1.1v1.6h1.9c0.3,0,0.3,0.2,0.2,0.4l-0.3,0.7
		c0,0.1-0.2,0.2-0.3,0.2h-1.6C31.5,143.4,31.5,146,31.5,148.6L31.5,148.6z"/>
	<path class="st11" d="M41.5,146.1c0,0.6,0.1,1.9,0.2,2.3c0,0.1,0,0.3-0.3,0.3h-0.9c-0.1,0-0.2-0.1-0.2-0.2l-0.2-0.6
		c-0.7,0.5-1.7,1-2.8,1c-1.5,0-2.6-1-2.6-3c0-2.1,0-4.1,0-6.2c0-0.1,0.1-0.2,0.2-0.2h1.1c0.1,0,0.2,0.1,0.2,0.2c0,2,0,3.9,0,5.9
		c0,1.5,0.5,1.9,1.5,1.9c0.8,0,2.1-0.7,2.4-1.3c0-2.2,0-4.3,0-6.5c0-0.1,0.1-0.2,0.2-0.2h1.1c0.1,0,0.2,0.1,0.2,0.2
		C41.5,141.9,41.5,144,41.5,146.1L41.5,146.1z"/>
	<path class="st11" d="M87.2,139.8c0-0.2,0.1-0.3,0.3-0.3h0.8c0.1,0,0.2,0,0.3,0.2l0.1,0.7c0.9-0.6,1.8-1.1,2.9-1.1
		c1.6,0,2.7,1.1,2.7,3.3c0,2,0,3.9,0,5.9c0,0.1-0.1,0.2-0.2,0.2H93c-0.1,0-0.2-0.1-0.2-0.2c0-1.9,0-3.7,0-5.6c0-1.6-0.6-2.2-1.5-2.2
		c-0.7,0-1.7,0.5-2.7,1.4c0,2.1,0,4.3,0,6.4c0,0.1-0.1,0.2-0.2,0.2h-1.1c-0.1,0-0.2-0.1-0.2-0.2C87.2,145.6,87.2,142.7,87.2,139.8
		L87.2,139.8z"/>
	<path class="st11" d="M64.5,139.8c0-0.2,0.2-0.3,0.3-0.3h0.6c0.2,0,0.3,0,0.4,0.3l0.1,0.6c0.9-0.6,1.8-1.1,2.9-1.1
		c1,0,1.8,0.5,2.3,1.4c0.9-0.7,2-1.4,3.2-1.4c1.6,0,2.7,1.1,2.7,3.3c0,2,0,3.9,0,5.9c0,0.1-0.1,0.2-0.2,0.2h-1.1
		c-0.1,0-0.2-0.1-0.2-0.2c0-1.9,0-3.7,0-5.6c0-1.6-0.5-2.2-1.3-2.2c-0.7,0-1.7,0.5-2.7,1.4c0,0.2,0,0.3,0,0.5c0,2,0,3.9,0,5.9
		c0,0.1-0.1,0.2-0.2,0.2h-1.1c-0.1,0-0.2-0.1-0.2-0.2c0-1.9,0-3.7,0-5.6c0-1.6-0.6-2.2-1.4-2.2c-0.7,0-1.7,0.4-2.7,1.4
		c0,2.1,0,4.3,0,6.4c0,0.1-0.1,0.2-0.2,0.2h-1.1c-0.1,0-0.2-0.1-0.2-0.2C64.5,145.6,64.5,142.7,64.5,139.8L64.5,139.8z"/>
</g>
</svg>
