<?xml version="1.0" encoding="utf-8"?>
<!-- Generator: Adobe Illustrator 27.4.0, SVG Export Plug-In . SVG Version: 6.00 Build 0)  -->
<svg version="1.1" id="Layer_2_00000057132968168879388550000015167010971738794124_"
	 xmlns="http://www.w3.org/2000/svg" xmlns:xlink="http://www.w3.org/1999/xlink" x="0px" y="0px" viewBox="0 0 242.3 334.9"
	 style="enable-background:new 0 0 242.3 334.9;" xml:space="preserve">
<style type="text/css">
	.st0{fill:#E0EAF0;}
	.st1{fill:#EFC887;}
	.st2{fill:#EFB673;}
	.st3{fill:#E3A051;}
	.st4{fill:#FFFFFF;}
	.st5{fill:#ECF1F7;}
	.st6{fill:#CFE3F2;}
	.st7{fill:#133C5A;}
	.st8{fill-rule:evenodd;clip-rule:evenodd;fill:#F8981D;}
	.st9{fill-rule:evenodd;clip-rule:evenodd;}
</style>
<g id="Layer_1-2">
	<path class="st0" d="M171.2,28.3c-24.1-21.5-54-33.8-90.8-25.9C24.1,14.4-0.9,67.5,0,121.1c0.9,49.4,16.7,104.6,62,130.5
		c28.4,16.2,62.7,20.4,94.9,15.1c38.6-6.3,73.3-28.3,82.3-68.4C253.2,136.5,216.2,68.4,171.2,28.3L171.2,28.3z"/>
	<rect x="60.4" y="179" class="st1" width="118.9" height="94.5"/>
	<rect x="152.2" y="179" class="st2" width="40.4" height="94.5"/>
	<polygon class="st2" points="152.2,179 132.9,209.8 41.8,209.8 60.4,179 	"/>
	<polygon class="st3" points="60.4,209.8 132.9,209.8 152.2,179 136.1,219.2 60.4,219.2 	"/>
	<polygon class="st1" points="152.2,179 168.8,208.5 210.2,208.5 192.9,179 	"/>
	<polygon class="st3" points="152.2,179 165,219.2 192.6,219.2 192.6,208.5 168.8,208.5 	"/>
	<rect x="61.8" y="90.1" class="st4" width="127.8" height="77.4"/>
	<rect x="157.9" y="90.1" class="st5" width="31.7" height="77.4"/>
	<rect x="171.6" y="90.3" class="st6" width="4.6" height="77.1"/>
	<path class="st4" d="M182.9,56.1c-18.6,3.6-21.5,6.5-25.1,25.1c-3.6-18.6-6.5-21.5-25.1-25.1c18.6-3.6,21.5-6.5,25.1-25.1
		C161.4,49.7,164.3,52.6,182.9,56.1z"/>
	<path class="st4" d="M134.4,43.9c-7.9,1.5-9.2,2.8-10.7,10.7c-1.5-7.9-2.8-9.2-10.7-10.7c7.9-1.5,9.2-2.8,10.7-10.7
		C125.3,41.1,126.5,42.3,134.4,43.9z"/>
	<path class="st4" d="M57.5,81.4c-8.7,1.7-10,3-11.7,11.7c-1.7-8.7-3-10-11.7-11.7c8.7-1.7,10-3,11.7-11.7
		C47.5,78.4,48.8,79.8,57.5,81.4z"/>
	<path class="st7" d="M100.2,334.9h-5.7v-21.4h12.7v4.6h-7v4.1h6.4v4.6h-6.4L100.2,334.9L100.2,334.9z"/>
	<path class="st7" d="M110.6,313.5h7.5c2.9,0,5.1,0.4,6.5,1.3c1.4,0.9,2.1,2.2,2.1,4c0,1.2-0.3,2.2-0.9,3.1s-1.4,1.4-2.4,1.6v0.1
		c1.3,0.4,2.3,0.9,2.9,1.8s0.9,1.9,0.9,3.2c0,1.9-0.7,3.5-2.2,4.6s-3.4,1.7-6,1.7h-8.3L110.6,313.5L110.6,313.5z M116.3,321.7h1.7
		c0.8,0,1.5-0.2,1.9-0.5s0.7-0.9,0.7-1.5c0-1.2-0.9-1.8-2.7-1.8h-1.6V321.7L116.3,321.7z M116.3,325.9v4.5h2c1.8,0,2.7-0.8,2.7-2.3
		c0-0.7-0.2-1.3-0.7-1.6s-1.2-0.6-2.1-0.6L116.3,325.9L116.3,325.9z"/>
	<path class="st7" d="M143.8,334.9l-1.1-4h-7l-1.1,4h-6.4l7-21.5h7.7l7.1,21.5H143.8L143.8,334.9z M141.6,326.1l-0.9-3.5
		c-0.2-0.8-0.5-1.8-0.8-3s-0.5-2.1-0.6-2.7c-0.1,0.5-0.3,1.3-0.5,2.5s-0.8,3.4-1.7,6.8L141.6,326.1L141.6,326.1z"/>
</g>
<g>
	<path class="st8" d="M120.8,139.2c-3.1,2.3-7.6,3.5-11.5,3.5c-5.4,0-10.3-2-14-5.4c-0.3-0.3,0-0.6,0.3-0.4c4,2.3,8.9,3.7,14,3.7
		c3.4,0,7.2-0.7,10.7-2.2C120.9,138.3,121.4,138.9,120.8,139.2L120.8,139.2z"/>
	<path class="st8" d="M122.1,137.8c-0.4-0.5-2.6-0.2-3.6-0.1c-0.3,0-0.4-0.2-0.1-0.4c1.8-1.2,4.7-0.9,5-0.5c0.3,0.4-0.1,3.3-1.8,4.7
		c-0.3,0.2-0.5,0.1-0.4-0.2C121.7,140.4,122.5,138.3,122.1,137.8L122.1,137.8z"/>
	<path class="st9" d="M118.6,128.4v-1.2c0-0.2,0.1-0.3,0.3-0.3l5.4,0c0.2,0,0.3,0.1,0.3,0.3v1c0,0.2-0.1,0.4-0.4,0.8l-2.8,4
		c1,0,2.2,0.1,3.1,0.7c0.2,0.1,0.3,0.3,0.3,0.5v1.3c0,0.2-0.2,0.4-0.4,0.3c-1.7-0.9-3.9-1-5.7,0c-0.2,0.1-0.4-0.1-0.4-0.3v-1.2
		c0-0.2,0-0.5,0.2-0.8l3.3-4.7l-2.8,0C118.7,128.7,118.6,128.6,118.6,128.4L118.6,128.4z"/>
	<path class="st9" d="M98.7,136h-1.7c-0.2,0-0.3-0.1-0.3-0.3l0-8.5c0-0.2,0.1-0.3,0.3-0.3l1.5,0c0.2,0,0.3,0.1,0.3,0.3v1.1h0
		c0.4-1.1,1.2-1.6,2.2-1.6c1,0,1.7,0.5,2.1,1.6c0.4-1.1,1.3-1.6,2.3-1.6c0.7,0,1.5,0.3,1.9,0.9c0.5,0.7,0.4,1.8,0.4,2.7l0,5.4
		c0,0.2-0.1,0.3-0.3,0.3H106c-0.2,0-0.3-0.1-0.3-0.3l0-4.5c0-0.4,0-1.3,0-1.6c-0.1-0.6-0.5-0.7-1-0.7c-0.4,0-0.8,0.3-1,0.7
		c-0.2,0.4-0.2,1.1-0.2,1.6v4.5c0,0.2-0.1,0.3-0.3,0.3h-1.7c-0.2,0-0.3-0.1-0.3-0.3l0-4.5c0-0.9,0.2-2.3-1-2.3
		c-1.2,0-1.1,1.4-1.1,2.3l0,4.5C99.1,135.8,98.9,136,98.7,136L98.7,136z"/>
	<path class="st9" d="M129.3,128.5c-1.2,0-1.3,1.7-1.3,2.7c0,1,0,3.3,1.3,3.3c1.3,0,1.3-1.8,1.3-2.9c0-0.7,0-1.6-0.2-2.3
		C130.2,128.7,129.9,128.5,129.3,128.5L129.3,128.5z M129.3,126.7c2.5,0,3.8,2.1,3.8,4.8c0,2.6-1.5,4.6-3.8,4.6
		c-2.4,0-3.7-2.1-3.7-4.7C125.6,128.8,126.9,126.7,129.3,126.7L129.3,126.7z"/>
	<path class="st9" d="M136.3,136h-1.6c-0.2,0-0.3-0.1-0.3-0.3l0-8.5c0-0.2,0.2-0.3,0.3-0.3l1.5,0c0.1,0,0.3,0.1,0.3,0.2v1.3h0
		c0.5-1.2,1.1-1.7,2.3-1.7c0.7,0,1.5,0.3,1.9,1c0.4,0.7,0.4,1.8,0.4,2.6v5.3c0,0.2-0.2,0.3-0.3,0.3h-1.7c-0.2,0-0.3-0.1-0.3-0.3
		v-4.6c0-0.9,0.1-2.3-1-2.3c-0.4,0-0.8,0.3-1,0.7c-0.2,0.5-0.3,1-0.3,1.6v4.6C136.6,135.8,136.5,136,136.3,136L136.3,136z"/>
	<path class="st9" d="M115.9,136c-0.1,0.1-0.3,0.1-0.4,0c-0.5-0.5-0.6-0.7-0.9-1.1c-0.9,0.9-1.6,1.2-2.7,1.2c-1.4,0-2.5-0.9-2.5-2.6
		c0-1.3,0.7-2.3,1.8-2.7c0.9-0.4,2.2-0.5,3.1-0.6V130c0-0.4,0-0.9-0.2-1.2c-0.2-0.3-0.6-0.4-0.9-0.4c-0.6,0-1.2,0.3-1.3,1
		c0,0.1-0.1,0.3-0.3,0.3l-1.6-0.2c-0.1,0-0.3-0.1-0.2-0.3c0.4-1.9,2.1-2.5,3.6-2.5h0.1c0.8,0,1.8,0.2,2.4,0.8
		c0.8,0.8,0.7,1.8,0.7,2.8v2.6c0,0.8,0.3,1.1,0.6,1.5c0.1,0.2,0.1,0.3,0,0.4C116.9,135.1,116.3,135.7,115.9,136L115.9,136L115.9,136
		z M114.3,131.9c0,0.6,0,1.2-0.3,1.8c-0.3,0.5-0.7,0.8-1.1,0.8c-0.6,0-1-0.5-1-1.2c0-1.4,1.3-1.7,2.5-1.7V131.9L114.3,131.9z"/>
	<path class="st9" d="M94.2,136c-0.1,0.1-0.3,0.1-0.4,0c-0.5-0.5-0.6-0.7-0.9-1.1c-0.9,0.9-1.6,1.2-2.7,1.2c-1.4,0-2.5-0.9-2.5-2.6
		c0-1.3,0.7-2.3,1.8-2.7c0.9-0.4,2.2-0.5,3.1-0.6V130c0-0.4,0-0.9-0.2-1.2c-0.2-0.3-0.6-0.4-0.9-0.4c-0.6,0-1.2,0.3-1.3,1
		c0,0.1-0.1,0.3-0.3,0.3l-1.6-0.2c-0.1,0-0.3-0.1-0.2-0.3c0.4-1.9,2.1-2.5,3.6-2.5h0.1c0.8,0,1.8,0.2,2.4,0.8
		c0.8,0.8,0.7,1.8,0.7,2.8v2.6c0,0.8,0.3,1.1,0.6,1.5c0.1,0.2,0.1,0.3,0,0.4C95.2,135.1,94.6,135.7,94.2,136L94.2,136L94.2,136z
		 M92.6,131.9c0,0.6,0,1.2-0.3,1.8c-0.3,0.5-0.7,0.8-1.1,0.8c-0.6,0-1-0.5-1-1.2c0-1.4,1.3-1.7,2.5-1.7V131.9L92.6,131.9z"/>
	<path class="st8" d="M95.2,122.6c0,0.1-0.1,0.1-0.1,0.1h-0.7c-0.1,0-0.1-0.1-0.1-0.1c0-1.9,0-3.7,0-5.6c0-0.1,0.1-0.1,0.1-0.1H95
		c0.1,0,0.1,0.1,0.1,0.1C95.2,118.9,95.2,120.8,95.2,122.6L95.2,122.6z M94.7,114.6c0.3,0,0.6,0.3,0.6,0.6c0,0.4-0.3,0.6-0.6,0.6
		c-0.3,0-0.6-0.3-0.6-0.6C94.1,114.9,94.4,114.6,94.7,114.6L94.7,114.6z"/>
	<path class="st9" d="M79.7,124.4c0-0.1,0.1-0.1,0.1-0.1h0.4c0.1,0,0.1,0.1,0.1,0.1v1.7c0.2-0.1,0.5-0.1,0.7-0.1
		c1.1,0,1.8,0.7,1.8,2c0,1.3-0.9,2.1-2,2.1c-0.6,0-1-0.1-1.2-0.3C79.7,128,79.7,126.2,79.7,124.4L79.7,124.4z M82.2,128
		c0,1.2-1,1.7-1.7,1.3v-2.5C81,126.5,82.2,126.6,82.2,128L82.2,128z"/>
	<path class="st9" d="M83.7,131.8c-0.3,0-0.6,0-1-0.1c-0.1,0-0.1-0.1-0.1-0.1l0.1-0.4c0-0.1,0.1-0.1,0.2-0.1
		c0.8,0.3,1.1-0.2,1.3-0.7c0.1-0.2,0.1-0.4,0.2-0.5c-0.7-1.6-0.8-1.8-1.6-3.6c0-0.1-0.1-0.2,0.1-0.2l0.5,0c0.1,0,0.2,0.1,0.2,0.1
		c0.7,1.6,0.7,1.6,1.1,2.7c0.3-0.8,0.5-1.5,0.9-2.7c0-0.1,0.1-0.1,0.2-0.1h0.5c0.2,0,0.2,0.1,0.1,0.2c-0.6,1.7-0.8,2.3-1.3,3.9
		C84.9,130.9,84.5,131.7,83.7,131.8L83.7,131.8z"/>
	<path class="st8" d="M90,122l0.2,0.5c0,0,0,0.1,0,0.1c-0.2,0.2-0.5,0.3-0.8,0.3c-0.7,0-1-0.4-1-1.2c0-2.4,0-4.9,0-7.3
		c0-0.1,0.1-0.1,0.1-0.1h0.7c0.1,0,0.1,0.1,0.1,0.1c0,2.4,0,4.8,0,7.1c0,0.4,0,0.6,0.6,0.4C89.9,121.9,90,121.9,90,122L90,122z"/>
	<path class="st8" d="M98.2,122l0.2,0.5c0,0,0,0.1,0,0.1c-0.2,0.2-0.5,0.3-0.8,0.3c-0.7,0-1-0.4-1-1.2c0-2.4,0-4.9,0-7.3
		c0-0.1,0.1-0.1,0.1-0.1h0.7c0.1,0,0.1,0.1,0.1,0.1c0,2.4,0,4.8,0,7.1c0,0.4,0,0.6,0.6,0.4C98.1,121.9,98.2,121.9,98.2,122L98.2,122
		z"/>
	<path class="st8" d="M100.7,122l0.2,0.5c0,0,0,0.1,0,0.1c-0.2,0.2-0.5,0.3-0.8,0.3c-0.7,0-1-0.4-1-1.2c0-2.4,0-4.9,0-7.3
		c0-0.1,0.1-0.1,0.1-0.1h0.7c0.1,0,0.1,0.1,0.1,0.1c0,2.4,0,4.8,0,7.1c0,0.4,0,0.6,0.6,0.4C100.7,121.9,100.7,121.9,100.7,122
		L100.7,122z"/>
	<path class="st8" d="M124.5,121.7l0.3,0.5c0,0,0,0.1,0,0.1c-0.4,0.4-0.9,0.6-1.5,0.6c-0.7,0-1.2-0.5-1.2-1.2v-3.9h-0.8
		c-0.1,0-0.1-0.1-0.1-0.1v-0.6c0-0.1,0.1-0.1,0.1-0.1h0.8v-1.1c0-0.1,0.1-0.1,0.1-0.2l0.5-0.2c0.1,0,0.3,0,0.3,0.2v1.3h1.4
		c0.2,0,0.2,0.1,0.2,0.3l-0.2,0.4c0,0.1-0.1,0.1-0.2,0.1H123v3.7c0,0.4,0.2,0.7,1.1,0.3l0.3-0.1
		C124.4,121.6,124.5,121.6,124.5,121.7L124.5,121.7z"/>
	<path class="st8" d="M114.6,121.7l0.2,0.4c0.1,0.1-0.1,0.2-0.1,0.3c-0.5,0.4-1.2,0.5-1.8,0.5c-1.4-0.1-2.5-1.3-2.5-3
		c0-1.8,0.8-3.1,2.3-3.1c2.2,0,2.3,2.5,2.3,2.8c0,0,0.1,0.5-0.3,0.5c-0.1,0-2.5,0-3.3,0c0,1.4,0.9,1.9,1.7,1.9
		c0.5,0,0.8-0.1,1.3-0.3C114.5,121.7,114.6,121.7,114.6,121.7L114.6,121.7z M111.4,119.2h2.5c0-0.9-0.6-1.6-1.2-1.6
		C112,117.7,111.4,118.4,111.4,119.2L111.4,119.2z"/>
	<path class="st8" d="M92,122.6c0,0.1-0.1,0.1-0.1,0.1h-0.7c-0.1,0-0.1-0.1-0.1-0.1c0-1.6,0-3.2,0-4.9h-0.6c-0.1,0-0.1-0.1-0.1-0.1
		v-0.6c0-0.1,0.1-0.1,0.1-0.1h0.6v-0.8c0-1.3,0.6-1.9,1.6-1.9c0.4,0,0.6,0.1,0.8,0.2c0.1,0,0.1,0.1,0.1,0.2l-0.1,0.5
		c0,0.1-0.1,0.1-0.2,0.1c-0.4-0.2-0.8-0.1-1,0.1c-0.1,0.2-0.2,0.4-0.2,0.7v1h1.2c0.2,0,0.2,0.1,0.2,0.3l-0.2,0.4
		c0,0.1-0.1,0.1-0.2,0.1h-1C92,119.4,92,121,92,122.6L92,122.6z"/>
	<path class="st8" d="M80.7,122.6c0,0.1-0.1,0.1-0.1,0.1h-0.7c-0.1,0-0.1-0.1-0.1-0.1c0-1.6,0-3.2,0-4.9h-0.6
		c-0.1,0-0.1-0.1-0.1-0.1v-0.6c0-0.1,0.1-0.1,0.1-0.1h0.6v-0.8c0-1.3,0.6-1.9,1.6-1.9c0.4,0,0.6,0.1,0.8,0.2c0.1,0,0.1,0.1,0.1,0.2
		l-0.1,0.5c0,0.1-0.1,0.1-0.2,0.1c-0.4-0.2-0.8-0.1-1,0.1c-0.1,0.2-0.2,0.4-0.2,0.7v1h1.2c0.2,0,0.2,0.1,0.2,0.3l-0.2,0.4
		c0,0.1-0.1,0.1-0.2,0.1h-1C80.7,119.4,80.7,121,80.7,122.6L80.7,122.6z"/>
	<path class="st8" d="M87.1,121.1c0,0.4,0,1.2,0.1,1.5c0,0.1,0,0.2-0.2,0.2h-0.6c-0.1,0-0.1-0.1-0.1-0.1l-0.1-0.4
		c-0.4,0.3-1.1,0.6-1.8,0.6c-0.9,0-1.7-0.6-1.7-1.9c0-1.3,0-2.6,0-3.9c0-0.1,0.1-0.1,0.1-0.1h0.7c0.1,0,0.1,0.1,0.1,0.1
		c0,1.2,0,2.5,0,3.7c0,0.9,0.3,1.2,0.9,1.2c0.5,0,1.3-0.4,1.5-0.8c0-1.4,0-2.7,0-4.1c0-0.1,0.1-0.1,0.1-0.1h0.7
		c0.1,0,0.1,0.1,0.1,0.1C87.1,118.4,87.1,119.7,87.1,121.1L87.1,121.1z"/>
	<path class="st8" d="M116,117.1c0-0.1,0.1-0.2,0.2-0.2h0.5c0.1,0,0.1,0,0.2,0.1l0,0.4c0.6-0.4,1.1-0.7,1.9-0.7c1,0,1.7,0.7,1.7,2.1
		c0,1.2,0,2.5,0,3.7c0,0.1-0.1,0.1-0.1,0.1h-0.7c-0.1,0-0.1-0.1-0.1-0.1c0-1.2,0-2.4,0-3.6c0-1-0.4-1.4-0.9-1.4
		c-0.5,0-1.1,0.3-1.7,0.9c0,1.4,0,2.7,0,4.1c0,0.1-0.1,0.1-0.1,0.1h-0.7c-0.1,0-0.1-0.1-0.1-0.1C116,120.8,116,119,116,117.1
		L116,117.1z"/>
	<path class="st8" d="M101.6,117.1c0-0.1,0.1-0.2,0.2-0.2h0.4c0.1,0,0.2,0,0.3,0.2l0.1,0.4c0.6-0.4,1.1-0.7,1.8-0.7
		c0.6,0,1.2,0.3,1.4,0.9c0.6-0.5,1.3-0.9,2-0.9c1,0,1.7,0.7,1.7,2.1c0,1.2,0,2.5,0,3.7c0,0.1-0.1,0.1-0.1,0.1h-0.7
		c-0.1,0-0.1-0.1-0.1-0.1c0-1.2,0-2.4,0-3.6c0-1-0.3-1.4-0.8-1.4c-0.5,0-1.1,0.3-1.7,0.9c0,0.1,0,0.2,0,0.3c0,1.2,0,2.5,0,3.7
		c0,0.1-0.1,0.1-0.1,0.1h-0.7c-0.1,0-0.1-0.1-0.1-0.1c0-1.2,0-2.4,0-3.6c0-1-0.4-1.4-0.9-1.4c-0.5,0-1.1,0.3-1.7,0.9
		c0,1.4,0,2.7,0,4.1c0,0.1-0.1,0.1-0.1,0.1h-0.7c-0.1,0-0.1-0.1-0.1-0.1C101.6,120.8,101.6,118.9,101.6,117.1L101.6,117.1z"/>
</g>
</svg>
