<?xml version="1.0" encoding="UTF-8"?>
<!-- Generator: Adobe Illustrator 19.2.1, SVG Export Plug-In . SVG Version: 6.00 Build 0)  -->
<svg version="1.1" id="Layer_1" xmlns="http://www.w3.org/2000/svg" xmlns:xlink="http://www.w3.org/1999/xlink" x="0px" y="0px" viewBox="0 0 329.6 55.5" style="enable-background:new 0 0 329.6 55.5;" xml:space="preserve">
<style type="text/css">
	.st0{fill:#FFFFFF;}
	.st1{fill:#FFFFFF;}
</style>
<path class="st0" d="M34,37.9L22.6,26.5L0.9,48.2c1.5,3.3,4.8,5.6,8.6,5.6h34.8c5.2,0,9.5-4.3,9.5-9.5V18.2L34,37.9z"/>
<path class="st1" d="M22.6,15.6L34,27L53.6,7.5C52.7,3.2,48.8,0,44.3,0H9.5C4.3,0,0,4.3,0,9.5v28.7L22.6,15.6z"/>
<g>
	<path class="st0" d="M89.4,8.7c0.3,0.3,0.4,0.6,0.4,1v1.9c0,0.4-0.1,0.7-0.4,1c-0.3,0.3-0.6,0.4-1,0.4H70.8v12.3h16.5   c0.4,0,0.7,0.1,1,0.4c0.3,0.3,0.4,0.6,0.4,1v1.9c0,0.4-0.1,0.7-0.4,1c-0.3,0.3-0.6,0.4-1,0.4H70.8v14c0,0.4-0.1,0.7-0.4,1   c-0.3,0.3-0.6,0.4-1,0.4h-2.2c-0.4,0-0.7-0.1-1-0.4c-0.3-0.3-0.4-0.6-0.4-1V9.8c0-0.4,0.1-0.7,0.4-1c0.3-0.3,0.6-0.4,1-0.4h21.2   C88.8,8.3,89.1,8.5,89.4,8.7z"/>
	<path class="st0" d="M119.5,31.9c0,0.9,0,1.7-0.1,2.5c-0.3,3.6-1.6,6.5-3.8,8.7c-2.2,2.2-5.2,3.2-8.9,3.2c-3.7,0-6.7-1.1-8.9-3.2   c-2.2-2.2-3.4-5-3.8-8.7c0-0.4-0.1-1.2-0.1-2.5c0-1.3,0-2.2,0.1-2.6c0.3-3.6,1.5-6.5,3.7-8.7c2.2-2.2,5.2-3.2,8.9-3.2   c3.7,0,6.7,1.1,8.9,3.2c2.2,2.2,3.5,5,3.7,8.7C119.4,30.1,119.5,30.9,119.5,31.9z M112.2,24.1c-1.3-1.4-3.1-2.1-5.5-2.1   c-2.4,0-4.2,0.7-5.5,2.1c-1.3,1.4-2.1,3.2-2.3,5.5c0,0.4-0.1,1.2-0.1,2.3c0,1.1,0,1.8,0.1,2.2c0.2,2.3,1,4.1,2.3,5.5   c1.3,1.4,3.1,2.1,5.5,2.1c2.4,0,4.2-0.7,5.5-2.1c1.3-1.4,2.1-3.2,2.3-5.5c0.1-0.8,0.1-1.5,0.1-2.2c0-0.7,0-1.4-0.1-2.3   C114.3,27.3,113.5,25.5,112.2,24.1z"/>
	<path class="st0" d="M141.3,18.4c0.3,0.3,0.4,0.6,0.4,1v1.7c0,0.4-0.1,0.7-0.4,1c-0.3,0.3-0.6,0.4-1,0.4h-3.1c-2,0-3.5,0.5-4.6,1.6   c-1.1,1.1-1.6,2.6-1.6,4.6v15.6c0,0.4-0.1,0.7-0.4,1c-0.3,0.3-0.6,0.4-1,0.4h-2c-0.4,0-0.7-0.1-1-0.4c-0.3-0.3-0.4-0.6-0.4-1V19.4   c0-0.4,0.1-0.7,0.4-1c0.3-0.3,0.6-0.4,1-0.4h2c0.4,0,0.7,0.1,1,0.4c0.3,0.3,0.4,0.6,0.4,1V21c0.7-1.1,1.6-1.9,2.6-2.4   c1-0.5,2.3-0.7,3.9-0.7h2.8C140.6,17.9,141,18.1,141.3,18.4z"/>
	<path class="st0" d="M165.7,21c2.2,2.4,3.3,5.7,3.3,9.9v1.4c0,0.4-0.1,0.7-0.4,1c-0.3,0.3-0.6,0.4-1,0.4h-18.4v0.3   c0.1,2.4,0.8,4.2,2.2,5.5c1.4,1.3,3.1,2,5.3,2c1.8,0,3.2-0.2,4.1-0.7c1-0.5,1.9-1.1,2.6-2c0.3-0.3,0.5-0.5,0.8-0.6   c0.2-0.1,0.5-0.2,0.9-0.2h1.6c0.4,0,0.8,0.1,1.1,0.4c0.3,0.3,0.4,0.6,0.4,1c-0.1,1-0.7,2-1.6,3c-0.9,1-2.2,1.9-3.9,2.6   c-1.7,0.7-3.7,1-6.1,1c-2.3,0-4.3-0.5-6.1-1.6c-1.8-1.1-3.2-2.5-4.2-4.4c-1.1-1.9-1.7-3.9-1.9-6.2c-0.1-1.1-0.1-1.9-0.1-2.5   c0-0.6,0-1.4,0.1-2.5c0.2-2.2,0.8-4.2,1.9-6c1.1-1.8,2.5-3.2,4.2-4.2c1.8-1,3.8-1.5,6.1-1.5C160.5,17.4,163.5,18.6,165.7,21z    M164.2,29.3v-0.2c0-2.2-0.7-3.9-2.1-5.2c-1.4-1.3-3.2-1.9-5.5-1.9c-2.1,0-3.8,0.7-5.3,2c-1.4,1.3-2.2,3-2.2,5.2v0.2H164.2z"/>
	<path class="st0" d="M193.9,37.5c0.2-0.5,0.5-0.9,0.7-1.1s0.6-0.3,1-0.3h1.6c0.4,0,0.7,0.1,1,0.4s0.4,0.6,0.4,0.9   c0,1.2-0.5,2.5-1.4,3.9c-1,1.4-2.4,2.6-4.2,3.5s-4,1.4-6.4,1.4c-2.5,0-4.7-0.5-6.6-1.6c-1.9-1.1-3.3-2.5-4.3-4.4s-1.5-4-1.7-6.3   c0-0.4-0.1-1.2-0.1-2.5c0-0.9,0-1.5,0.1-1.8c0.3-3.6,1.5-6.6,3.7-8.9c2.1-2.3,5.1-3.4,8.8-3.4c2.5,0,4.6,0.5,6.4,1.4   c1.8,0.9,3.2,2.1,4.1,3.5c0.9,1.4,1.5,2.7,1.5,3.9c0,0.4-0.1,0.7-0.4,1c-0.3,0.3-0.7,0.4-1,0.4h-1.6c-0.4,0-0.8-0.1-1-0.3   c-0.2-0.2-0.5-0.6-0.7-1.1c-1.2-2.8-3.7-4.2-7.2-4.2c-2,0-3.7,0.7-5.1,2c-1.5,1.3-2.3,3.3-2.5,6c0,0.4-0.1,1-0.1,1.9   c0,0.8,0,1.4,0.1,1.8c0.2,2.7,1.1,4.7,2.5,6c1.4,1.3,3.1,2,5.1,2C190.3,41.6,192.7,40.3,193.9,37.5z"/>
	<path class="st0" d="M221.6,28.1v-0.7c0-1.7-0.6-3.1-1.7-4c-1.2-0.9-2.7-1.4-4.5-1.4c-1.4,0-2.5,0.2-3.3,0.7   c-0.8,0.5-1.6,1.2-2.3,2.2c-0.2,0.3-0.4,0.5-0.7,0.6c-0.2,0.1-0.6,0.2-1,0.2h-1.6c-0.4,0-0.7-0.1-1-0.4c-0.3-0.3-0.4-0.6-0.4-1   c0.1-1.1,0.6-2.1,1.6-3.2c0.9-1,2.2-1.9,3.8-2.6c1.6-0.7,3.2-1,5-1c3.3,0,6,0.9,8,2.8c2,1.9,3.1,4.5,3.1,7.8v16.3   c0,0.4-0.1,0.7-0.4,1c-0.3,0.3-0.6,0.4-1,0.4h-2c-0.4,0-0.7-0.1-1-0.4c-0.3-0.3-0.4-0.6-0.4-1v-2.2c-0.6,1.3-1.8,2.3-3.6,3   c-1.9,0.7-3.7,1.1-5.6,1.1c-1.8,0-3.4-0.3-4.9-1c-1.4-0.7-2.5-1.6-3.3-2.7c-0.8-1.1-1.1-2.4-1.1-3.8c0-2.7,1-4.8,3-6.3   c2-1.5,4.6-2.5,8-3.1L221.6,28.1z M221.6,32.4l-6.3,1c-2.3,0.4-4.1,0.9-5.4,1.7c-1.3,0.8-1.9,1.8-1.9,3c0,0.9,0.4,1.7,1.2,2.4   c0.8,0.7,2.1,1.1,3.7,1.1c2.6,0,4.6-0.7,6.2-2.2c1.6-1.5,2.4-3.4,2.4-5.7V32.4z"/>
	<path class="st0" d="M233.2,25.4c0-1.5,0.4-2.8,1.2-4c0.8-1.2,2-2.2,3.5-2.9c1.5-0.7,3.4-1.1,5.7-1.1c2.2,0,4.1,0.3,5.7,1   c1.6,0.6,2.8,1.4,3.7,2.4c0.8,1,1.3,1.9,1.3,2.8c0,0.4-0.1,0.7-0.4,0.9s-0.6,0.4-1,0.4H251c-0.7,0-1.2-0.2-1.6-0.7   c-1.1-1.4-3-2.1-5.8-2.1c-1.6,0-3,0.3-4,0.9c-1,0.6-1.5,1.4-1.5,2.5c0,0.9,0.2,1.6,0.7,2c0.5,0.5,1.2,0.8,2.2,1.1   c1,0.3,2.8,0.7,5.3,1.3c3.1,0.7,5.4,1.7,6.7,3.1c1.3,1.4,2,3.1,2,5.1c0,1.5-0.5,2.8-1.4,4.1c-0.9,1.2-2.2,2.3-3.9,3   c-1.7,0.8-3.7,1.1-5.9,1.1c-2.2,0-4.2-0.3-5.8-1c-1.7-0.7-3-1.5-3.9-2.5c-0.9-1-1.4-1.9-1.4-2.8c0-0.4,0.1-0.7,0.4-0.9   c0.3-0.3,0.6-0.4,1-0.4h1.9c0.3,0,0.6,0,0.9,0.1c0.2,0.1,0.5,0.3,0.7,0.6c1.2,1.6,3.3,2.5,6.2,2.5c1.7,0,3.1-0.3,4.4-1   c1.3-0.7,1.9-1.6,1.9-2.6c0-0.9-0.3-1.5-0.9-2.1c-0.6-0.5-1.5-0.9-2.7-1.3c-1.2-0.3-3-0.8-5.5-1.3   C235.8,32.3,233.2,29.6,233.2,25.4z"/>
	<path class="st0" d="M269.5,39.9c0.6,0.8,1.8,1.2,3.6,1.2h2.8c0.4,0,0.7,0.1,1,0.4c0.3,0.3,0.4,0.6,0.4,1v1.7c0,0.4-0.1,0.7-0.4,1   c-0.3,0.3-0.6,0.4-1,0.4h-3.4c-3,0-5.3-0.8-6.7-2.4c-1.4-1.6-2.1-3.9-2.1-7V22.5h-4c-0.4,0-0.7-0.1-1-0.4c-0.3-0.3-0.4-0.6-0.4-1   v-1.7c0-0.4,0.1-0.7,0.4-1c0.3-0.3,0.6-0.4,1-0.4h4V9.2c0-0.4,0.1-0.7,0.4-1c0.3-0.3,0.6-0.4,1-0.4h2c0.4,0,0.7,0.1,1,0.4   c0.3,0.3,0.4,0.6,0.4,1v8.7h6.8c0.4,0,0.7,0.1,1,0.4c0.3,0.3,0.4,0.6,0.4,1v1.7c0,0.4-0.1,0.7-0.4,1c-0.3,0.3-0.6,0.4-1,0.4h-6.8   v13.8C268.6,37.9,268.9,39.1,269.5,39.9z"/>
	<path class="st1" d="M306.9,11.1c2.4,1.8,3.6,4.6,3.6,8.3c0,2.8-0.7,5-2.1,6.8c-1.4,1.7-3.3,3-5.6,3.7l8.1,14   c0.1,0.2,0.2,0.4,0.2,0.6c0,0.3-0.1,0.6-0.3,0.8c-0.2,0.2-0.5,0.3-0.8,0.3h-2.3c-1,0-1.8-0.5-2.3-1.4l-7.7-13.6h-9.2v13.6   c0,0.4-0.1,0.7-0.4,1c-0.3,0.3-0.6,0.4-1,0.4h-2.2c-0.4,0-0.7-0.1-1-0.4c-0.3-0.3-0.4-0.6-0.4-1V9.8c0-0.4,0.1-0.7,0.4-1   c0.3-0.3,0.6-0.4,1-0.4h12.9C301.4,8.3,304.5,9.2,306.9,11.1z M297.4,25.8c5.4,0,8.1-2.2,8.1-6.5c0-2.2-0.7-3.8-2-4.8   s-3.4-1.5-6-1.5h-9v12.7H297.4z"/>
	<path class="st1" d="M317.6,27.3c-0.1,0.2-0.3,0.3-0.4,0.4c-0.1,0.1-0.3,0.2-0.6,0.2h-1.4c-0.2,0-0.4-0.1-0.5-0.2   c-0.1-0.1-0.2-0.3-0.2-0.5c0-0.2,0-0.3,0.1-0.4l5.7-7.1l-5.4-6.8c-0.1-0.1-0.1-0.3-0.1-0.4c0-0.2,0.1-0.4,0.2-0.5   c0.1-0.1,0.3-0.2,0.5-0.2h1.5c0.2,0,0.4,0.1,0.6,0.2s0.3,0.3,0.4,0.4l4.1,5.2l4.1-5.2c0.1-0.2,0.3-0.3,0.4-0.4s0.3-0.2,0.6-0.2h1.4   c0.2,0,0.4,0.1,0.5,0.2c0.1,0.1,0.2,0.3,0.2,0.5c0,0.2,0,0.3-0.1,0.4l-5.4,6.8l5.6,7.1c0.1,0.1,0.1,0.3,0.1,0.4   c0,0.2-0.1,0.4-0.2,0.5c-0.1,0.1-0.3,0.2-0.5,0.2h-1.5c-0.2,0-0.4-0.1-0.6-0.2c-0.1-0.1-0.3-0.3-0.4-0.4l-4.4-5.5L317.6,27.3z"/>
</g>
</svg>